<?xml version="1.0" standalone="no"?>
<!DOCTYPE svg PUBLIC "-//W3C//DTD SVG 1.1//EN"
"http://www.w3.org/Graphics/SVG/1.1/DTD/svg11.dtd">
<!-- original:
<svg width="477.58" height="477.58" viewBox="0 0 9949.58 9949.58" version="1.1"
-->
<svg width="4775.8" height="4775.8" viewBox="0 0 9949.58 9949.58" version="1.1"
xmlns="http://www.w3.org/2000/svg"
xmlns:xlink="http://www.w3.org/1999/xlink">
<polyline points="64.9729,4986.56 65.1969,4926.57 65.2049,4925.84 66.1689,4865.85 66.1849,4865.12 67.8909,4805.14 67.9169,4804.41 70.3669,4744.46 70.4009,4743.73 73.5889,4683.82 73.6309,4683.09 77.5629,4623.21 77.6169,4622.49 82.2869,4562.67 82.3469,4561.94 87.7569,4502.19 87.8269,4501.46 93.9769,4441.78 94.0569,4441.05 100.943,4381.45 101.031,4380.72 108.655,4321.21 108.753,4320.49 117.111,4261.07 117.217,4260.35 126.311,4201.04 126.427,4200.32 136.253,4141.13 136.377,4140.41 146.933,4081.35 147.065,4080.63 158.353,4021.7 158.495,4020.98 170.511,3962.2 170.661,3961.49 183.401,3902.86 183.561,3902.14 197.027,3843.67 197.195,3842.96 211.383,3784.67 211.561,3783.96 226.469,3725.84 226.655,3725.14 242.279,3667.21 242.473,3666.5 258.815,3608.77 259.019,3608.07 276.071,3550.54 276.283,3549.84 294.047,3492.53 294.267,3491.84 312.739,3434.75 312.969,3434.06 332.145,3377.2 332.381,3376.52 352.257,3319.91 352.505,3319.22 373.083,3262.85 373.337,3262.17 394.609,3206.07 394.845,3205.45 412.361,3160.76 412.605,3160.15 435.119,3104.54 435.397,3103.86 458.599,3048.53 458.885,3047.86 482.769,2992.82 483.065,2992.15 507.629,2937.41 507.931,2936.75 533.169,2882.31 533.481,2881.65 559.391,2827.54 559.711,2826.88 586.289,2773.09 586.617,2772.43 613.857,2718.98 614.193,2718.33 642.093,2665.21 642.435,2664.56 670.989,2611.79 671.341,2611.15 700.547,2558.74 700.907,2558.11 730.757,2506.06 731.123,2505.43 761.615,2453.76 761.991,2453.13 793.121,2401.84 793.465,2401.28 818.823,2360.52 819.175,2359.96 851.439,2309.38 851.833,2308.77 884.719,2258.58 885.125,2257.97 918.631,2208.2 919.041,2207.6 953.159,2158.24 953.579,2157.64 988.305,2108.72 988.731,2108.12 1024.06,2059.63 1024.49,2059.04 1060.42,2010.98 1060.86,2010.4 1097.38,1962.79 1097.82,1962.22 1134.93,1915.07 1135.38,1914.49 1173.07,1867.8 1173.53,1867.24 1211.79,1821.02 1212.26,1820.46 1251.08,1774.72 1251.56,1774.16 1290.95,1728.9 1291.43,1728.36 1331.38,1683.59 1331.87,1683.05 1372.36,1638.78 1372.86,1638.24 1413.9,1594.47 1414.41,1593.94 1455.99,1550.69 1456.5,1550.16 1498.61,1507.43 1499.12,1506.91 1541.76,1464.7 1542.28,1464.18 1585.44,1422.5 1585.97,1422 1629.64,1380.85 1630.17,1380.35 1674.34,1339.75 1674.88,1339.26 1719.56,1299.21 1720.1,1298.72 1765.27,1259.22 1765.82,1258.75 1811.47,1219.81 1812.03,1219.34 1858.16,1180.97 1858.72,1180.51 1905.32,1142.71 1905.89,1142.25 1952.96,1105.04 1953.53,1104.59 2001.05,1067.96 2001.63,1067.52 2049.6,1031.48 2050.19,1031.04 2098.6,995.599 2099.19,995.171 2148.04,960.327 2148.63,959.907 2197.91,925.671 2198.51,925.257 2248.2,891.633 2248.81,891.227 2298.91,858.221 2299.53,857.823 2350.04,825.439 2350.65,825.049 2401.56,793.291 2402.18,792.909 2453.48,761.785 2454.1,761.411 2505.78,730.921 2506.41,730.553 2558.46,700.707 2559.1,700.347 2611.51,671.147 2612.15,670.795 2664.92,642.245 2665.56,641.901 2718.68,614.005 2719.33,613.669 2772.8,586.433 2773.45,586.107 2827.24,559.535 2827.9,559.215 2882.02,533.309 2882.61,533.029 2926.13,512.787 2926.73,512.513 2981.42,487.819 2982.08,487.521 3037.07,463.505 3037.74,463.217 3093.01,439.883 3093.69,439.603 3149.25,416.955 3149.93,416.685 3205.77,394.725 3206.45,394.461 3262.55,373.195 3263.23,372.941 3319.6,352.369 3320.29,352.123 3376.9,332.251 3377.59,332.013 3434.44,312.841 3435.14,312.611 3492.22,294.145 3492.92,293.925 3550.23,276.165 3550.93,275.953 3608.46,258.905 3609.16,258.701 3666.89,242.365 3667.59,242.171 3725.52,226.551 3726.23,226.365 3784.35,211.461 3785.06,211.285 3843.36,197.103 3844.07,196.935 3902.54,183.473 3903.25,183.313 3961.88,170.577 3962.53,170.441 4009.54,160.775 4010.19,160.645 4069.09,149.217 4069.73,149.097 4116.95,140.479 4117.6,140.363 4176.74,130.251 4177.46,130.133 4236.72,120.751 4237.45,120.641 4296.82,111.993 4297.54,111.893 4357.02,103.979 4357.74,103.887 4417.31,96.7109 4418.04,96.6289 4477.69,90.1889 4478.42,90.1129 4538.15,84.4129 4538.87,84.3489 4598.67,79.3869 4599.4,79.3309 4659.25,75.1089 4659.98,75.0629 4719.87,71.5829 4720.6,71.5449 4780.54,68.8049 4781.27,68.7749 4841.23,66.7749 4841.97,66.7549 4901.95,65.4989 4902.68,65.4889 4962.68,64.9749 4963.41,64.9729 5023.41,65.2009 5024.14,65.2089 5084.13,66.1769 5084.86,66.1929 5144.84,67.9049 5145.57,67.9309 5205.52,70.3849 5206.24,70.4189 5266.16,73.6129 5266.89,73.6569 5326.76,77.5929 5327.49,77.6449 5387.31,82.3209 5388.03,82.3809 5447.79,87.7949 5448.51,87.8669 5508.2,94.0209 5508.92,94.0989 5568.53,100.991 5569.25,101.081 5628.76,108.709 5629.41,108.795 5676.95,115.427 5677.61,115.521 5736.93,124.473 5737.65,124.587 5796.87,134.271 5797.59,134.393 5856.68,144.809 5857.39,144.941 5916.35,156.087 5917.07,156.227 5975.88,168.103 5976.59,168.251 6035.25,180.851 6035.97,181.009 6094.47,194.335 6095.18,194.503 6153.51,208.551 6154.22,208.725 6212.37,223.493 6213.08,223.679 6271.05,239.167 6271.75,239.359 6329.52,255.561 6330.22,255.763 6387.79,272.679 6388.49,272.889 6445.84,290.515 6446.54,290.735 6503.67,309.071 6504.36,309.297 6561.26,328.337 6561.95,328.573 6618.61,348.315 6619.3,348.559 6675.71,368.999 6676.39,369.253 6732.55,390.391 6733.23,390.653 6789.11,412.483 6789.79,412.753 6845.41,435.275 6846.08,435.553 6901.41,458.759 6902.08,459.045 6957.12,482.933 6957.72,483.199 7001.54,502.799 7002.14,503.071 7056.63,528.179 7057.29,528.489 7111.47,554.269 7112.13,554.587 7165.99,581.037 7166.64,581.363 7220.16,608.475 7220.81,608.809 7274,636.581 7274.64,636.923 7327.48,665.351 7328.12,665.701 7380.6,694.781 7381.24,695.139 7433.36,724.865 7433.99,725.231 7485.73,755.601 7486.36,755.973 7537.73,786.979 7538.35,787.361 7589.33,819.001 7589.95,819.391 7640.53,851.659 7641.15,852.055 7691.33,884.945 7691.94,885.349 7741.71,918.859 7742.31,919.271 7791.66,953.393 7792.26,953.811 7841.19,988.541 7841.78,988.969 7890.27,1024.3 7890.86,1024.73 7938.91,1060.66 7939.49,1061.1 7987.1,1097.62 7987.67,1098.07 8034.82,1135.18 8035.39,1135.63 8082.08,1173.32 8082.65,1173.78 8128.86,1212.05 8129.42,1212.52 8175.16,1251.35 8175.71,1251.82 8220.97,1291.22 8221.52,1291.7 8266.28,1331.65 8266.83,1332.14 8311.09,1372.64 8311.63,1373.14 8355.39,1414.18 8355.92,1414.68 8399.17,1456.27 8399.7,1456.78 8442.43,1498.89 8442.95,1499.41 8485.16,1542.05 8485.67,1542.57 8527.35,1585.73 8527.86,1586.26 8569,1629.93 8569.49,1630.47 8610.09,1674.64 8610.59,1675.19 8650.63,1719.86 8651.12,1720.41 8690.61,1765.58 8691.09,1766.13 8730.02,1811.78 8730.49,1812.34 8768.86,1858.47 8769.32,1859.04 8807.11,1905.64 8807.57,1906.21 8844.78,1953.27 8845.19,1953.79 8874.53,1991.77 8874.93,1992.3 8911.09,2040.18 8911.53,2040.76 8947.09,2089.09 8947.52,2089.68 8982.47,2138.44 8982.9,2139.04 9017.25,2188.23 9017.66,2188.83 9051.41,2238.45 9051.81,2239.05 9084.94,2289.08 9085.34,2289.69 9117.84,2340.12 9118.24,2340.74 9150.12,2391.57 9150.5,2392.19 9181.75,2443.41 9182.12,2444.03 9212.74,2495.64 9213.1,2496.27 9243.08,2548.25 9243.44,2548.88 9272.76,2601.22 9273.12,2601.86 9301.79,2654.57 9302.14,2655.21 9330.16,2708.26 9330.5,2708.91 9357.86,2762.31 9358.19,2762.96 9384.89,2816.69 9385.21,2817.35 9411.25,2871.41 9411.56,2872.06 9436.92,2926.44 9437.23,2927.1 9461.92,2981.79 9462.19,2982.39 9481.45,3026.35 9481.71,3026.95 9505.18,3082.18 9505.46,3082.85 9528.24,3138.36 9528.51,3139.03 9550.6,3194.82 9550.87,3195.5 9572.27,3251.55 9572.53,3252.23 9593.23,3308.55 9593.48,3309.24 9613.49,3365.8 9613.73,3366.49 9633.04,3423.3 9633.27,3423.99 9651.87,3481.03 9652.09,3481.73 9669.99,3539 9670.2,3539.7 9687.39,3597.18 9687.59,3597.88 9704.07,3655.58 9704.26,3656.28 9720.02,3714.18 9720.21,3714.88 9735.25,3772.96 9735.43,3773.67 9749.75,3831.94 9749.92,3832.65 9763.52,3891.08 9763.68,3891.8 9776.56,3950.4 9776.71,3951.11 9788.86,4009.87 9789.01,4010.58 9800.43,4069.48 9800.56,4070.2 9811.26,4129.24 9811.38,4129.96 9821.35,4189.13 9821.46,4189.85 9830.69,4249.14 9830.79,4249.79 9837.65,4297.29 9837.74,4297.94 9845.64,4357.42 9845.74,4358.14 9852.91,4417.71 9852.99,4418.44 9859.43,4478.09 9859.5,4478.82 9865.2,4538.55 9865.26,4539.28 9870.22,4599.07 9870.27,4599.8 9874.49,4659.65 9874.54,4660.38 9878.01,4720.28 9878.05,4721.01 9880.78,4780.95 9880.81,4781.67 9882.81,4841.64 9882.83,4842.37 9884.08,4902.36 9884.09,4903.09 9884.6,4963.09 9884.6,4963.81 9884.38,5022.21 9884.38,5022.92 9883.42,5082.92 9883.41,5083.65 9881.71,5143.62 9881.68,5144.35 9879.25,5204.3 9879.21,5205.03 9876.03,5264.95 9875.99,5265.68 9872.07,5325.55 9872.02,5326.28 9867.36,5386.09 9867.29,5386.82 9861.89,5446.58 9861.82,5447.3 9855.68,5506.99 9855.6,5507.72 9848.73,5567.32 9848.64,5568.04 9841.03,5627.56 9840.93,5628.28 9832.58,5687.7 9832.47,5688.42 9823.39,5747.73 9823.27,5748.45 9813.46,5807.64 9813.33,5808.36 9802.79,5867.43 9802.65,5868.14 9791.38,5927.07 9791.24,5927.79 9779.23,5986.58 9779.08,5987.29 9766.35,6045.93 9766.2,6046.57 9755.5,6093.36 9755.35,6094 9741.31,6152.33 9741.14,6153.04 9726.38,6211.2 9726.2,6211.91 9710.73,6269.88 9710.54,6270.58 9694.35,6328.36 9694.15,6329.06 9677.25,6386.63 9677.03,6387.33 9659.42,6444.68 9659.2,6445.38 9640.88,6502.51 9640.65,6503.21 9621.63,6560.11 9621.39,6560.8 9601.66,6617.46 9601.42,6618.15 9580.99,6674.57 9580.74,6675.25 9559.62,6731.41 9559.36,6732.1 9537.54,6787.99 9537.27,6788.66 9514.76,6844.28 9514.48,6844.96 9491.29,6900.29 9491.03,6900.9 9471.99,6944.96 9471.72,6945.56 9447.31,7000.37 9447,7001.03 9421.91,7055.53 9421.6,7056.19 9395.83,7110.38 9395.51,7111.04 9369.08,7164.9 9368.75,7165.55 9341.65,7219.08 9341.32,7219.73 9313.56,7272.92 9313.22,7273.57 9284.8,7326.41 9284.45,7327.05 9255.39,7379.54 9255.03,7380.18 9225.32,7432.3 9224.95,7432.94 9194.59,7484.69 9194.22,7485.32 9163.23,7536.69 9162.85,7537.32 9131.22,7588.3 9130.83,7588.92 9098.57,7639.51 9098.18,7640.13 9065.3,7690.32 9064.9,7690.93 9031.4,7740.7 9030.99,7741.31 8996.88,7790.67 8996.46,7791.26 8961.74,7840.2 8961.31,7840.8 8925.99,7889.3 8925.56,7889.88 8889.64,7937.94 8889.2,7938.53 8852.69,7986.14 8852.24,7986.71 8815.15,8033.87 8814.69,8034.44 8777.02,8081.14 8776.56,8081.71 8738.31,8127.93 8737.84,8128.49 8699.02,8174.24 8698.54,8174.79 8659.16,8220.06 8658.68,8220.61 8618.74,8265.38 8618.25,8265.93 8577.76,8310.2 8577.26,8310.74 8536.22,8354.51 8535.72,8355.04 8494.15,8398.3 8493.64,8398.83 8451.54,8441.57 8451.02,8442.09 8408.39,8484.31 8407.87,8484.82 8364.72,8526.51 8364.19,8527.02 8320.53,8568.17 8319.99,8568.67 8275.83,8609.28 8275.29,8609.77 8230.62,8649.83 8230.07,8650.32 8184.92,8689.82 8184.36,8690.3 8138.72,8729.24 8138.22,8729.66 8101.36,8760.41 8100.85,8760.83 8054.35,8798.75 8053.78,8799.2 8006.82,8836.54 8006.24,8836.99 7958.82,8873.75 7958.24,8874.2 7910.37,8910.36 7909.78,8910.8 7861.46,8946.37 7860.87,8946.8 7812.12,8981.77 7811.52,8982.2 7762.34,9016.56 7761.74,9016.98 7712.13,9050.73 7711.53,9051.14 7661.51,9084.28 7660.9,9084.67 7610.48,9117.19 7609.86,9117.58 7559.04,9149.48 7558.42,9149.86 7507.21,9181.12 7506.64,9181.46 7465.4,9206.01 7464.83,9206.34 7412.93,9236.46 7412.3,9236.82 7360.04,9266.29 7359.4,9266.64 7306.77,9295.46 7306.13,9295.81 7253.15,9323.98 7252.5,9324.32 7199.18,9351.82 7198.53,9352.15 7144.87,9379 7144.22,9379.32 7090.23,9405.51 7089.57,9405.82 7035.27,9431.33 7034.61,9431.64 6979.99,9456.48 6979.32,9456.78 6924.4,9480.94 6923.73,9481.23 6868.52,9504.71 6867.84,9504.99 6812.34,9527.78 6811.67,9528.06 6755.89,9550.16 6755.21,9550.43 6699.16,9571.84 6698.54,9572.08 6653.52,9588.71 6652.9,9588.93 6596.39,9609.09 6595.7,9609.34 6538.94,9628.8 6538.25,9629.03 6481.26,9647.79 6480.56,9648.01 6423.34,9666.06 6422.65,9666.28 6365.21,9683.62 6364.51,9683.83 6306.86,9700.46 6306.16,9700.66 6248.31,9716.57 6247.6,9716.76 6189.56,9731.96 6188.85,9732.14 6130.63,9746.62 6129.91,9746.8 6071.51,9760.55 6070.81,9760.72 6012.24,9773.75 6011.52,9773.91 5952.8,9786.22 5952.08,9786.36 5893.21,9797.95 5892.5,9798.09 5833.49,9808.94 5832.77,9809.07 5773.63,9819.19 5772.91,9819.31 5713.65,9828.7 5712.93,9828.81 5653.55,9837.47 5652.83,9837.57 5593.36,9845.49 5592.63,9845.58 5533.07,9852.77 5532.34,9852.85 5472.69,9859.3 5471.96,9859.38 5412.23,9865.09 5411.51,9865.15 5351.71,9870.12 5350.98,9870.18 5291.13,9874.41 5290.41,9874.46 5230.51,9877.95 5229.78,9877.99 5169.84,9880.74 5169.11,9880.77 5109.15,9882.78 5108.42,9882.79 5048.43,9884.06 5047.7,9884.07 4987.7,9884.6 4986.97,9884.6 4926.97,9884.38 4926.24,9884.37 4866.25,9883.41 4865.52,9883.4 4805.55,9881.7 4804.81,9881.67 4744.87,9879.23 4744.14,9879.19 4684.22,9876.01 4683.49,9875.96 4623.62,9872.04 4622.89,9871.99 4563.07,9867.32 4562.35,9867.26 4502.59,9861.85 4501.86,9861.78 4442.18,9855.64 4441.45,9855.56 4381.85,9848.68 4381.12,9848.59 4321.61,9840.97 4320.89,9840.87 4261.47,9832.52 4260.75,9832.41 4201.44,9823.33 4200.72,9823.21 4141.53,9813.39 4140.81,9813.27 4081.75,9802.71 4081.03,9802.58 4022.1,9791.3 4021.38,9791.16 3962.6,9779.15 3961.88,9779 3903.25,9766.26 3902.54,9766.1 3844.07,9752.64 3843.36,9752.47 3785.06,9738.29 3784.35,9738.11 3726.23,9723.21 3725.52,9723.02 3667.59,9707.4 3666.89,9707.21 3609.16,9690.87 3608.46,9690.67 3550.93,9673.62 3550.23,9673.41 3492.92,9655.65 3492.22,9655.43 3435.14,9636.96 3434.44,9636.73 3377.59,9617.56 3376.9,9617.32 3320.29,9597.45 3319.6,9597.2 3263.23,9576.63 3262.55,9576.38 3206.45,9555.11 3205.77,9554.85 3149.93,9532.89 3149.32,9532.64 3104.85,9514.58 3104.24,9514.33 3048.9,9491.13 3048.23,9490.85 2993.19,9466.97 2992.52,9466.67 2937.78,9442.11 2937.11,9441.81 2882.68,9416.58 2882.09,9416.3 2838.76,9395.63 2838.17,9395.34 2784.31,9368.9 2783.66,9368.57 2730.13,9341.47 2729.48,9341.14 2676.29,9313.37 2675.64,9313.03 2622.8,9284.61 2622.17,9284.26 2569.68,9255.19 2569.04,9254.83 2516.92,9225.11 2516.29,9224.75 2464.53,9194.39 2463.9,9194.01 2412.53,9163.02 2411.91,9162.63 2360.93,9131 2360.31,9130.61 2309.72,9098.35 2309.11,9097.96 2258.92,9065.08 2258.31,9064.67 2208.54,9031.17 2207.93,9030.76 2158.57,8996.65 2157.98,8996.23 2109.04,8961.5 2108.45,8961.08 2059.95,8925.75 2059.36,8925.32 2011.31,8889.4 2010.72,8888.96 1963.11,8852.44 1962.54,8852 1915.38,8814.9 1914.81,8814.44 1868.12,8776.76 1867.55,8776.3 1821.33,8738.05 1820.77,8737.58 1775.02,8698.75 1774.47,8698.28 1729.21,8658.89 1728.66,8658.41 1683.89,8618.47 1683.35,8617.98 1639.07,8577.48 1638.54,8576.99 1594.77,8535.95 1594.24,8535.45 1550.98,8493.87 1550.5,8493.41 1516.27,8459.76 1515.81,8459.3 1473.48,8416.77 1472.97,8416.25 1431.18,8373.2 1430.67,8372.68 1389.41,8329.11 1388.91,8328.58 1348.2,8284.51 1347.71,8283.97 1307.54,8239.4 1307.05,8238.85 1267.44,8193.79 1266.96,8193.24 1227.91,8147.69 1227.44,8147.13 1188.95,8101.1 1188.53,8100.6 1158.15,8063.43 1157.74,8062.92 1120.29,8016.04 1119.83,8015.47 1082.97,7968.14 1082.52,7967.56 1046.24,7919.77 1045.8,7919.19 1010.11,7870.95 1009.68,7870.36 974.597,7821.69 974.173,7821.1 939.691,7772 939.275,7771.4 905.401,7721.88 904.991,7721.27 871.733,7671.33 871.333,7670.72 838.695,7620.38 838.301,7619.76 806.287,7569.01 805.901,7568.39 774.519,7517.26 774.141,7516.63 743.393,7465.11 743.023,7464.48 712.915,7412.58 712.553,7411.95 683.089,7359.68 682.733,7359.04 653.917,7306.41 653.571,7305.77 625.409,7252.79 625.069,7252.14 597.565,7198.82 597.235,7198.17 570.393,7144.51 570.071,7143.86 543.893,7089.87 543.577,7089.21 518.069,7034.9 517.763,7034.24 492.929,6979.62 492.631,6978.95 468.475,6924.03 468.185,6923.36 444.711,6868.14 444.429,6867.47 421.637,6811.97 421.363,6811.29 399.261,6755.51 398.997,6754.83 377.587,6698.78 377.331,6698.1 356.615,6641.79 356.367,6641.1 336.349,6584.54 336.109,6583.85 316.793,6527.04 316.563,6526.35 297.951,6469.31 297.727,6468.61 279.821,6411.35 279.609,6410.65 262.413,6353.17 262.207,6352.47 245.725,6294.77 245.529,6294.07 229.759,6236.18 229.571,6235.47 214.521,6177.39 214.343,6176.69 200.011,6118.42 199.841,6117.71 186.231,6059.28 186.069,6058.57 173.183,5999.97 173.031,5999.25 160.869,5940.5 160.725,5939.78 149.293,5880.88 149.159,5880.16 138.455,5821.13 138.329,5820.41 128.357,5761.24 128.239,5760.52 118.999,5701.24 118.891,5700.52 110.385,5641.12 110.287,5640.4 102.517,5580.9 102.427,5580.18 95.3929,5520.59 95.3189,5519.94 90.2229,5472.21 90.1569,5471.56 84.4509,5411.83 84.3849,5411.1 79.4169,5351.31 79.3609,5350.58 75.1349,5290.73 75.0889,5290 71.6029,5230.1 71.5649,5229.37 68.8209,5169.44 68.7909,5168.71 66.7869,5108.74 66.7669,5108.01 65.5049,5048.03 65.4949,5047.29 64.9749,4987.3 64.9729,4986.56" style="stroke:rgb(33,1,197);stroke-width:118.110236;fill:none;stroke-opacity:0.5;stroke-linecap:round;stroke-linejoin:round;;fill:none"/>
<polyline points="64.9729,4986.56 65.1969,4926.57 65.2049,4925.84 66.1689,4865.85 66.1849,4865.12 67.8909,4805.14 67.9169,4804.41 70.3669,4744.46 70.4009,4743.73 73.5889,4683.82 73.6309,4683.09 77.5629,4623.21 77.6169,4622.49 82.2869,4562.67 82.3469,4561.94 87.7569,4502.19 87.8269,4501.46 93.9769,4441.78 94.0569,4441.05 100.943,4381.45 101.031,4380.72 108.655,4321.21 108.753,4320.49 117.111,4261.07 117.217,4260.35 126.311,4201.04 126.427,4200.32 136.253,4141.13 136.377,4140.41 146.933,4081.35 147.065,4080.63 158.353,4021.7 158.495,4020.98 170.511,3962.2 170.661,3961.49 183.401,3902.86 183.561,3902.14 197.027,3843.67 197.195,3842.96 211.383,3784.67 211.561,3783.96 226.469,3725.84 226.655,3725.14 242.279,3667.21 242.473,3666.5 258.815,3608.77 259.019,3608.07 276.071,3550.54 276.283,3549.84 294.047,3492.53 294.267,3491.84 312.739,3434.75 312.969,3434.06 332.145,3377.2 332.381,3376.52 352.257,3319.91 352.505,3319.22 373.083,3262.85 373.337,3262.17 394.609,3206.07 394.845,3205.45 412.361,3160.76 412.605,3160.15 435.119,3104.54 435.397,3103.86 458.599,3048.53 458.885,3047.86 482.769,2992.82 483.065,2992.15 507.629,2937.41 507.931,2936.75 533.169,2882.31 533.481,2881.65 559.391,2827.54 559.711,2826.88 586.289,2773.09 586.617,2772.43 613.857,2718.98 614.193,2718.33 642.093,2665.21 642.435,2664.56 670.989,2611.79 671.341,2611.15 700.547,2558.74 700.907,2558.11 730.757,2506.06 731.123,2505.43 761.615,2453.76 761.991,2453.13 793.121,2401.84 793.465,2401.28 818.823,2360.52 819.175,2359.96 851.439,2309.38 851.833,2308.77 884.719,2258.58 885.125,2257.97 918.631,2208.2 919.041,2207.6 953.159,2158.24 953.579,2157.64 988.305,2108.72 988.731,2108.12 1024.06,2059.63 1024.49,2059.04 1060.42,2010.98 1060.86,2010.4 1097.38,1962.79 1097.82,1962.22 1134.93,1915.07 1135.38,1914.49 1173.07,1867.8 1173.53,1867.24 1211.79,1821.02 1212.26,1820.46 1251.08,1774.72 1251.56,1774.16 1290.95,1728.9 1291.43,1728.36 1331.38,1683.59 1331.87,1683.05 1372.36,1638.78 1372.86,1638.24 1413.9,1594.47 1414.41,1593.94 1455.99,1550.69 1456.5,1550.16 1498.61,1507.43 1499.12,1506.91 1541.76,1464.7 1542.28,1464.18 1585.44,1422.5 1585.97,1422 1629.64,1380.85 1630.17,1380.35 1674.34,1339.75 1674.88,1339.26 1719.56,1299.21 1720.1,1298.72 1765.27,1259.22 1765.82,1258.75 1811.47,1219.81 1812.03,1219.34 1858.16,1180.97 1858.72,1180.51 1905.32,1142.71 1905.89,1142.25 1952.96,1105.04 1953.53,1104.59 2001.05,1067.96 2001.63,1067.52 2049.6,1031.48 2050.19,1031.04 2098.6,995.599 2099.19,995.171 2148.04,960.327 2148.63,959.907 2197.91,925.671 2198.51,925.257 2248.2,891.633 2248.81,891.227 2298.91,858.221 2299.53,857.823 2350.04,825.439 2350.65,825.049 2401.56,793.291 2402.18,792.909 2453.48,761.785 2454.1,761.411 2505.78,730.921 2506.41,730.553 2558.46,700.707 2559.1,700.347 2611.51,671.147 2612.15,670.795 2664.92,642.245 2665.56,641.901 2718.68,614.005 2719.33,613.669 2772.8,586.433 2773.45,586.107 2827.24,559.535 2827.9,559.215 2882.02,533.309 2882.61,533.029 2926.13,512.787 2926.73,512.513 2981.42,487.819 2982.08,487.521 3037.07,463.505 3037.74,463.217 3093.01,439.883 3093.69,439.603 3149.25,416.955 3149.93,416.685 3205.77,394.725 3206.45,394.461 3262.55,373.195 3263.23,372.941 3319.6,352.369 3320.29,352.123 3376.9,332.251 3377.59,332.013 3434.44,312.841 3435.14,312.611 3492.22,294.145 3492.92,293.925 3550.23,276.165 3550.93,275.953 3608.46,258.905 3609.16,258.701 3666.89,242.365 3667.59,242.171 3725.52,226.551 3726.23,226.365 3784.35,211.461 3785.06,211.285 3843.36,197.103 3844.07,196.935 3902.54,183.473 3903.25,183.313 3961.88,170.577 3962.53,170.441 4009.54,160.775 4010.19,160.645 4069.09,149.217 4069.73,149.097 4116.95,140.479 4117.6,140.363 4176.74,130.251 4177.46,130.133 4236.72,120.751 4237.45,120.641 4296.82,111.993 4297.54,111.893 4357.02,103.979 4357.74,103.887 4417.31,96.7109 4418.04,96.6289 4477.69,90.1889 4478.42,90.1129 4538.15,84.4129 4538.87,84.3489 4598.67,79.3869 4599.4,79.3309 4659.25,75.1089 4659.98,75.0629 4719.87,71.5829 4720.6,71.5449 4780.54,68.8049 4781.27,68.7749 4841.23,66.7749 4841.97,66.7549 4901.95,65.4989 4902.68,65.4889 4962.68,64.9749 4963.41,64.9729 5023.41,65.2009 5024.14,65.2089 5084.13,66.1769 5084.86,66.1929 5144.84,67.9049 5145.57,67.9309 5205.52,70.3849 5206.24,70.4189 5266.16,73.6129 5266.89,73.6569 5326.76,77.5929 5327.49,77.6449 5387.31,82.3209 5388.03,82.3809 5447.79,87.7949 5448.51,87.8669 5508.2,94.0209 5508.92,94.0989 5568.53,100.991 5569.25,101.081 5628.76,108.709 5629.41,108.795 5676.95,115.427 5677.61,115.521 5736.93,124.473 5737.65,124.587 5796.87,134.271 5797.59,134.393 5856.68,144.809 5857.39,144.941 5916.35,156.087 5917.07,156.227 5975.88,168.103 5976.59,168.251 6035.25,180.851 6035.97,181.009 6094.47,194.335 6095.18,194.503 6153.51,208.551 6154.22,208.725 6212.37,223.493 6213.08,223.679 6271.05,239.167 6271.75,239.359 6329.52,255.561 6330.22,255.763 6387.79,272.679 6388.49,272.889 6445.84,290.515 6446.54,290.735 6503.67,309.071 6504.36,309.297 6561.26,328.337 6561.95,328.573 6618.61,348.315 6619.3,348.559 6675.71,368.999 6676.39,369.253 6732.55,390.391 6733.23,390.653 6789.11,412.483 6789.79,412.753 6845.41,435.275 6846.08,435.553 6901.41,458.759 6902.08,459.045 6957.12,482.933 6957.72,483.199 7001.54,502.799 7002.14,503.071 7056.63,528.179 7057.29,528.489 7111.47,554.269 7112.13,554.587 7165.99,581.037 7166.64,581.363 7220.16,608.475 7220.81,608.809 7274,636.581 7274.64,636.923 7327.48,665.351 7328.12,665.701 7380.6,694.781 7381.24,695.139 7433.36,724.865 7433.99,725.231 7485.73,755.601 7486.36,755.973 7537.73,786.979 7538.35,787.361 7589.33,819.001 7589.95,819.391 7640.53,851.659 7641.15,852.055 7691.33,884.945 7691.94,885.349 7741.71,918.859 7742.31,919.271 7791.66,953.393 7792.26,953.811 7841.19,988.541 7841.78,988.969 7890.27,1024.3 7890.86,1024.73 7938.91,1060.66 7939.49,1061.1 7987.1,1097.62 7987.67,1098.07 8034.82,1135.18 8035.39,1135.63 8082.08,1173.32 8082.65,1173.78 8128.86,1212.05 8129.42,1212.52 8175.16,1251.35 8175.71,1251.82 8220.97,1291.22 8221.52,1291.7 8266.28,1331.65 8266.83,1332.14 8311.09,1372.64 8311.63,1373.14 8355.39,1414.18 8355.92,1414.68 8399.17,1456.27 8399.7,1456.78 8442.43,1498.89 8442.95,1499.41 8485.16,1542.05 8485.67,1542.57 8527.35,1585.73 8527.86,1586.26 8569,1629.93 8569.49,1630.47 8610.09,1674.64 8610.59,1675.19 8650.63,1719.86 8651.12,1720.41 8690.61,1765.58 8691.09,1766.13 8730.02,1811.78 8730.49,1812.34 8768.86,1858.47 8769.32,1859.04 8807.11,1905.64 8807.57,1906.21 8844.78,1953.27 8845.19,1953.79 8874.53,1991.77 8874.93,1992.3 8911.09,2040.18 8911.53,2040.76 8947.09,2089.09 8947.52,2089.68 8982.47,2138.44 8982.9,2139.04 9017.25,2188.23 9017.66,2188.83 9051.41,2238.45 9051.81,2239.05 9084.94,2289.08 9085.34,2289.69 9117.84,2340.12 9118.24,2340.74 9150.12,2391.57 9150.5,2392.19 9181.75,2443.41 9182.12,2444.03 9212.74,2495.64 9213.1,2496.27 9243.08,2548.25 9243.44,2548.88 9272.76,2601.22 9273.12,2601.86 9301.79,2654.57 9302.14,2655.21 9330.16,2708.26 9330.5,2708.91 9357.86,2762.31 9358.19,2762.96 9384.89,2816.69 9385.21,2817.35 9411.25,2871.41 9411.56,2872.06 9436.92,2926.44 9437.23,2927.1 9461.92,2981.79 9462.19,2982.39 9481.45,3026.35 9481.71,3026.95 9505.18,3082.18 9505.46,3082.85 9528.24,3138.36 9528.51,3139.03 9550.6,3194.82 9550.87,3195.5 9572.27,3251.55 9572.53,3252.23 9593.23,3308.55 9593.48,3309.24 9613.49,3365.8 9613.73,3366.49 9633.04,3423.3 9633.27,3423.99 9651.87,3481.03 9652.09,3481.73 9669.99,3539 9670.2,3539.7 9687.39,3597.18 9687.59,3597.88 9704.07,3655.58 9704.26,3656.28 9720.02,3714.18 9720.21,3714.88 9735.25,3772.96 9735.43,3773.67 9749.75,3831.94 9749.92,3832.65 9763.52,3891.08 9763.68,3891.8 9776.56,3950.4 9776.71,3951.11 9788.86,4009.87 9789.01,4010.58 9800.43,4069.48 9800.56,4070.2 9811.26,4129.24 9811.38,4129.96 9821.35,4189.13 9821.46,4189.85 9830.69,4249.14 9830.79,4249.79 9837.65,4297.29 9837.74,4297.94 9845.64,4357.42 9845.74,4358.14 9852.91,4417.71 9852.99,4418.44 9859.43,4478.09 9859.5,4478.82 9865.2,4538.55 9865.26,4539.28 9870.22,4599.07 9870.27,4599.8 9874.49,4659.65 9874.54,4660.38 9878.01,4720.28 9878.05,4721.01 9880.78,4780.95 9880.81,4781.67 9882.81,4841.64 9882.83,4842.37 9884.08,4902.36 9884.09,4903.09 9884.6,4963.09 9884.6,4963.81 9884.38,5022.21 9884.38,5022.92 9883.42,5082.92 9883.41,5083.65 9881.71,5143.62 9881.68,5144.35 9879.25,5204.3 9879.21,5205.03 9876.03,5264.95 9875.99,5265.68 9872.07,5325.55 9872.02,5326.28 9867.36,5386.09 9867.29,5386.82 9861.89,5446.58 9861.82,5447.3 9855.68,5506.99 9855.6,5507.72 9848.73,5567.32 9848.64,5568.04 9841.03,5627.56 9840.93,5628.28 9832.58,5687.7 9832.47,5688.42 9823.39,5747.73 9823.27,5748.45 9813.46,5807.64 9813.33,5808.36 9802.79,5867.43 9802.65,5868.14 9791.38,5927.07 9791.24,5927.79 9779.23,5986.58 9779.08,5987.29 9766.35,6045.93 9766.2,6046.57 9755.5,6093.36 9755.35,6094 9741.31,6152.33 9741.14,6153.04 9726.38,6211.2 9726.2,6211.91 9710.73,6269.88 9710.54,6270.58 9694.35,6328.36 9694.15,6329.06 9677.25,6386.63 9677.03,6387.33 9659.42,6444.68 9659.2,6445.38 9640.88,6502.51 9640.65,6503.21 9621.63,6560.11 9621.39,6560.8 9601.66,6617.46 9601.42,6618.15 9580.99,6674.57 9580.74,6675.25 9559.62,6731.41 9559.36,6732.1 9537.54,6787.99 9537.27,6788.66 9514.76,6844.28 9514.48,6844.96 9491.29,6900.29 9491.03,6900.9 9471.99,6944.96 9471.72,6945.56 9447.31,7000.37 9447,7001.03 9421.91,7055.53 9421.6,7056.19 9395.83,7110.38 9395.51,7111.04 9369.08,7164.9 9368.75,7165.55 9341.65,7219.08 9341.32,7219.73 9313.56,7272.92 9313.22,7273.57 9284.8,7326.41 9284.45,7327.05 9255.39,7379.54 9255.03,7380.18 9225.32,7432.3 9224.95,7432.94 9194.59,7484.69 9194.22,7485.32 9163.23,7536.69 9162.85,7537.32 9131.22,7588.3 9130.83,7588.92 9098.57,7639.51 9098.18,7640.13 9065.3,7690.32 9064.9,7690.93 9031.4,7740.7 9030.99,7741.31 8996.88,7790.67 8996.46,7791.26 8961.74,7840.2 8961.31,7840.8 8925.99,7889.3 8925.56,7889.88 8889.64,7937.94 8889.2,7938.53 8852.69,7986.14 8852.24,7986.71 8815.15,8033.87 8814.69,8034.44 8777.02,8081.14 8776.56,8081.71 8738.31,8127.93 8737.84,8128.49 8699.02,8174.24 8698.54,8174.79 8659.16,8220.06 8658.68,8220.61 8618.74,8265.38 8618.25,8265.93 8577.76,8310.2 8577.26,8310.74 8536.22,8354.51 8535.72,8355.04 8494.15,8398.3 8493.64,8398.83 8451.54,8441.57 8451.02,8442.09 8408.39,8484.31 8407.87,8484.82 8364.72,8526.51 8364.19,8527.02 8320.53,8568.17 8319.99,8568.67 8275.83,8609.28 8275.29,8609.77 8230.62,8649.83 8230.07,8650.32 8184.92,8689.82 8184.36,8690.3 8138.72,8729.24 8138.22,8729.66 8101.36,8760.41 8100.85,8760.83 8054.35,8798.75 8053.78,8799.2 8006.82,8836.54 8006.24,8836.99 7958.82,8873.75 7958.24,8874.2 7910.37,8910.36 7909.78,8910.8 7861.46,8946.37 7860.87,8946.8 7812.12,8981.77 7811.52,8982.2 7762.34,9016.56 7761.74,9016.98 7712.13,9050.73 7711.53,9051.14 7661.51,9084.28 7660.9,9084.67 7610.48,9117.19 7609.86,9117.58 7559.04,9149.48 7558.42,9149.86 7507.21,9181.12 7506.64,9181.46 7465.4,9206.01 7464.83,9206.34 7412.93,9236.46 7412.3,9236.82 7360.04,9266.29 7359.4,9266.64 7306.77,9295.46 7306.13,9295.81 7253.15,9323.98 7252.5,9324.32 7199.18,9351.82 7198.53,9352.15 7144.87,9379 7144.22,9379.32 7090.23,9405.51 7089.57,9405.82 7035.27,9431.33 7034.61,9431.64 6979.99,9456.48 6979.32,9456.78 6924.4,9480.94 6923.73,9481.23 6868.52,9504.71 6867.84,9504.99 6812.34,9527.78 6811.67,9528.06 6755.89,9550.16 6755.21,9550.43 6699.16,9571.84 6698.54,9572.08 6653.52,9588.71 6652.9,9588.93 6596.39,9609.09 6595.7,9609.34 6538.94,9628.8 6538.25,9629.03 6481.26,9647.79 6480.56,9648.01 6423.34,9666.06 6422.65,9666.28 6365.21,9683.62 6364.51,9683.83 6306.86,9700.46 6306.16,9700.66 6248.31,9716.57 6247.6,9716.76 6189.56,9731.96 6188.85,9732.14 6130.63,9746.62 6129.91,9746.8 6071.51,9760.55 6070.81,9760.72 6012.24,9773.75 6011.52,9773.91 5952.8,9786.22 5952.08,9786.36 5893.21,9797.95 5892.5,9798.09 5833.49,9808.94 5832.77,9809.07 5773.63,9819.19 5772.91,9819.31 5713.65,9828.7 5712.93,9828.81 5653.55,9837.47 5652.83,9837.57 5593.36,9845.49 5592.63,9845.58 5533.07,9852.77 5532.34,9852.85 5472.69,9859.3 5471.96,9859.38 5412.23,9865.09 5411.51,9865.15 5351.71,9870.12 5350.98,9870.18 5291.13,9874.41 5290.41,9874.46 5230.51,9877.95 5229.78,9877.99 5169.84,9880.74 5169.11,9880.77 5109.15,9882.78 5108.42,9882.79 5048.43,9884.06 5047.7,9884.07 4987.7,9884.6 4986.97,9884.6 4926.97,9884.38 4926.24,9884.37 4866.25,9883.41 4865.52,9883.4 4805.55,9881.7 4804.81,9881.67 4744.87,9879.23 4744.14,9879.19 4684.22,9876.01 4683.49,9875.96 4623.62,9872.04 4622.89,9871.99 4563.07,9867.32 4562.35,9867.26 4502.59,9861.85 4501.86,9861.78 4442.18,9855.64 4441.45,9855.56 4381.85,9848.68 4381.12,9848.59 4321.61,9840.97 4320.89,9840.87 4261.47,9832.52 4260.75,9832.41 4201.44,9823.33 4200.72,9823.21 4141.53,9813.39 4140.81,9813.27 4081.75,9802.71 4081.03,9802.58 4022.1,9791.3 4021.38,9791.16 3962.6,9779.15 3961.88,9779 3903.25,9766.26 3902.54,9766.1 3844.07,9752.64 3843.36,9752.47 3785.06,9738.29 3784.35,9738.11 3726.23,9723.21 3725.52,9723.02 3667.59,9707.4 3666.89,9707.21 3609.16,9690.87 3608.46,9690.67 3550.93,9673.62 3550.23,9673.41 3492.92,9655.65 3492.22,9655.43 3435.14,9636.96 3434.44,9636.73 3377.59,9617.56 3376.9,9617.32 3320.29,9597.45 3319.6,9597.2 3263.23,9576.63 3262.55,9576.38 3206.45,9555.11 3205.77,9554.85 3149.93,9532.89 3149.32,9532.64 3104.85,9514.58 3104.24,9514.33 3048.9,9491.13 3048.23,9490.85 2993.19,9466.97 2992.52,9466.67 2937.78,9442.11 2937.11,9441.81 2882.68,9416.58 2882.09,9416.3 2838.76,9395.63 2838.17,9395.34 2784.31,9368.9 2783.66,9368.57 2730.13,9341.47 2729.48,9341.14 2676.29,9313.37 2675.64,9313.03 2622.8,9284.61 2622.17,9284.26 2569.68,9255.19 2569.04,9254.83 2516.92,9225.11 2516.29,9224.75 2464.53,9194.39 2463.9,9194.01 2412.53,9163.02 2411.91,9162.63 2360.93,9131 2360.31,9130.61 2309.72,9098.35 2309.11,9097.96 2258.92,9065.08 2258.31,9064.67 2208.54,9031.17 2207.93,9030.76 2158.57,8996.65 2157.98,8996.23 2109.04,8961.5 2108.45,8961.08 2059.95,8925.75 2059.36,8925.32 2011.31,8889.4 2010.72,8888.96 1963.11,8852.44 1962.54,8852 1915.38,8814.9 1914.81,8814.44 1868.12,8776.76 1867.55,8776.3 1821.33,8738.05 1820.77,8737.58 1775.02,8698.75 1774.47,8698.28 1729.21,8658.89 1728.66,8658.41 1683.89,8618.47 1683.35,8617.98 1639.07,8577.48 1638.54,8576.99 1594.77,8535.95 1594.24,8535.45 1550.98,8493.87 1550.5,8493.41 1516.27,8459.76 1515.81,8459.3 1473.48,8416.77 1472.97,8416.25 1431.18,8373.2 1430.67,8372.68 1389.41,8329.11 1388.91,8328.58 1348.2,8284.51 1347.71,8283.97 1307.54,8239.4 1307.05,8238.85 1267.44,8193.79 1266.96,8193.24 1227.91,8147.69 1227.44,8147.13 1188.95,8101.1 1188.53,8100.6 1158.15,8063.43 1157.74,8062.92 1120.29,8016.04 1119.83,8015.47 1082.97,7968.14 1082.52,7967.56 1046.24,7919.77 1045.8,7919.19 1010.11,7870.95 1009.68,7870.36 974.597,7821.69 974.173,7821.1 939.691,7772 939.275,7771.4 905.401,7721.88 904.991,7721.27 871.733,7671.33 871.333,7670.72 838.695,7620.38 838.301,7619.76 806.287,7569.01 805.901,7568.39 774.519,7517.26 774.141,7516.63 743.393,7465.11 743.023,7464.48 712.915,7412.58 712.553,7411.95 683.089,7359.68 682.733,7359.04 653.917,7306.41 653.571,7305.77 625.409,7252.79 625.069,7252.14 597.565,7198.82 597.235,7198.17 570.393,7144.51 570.071,7143.86 543.893,7089.87 543.577,7089.21 518.069,7034.9 517.763,7034.24 492.929,6979.62 492.631,6978.95 468.475,6924.03 468.185,6923.36 444.711,6868.14 444.429,6867.47 421.637,6811.97 421.363,6811.29 399.261,6755.51 398.997,6754.83 377.587,6698.78 377.331,6698.1 356.615,6641.79 356.367,6641.1 336.349,6584.54 336.109,6583.85 316.793,6527.04 316.563,6526.35 297.951,6469.31 297.727,6468.61 279.821,6411.35 279.609,6410.65 262.413,6353.17 262.207,6352.47 245.725,6294.77 245.529,6294.07 229.759,6236.18 229.571,6235.47 214.521,6177.39 214.343,6176.69 200.011,6118.42 199.841,6117.71 186.231,6059.28 186.069,6058.57 173.183,5999.97 173.031,5999.25 160.869,5940.5 160.725,5939.78 149.293,5880.88 149.159,5880.16 138.455,5821.13 138.329,5820.41 128.357,5761.24 128.239,5760.52 118.999,5701.24 118.891,5700.52 110.385,5641.12 110.287,5640.4 102.517,5580.9 102.427,5580.18 95.3929,5520.59 95.3189,5519.94 90.2229,5472.21 90.1569,5471.56 84.4509,5411.83 84.3849,5411.1 79.4169,5351.31 79.3609,5350.58 75.1349,5290.73 75.0889,5290 71.6029,5230.1 71.5649,5229.37 68.8209,5169.44 68.7909,5168.71 66.7869,5108.74 66.7669,5108.01 65.5049,5048.03 65.4949,5047.29 64.9749,4987.3 64.9729,4986.56" style="stroke:rgb(0,0,0);stroke-width:1px;fill:none;stroke-opacity:1;stroke-linecap:round;stroke-linejoin:round;;fill:none"/>
<polyline points="2653.5,4874.79 2654.26,4816.35 2656.57,4757.95 2660.42,4699.55 2664.58,4653.14 2671.19,4594.99 2679.31,4537.12 2688.97,4479.4 2697.74,4433.63 2710.14,4376.36 2721.07,4331.06 2736.16,4274.43 2749.25,4229.63 2763.27,4185.11 2782.18,4129.72 2802.5,4074.93 2824.29,4020.61 2842.66,3977.79 2867,3924.57 2892.69,3872.07 2919.79,3820.21 2942.35,3779.43 2971.87,3728.9 3002.68,3679.23 3034.82,3630.33 3061.33,3592.01 3095.76,3544.68 3131.41,3498.27 3160.72,3461.95 3190.79,3426.24 3229.53,3382.38 3269.36,3339.61 3310.36,3297.85 3343.79,3265.38 3386.72,3225.61 3430.62,3187.03 3475.58,3149.57 3512.08,3120.6 3558.76,3085.31 3606.36,3051.26 3644.89,3025.06 3694.05,2993.3 3744.02,2962.85 3784.38,2939.55 3835.74,2911.49 3887.75,2884.84 3940.51,2859.53 3983,2840.37 4036.9,2817.58 4091.31,2796.25 4146.34,2776.33 4190.52,2761.51 4246.43,2744.22 4302.77,2728.41 4347.92,2716.88 4405.03,2703.73 4450.68,2694.36 4508.26,2683.94 4566.11,2675.05 4612.32,2669.06 4670.59,2662.9 4717.04,2659.1 4775.46,2655.72 4833.95,2653.87 4880.63,2653.5 4927.3,2654.12 4985.86,2656.27 5032.38,2659.09 5090.69,2664.01 5148.86,2670.47 5195.04,2676.7 5252.83,2685.9 5310.29,2696.61 5367.52,2708.83 5412.85,2719.65 5469.43,2734.57 5525.61,2750.98 5570.02,2765.1 5625.35,2784.14 5680.17,2804.64 5723.49,2822.02 5766.43,2840.31 5819.72,2864.5 5872.35,2890.09 5913.76,2911.46 5965.19,2939.55 6005.55,2962.85 6055.52,2993.3 6104.61,3025.01 6152.85,3058.01 6200.27,3092.31 6237.37,3120.5 6283.11,3157.01 6327.88,3194.7 6362.8,3225.56 6405.73,3265.33 6447.54,3306.16 6488.32,3348.14 6519.99,3382.32 6558.79,3426.24 6588.85,3461.95 6618.16,3498.27 6653.82,3544.68 6688.19,3591.94 6721.32,3640.1 6753.2,3689.17 6777.66,3728.83 6807.19,3779.36 6835.37,3830.64 6856.85,3872 6882.58,3924.57 6906.88,3977.72 6929.81,4031.56 6947.04,4074.85 6967.4,4129.72 6986.3,4185.11 7000.3,4229.56 7016.56,4285.77 7031.33,4342.4 7042.03,4387.75 7054.12,4445.09 7062.65,4490.9 7072.02,4548.75 7078.38,4594.92 7084.99,4653.14 7089.16,4699.55 7093,4757.95 7095.31,4816.35 7096.08,4874.79 7095.31,4933.23 7093,4991.62 7089.16,5050.02 7084.99,5096.43 7078.39,5154.58 7070.26,5212.45 7060.6,5270.18 7051.83,5315.94 7039.44,5373.21 7028.5,5418.51 7013.41,5475.14 7000.32,5519.94 6986.3,5564.46 6967.4,5619.85 6947.07,5674.64 6925.28,5728.96 6906.91,5771.79 6882.58,5825.01 6856.88,5877.5 6829.78,5929.37 6807.23,5970.15 6777.7,6020.67 6746.9,6070.34 6714.75,6119.24 6688.24,6157.57 6653.82,6204.89 6618.16,6251.3 6588.85,6287.63 6558.79,6323.33 6520.04,6367.19 6480.21,6409.96 6439.21,6451.72 6405.78,6484.19 6362.86,6523.96 6318.95,6562.54 6273.99,6600 6237.49,6628.97 6190.81,6664.26 6143.21,6698.31 6104.68,6724.52 6055.52,6756.27 6005.55,6786.73 5965.19,6810.03 5913.83,6838.08 5861.82,6864.73 5809.06,6890.05 5766.58,6909.2 5712.67,6931.99 5658.26,6953.32 5603.23,6973.24 5559.05,6988.06 5503.14,7005.35 5446.8,7021.16 5401.65,7032.69 5344.54,7045.84 5298.9,7055.21 5241.31,7065.63 5183.47,7074.53 5137.25,7080.52 5078.98,7086.67 5032.53,7090.47 4974.11,7093.86 4915.62,7095.7 4868.94,7096.07 4822.27,7095.46 4763.71,7093.3 4717.19,7090.48 4658.88,7085.56 4600.71,7079.11 4554.53,7072.87 4496.74,7063.67 4439.28,7052.97 4382.05,7040.74 4336.73,7029.93 4280.14,7015 4223.96,6998.6 4179.56,6984.48 4124.22,6965.43 4069.41,6944.93 4026.08,6927.55 3983.14,6909.26 3929.85,6885.07 3877.22,6859.48 3835.81,6838.12 3784.38,6810.03 3744.02,6786.73 3694.05,6756.27 3644.96,6724.56 3596.72,6691.56 3549.3,6657.27 3512.2,6629.07 3466.46,6592.56 3421.7,6554.87 3386.77,6524.02 3343.84,6484.24 3302.03,6443.41 3261.25,6401.43 3229.58,6367.25 3190.79,6323.33 3160.72,6287.63 3131.41,6251.3 3095.76,6204.89 3061.38,6157.63 3028.26,6109.48 2996.37,6060.4 2971.91,6020.74 2942.38,5970.21 2914.2,5918.93 2892.73,5877.57 2867,5825.01 2842.69,5771.86 2819.77,5718.01 2802.53,5674.72 2782.18,5619.85 2763.27,5564.46 2749.27,5520.02 2733.01,5463.8 2718.24,5407.17 2707.54,5361.82 2695.45,5304.48 2686.92,5258.67 2677.55,5200.82 2671.2,5154.66 2664.58,5096.43 2660.42,5050.02 2656.57,4991.62 2654.26,4933.23 2653.5,4874.79" style="stroke:rgb(33,1,197);stroke-width:118.110236;fill:none;stroke-opacity:0.5;stroke-linecap:round;stroke-linejoin:round;;fill:none"/>
<polyline points="2653.5,4874.79 2654.26,4816.35 2656.57,4757.95 2660.42,4699.55 2664.58,4653.14 2671.19,4594.99 2679.31,4537.12 2688.97,4479.4 2697.74,4433.63 2710.14,4376.36 2721.07,4331.06 2736.16,4274.43 2749.25,4229.63 2763.27,4185.11 2782.18,4129.72 2802.5,4074.93 2824.29,4020.61 2842.66,3977.79 2867,3924.57 2892.69,3872.07 2919.79,3820.21 2942.35,3779.43 2971.87,3728.9 3002.68,3679.23 3034.82,3630.33 3061.33,3592.01 3095.76,3544.68 3131.41,3498.27 3160.72,3461.95 3190.79,3426.24 3229.53,3382.38 3269.36,3339.61 3310.36,3297.85 3343.79,3265.38 3386.72,3225.61 3430.62,3187.03 3475.58,3149.57 3512.08,3120.6 3558.76,3085.31 3606.36,3051.26 3644.89,3025.06 3694.05,2993.3 3744.02,2962.85 3784.38,2939.55 3835.74,2911.49 3887.75,2884.84 3940.51,2859.53 3983,2840.37 4036.9,2817.58 4091.31,2796.25 4146.34,2776.33 4190.52,2761.51 4246.43,2744.22 4302.77,2728.41 4347.92,2716.88 4405.03,2703.73 4450.68,2694.36 4508.26,2683.94 4566.11,2675.05 4612.32,2669.06 4670.59,2662.9 4717.04,2659.1 4775.46,2655.72 4833.95,2653.87 4880.63,2653.5 4927.3,2654.12 4985.86,2656.27 5032.38,2659.09 5090.69,2664.01 5148.86,2670.47 5195.04,2676.7 5252.83,2685.9 5310.29,2696.61 5367.52,2708.83 5412.85,2719.65 5469.43,2734.57 5525.61,2750.98 5570.02,2765.1 5625.35,2784.14 5680.17,2804.64 5723.49,2822.02 5766.43,2840.31 5819.72,2864.5 5872.35,2890.09 5913.76,2911.46 5965.19,2939.55 6005.55,2962.85 6055.52,2993.3 6104.61,3025.01 6152.85,3058.01 6200.27,3092.31 6237.37,3120.5 6283.11,3157.01 6327.88,3194.7 6362.8,3225.56 6405.73,3265.33 6447.54,3306.16 6488.32,3348.14 6519.99,3382.32 6558.79,3426.24 6588.85,3461.95 6618.16,3498.27 6653.82,3544.68 6688.19,3591.94 6721.32,3640.1 6753.2,3689.17 6777.66,3728.83 6807.19,3779.36 6835.37,3830.64 6856.85,3872 6882.58,3924.57 6906.88,3977.72 6929.81,4031.56 6947.04,4074.85 6967.4,4129.72 6986.3,4185.11 7000.3,4229.56 7016.56,4285.77 7031.33,4342.4 7042.03,4387.75 7054.12,4445.09 7062.65,4490.9 7072.02,4548.75 7078.38,4594.92 7084.99,4653.14 7089.16,4699.55 7093,4757.95 7095.31,4816.35 7096.08,4874.79 7095.31,4933.23 7093,4991.62 7089.16,5050.02 7084.99,5096.43 7078.39,5154.58 7070.26,5212.45 7060.6,5270.18 7051.83,5315.94 7039.44,5373.21 7028.5,5418.51 7013.41,5475.14 7000.32,5519.94 6986.3,5564.46 6967.4,5619.85 6947.07,5674.64 6925.28,5728.96 6906.91,5771.79 6882.58,5825.01 6856.88,5877.5 6829.78,5929.37 6807.23,5970.15 6777.7,6020.67 6746.9,6070.34 6714.75,6119.24 6688.24,6157.57 6653.82,6204.89 6618.16,6251.3 6588.85,6287.63 6558.79,6323.33 6520.04,6367.19 6480.21,6409.96 6439.21,6451.72 6405.78,6484.19 6362.86,6523.96 6318.95,6562.54 6273.99,6600 6237.49,6628.97 6190.81,6664.26 6143.21,6698.31 6104.68,6724.52 6055.52,6756.27 6005.55,6786.73 5965.19,6810.03 5913.83,6838.08 5861.82,6864.73 5809.06,6890.05 5766.58,6909.2 5712.67,6931.99 5658.26,6953.32 5603.23,6973.24 5559.05,6988.06 5503.14,7005.35 5446.8,7021.16 5401.65,7032.69 5344.54,7045.84 5298.9,7055.21 5241.31,7065.63 5183.47,7074.53 5137.25,7080.52 5078.98,7086.67 5032.53,7090.47 4974.11,7093.86 4915.62,7095.7 4868.94,7096.07 4822.27,7095.46 4763.71,7093.3 4717.19,7090.48 4658.88,7085.56 4600.71,7079.11 4554.53,7072.87 4496.74,7063.67 4439.28,7052.97 4382.05,7040.74 4336.73,7029.93 4280.14,7015 4223.96,6998.6 4179.56,6984.48 4124.22,6965.43 4069.41,6944.93 4026.08,6927.55 3983.14,6909.26 3929.85,6885.07 3877.22,6859.48 3835.81,6838.12 3784.38,6810.03 3744.02,6786.73 3694.05,6756.27 3644.96,6724.56 3596.72,6691.56 3549.3,6657.27 3512.2,6629.07 3466.46,6592.56 3421.7,6554.87 3386.77,6524.02 3343.84,6484.24 3302.03,6443.41 3261.25,6401.43 3229.58,6367.25 3190.79,6323.33 3160.72,6287.63 3131.41,6251.3 3095.76,6204.89 3061.38,6157.63 3028.26,6109.48 2996.37,6060.4 2971.91,6020.74 2942.38,5970.21 2914.2,5918.93 2892.73,5877.57 2867,5825.01 2842.69,5771.86 2819.77,5718.01 2802.53,5674.72 2782.18,5619.85 2763.27,5564.46 2749.27,5520.02 2733.01,5463.8 2718.24,5407.17 2707.54,5361.82 2695.45,5304.48 2686.92,5258.67 2677.55,5200.82 2671.2,5154.66 2664.58,5096.43 2660.42,5050.02 2656.57,4991.62 2654.26,4933.23 2653.5,4874.79" style="stroke:rgb(0,0,0);stroke-width:1px;fill:none;stroke-opacity:1;stroke-linecap:round;stroke-linejoin:round;;fill:none"/>
</svg>
