<?xml version="1.0" standalone="no"?>
<!DOCTYPE svg PUBLIC "-//W3C//DTD SVG 1.1//EN"
"http://www.w3.org/Graphics/SVG/1.1/DTD/svg11.dtd">
<!-- original:
<svg width="1004.64" height="1004.64" viewBox="0 0 20930 20930" version="1.1"
-->
<svg width="1004.64" height="1004.64" viewBox="0 0 20930 20930" version="1.1"
xmlns="http://www.w3.org/2000/svg"
xmlns:xlink="http://www.w3.org/1999/xlink">
<polyline points="12204.9,10509 12215.8,10529.3 12220.8,10537.8 12235.9,10561.8 12241.5,10569.8 12257.5,10591.4 12263.5,10598.9 12280.6,10618.6 12287.1,10625.7 12305.4,10643.9 12312.5,10650.4 12332.2,10667.4 12339.8,10673.4 12361.5,10689.5 12369.6,10695 12393.5,10710.1 12402.1,10715 12421,10725" style="stroke:rgb(255,0,0);stroke-width:400.000000;fill:none;stroke-opacity:0.5;stroke-linecap:round;stroke-linejoin:round;;fill:none"/>
<polyline points="12204.9,10509 12215.8,10529.3 12220.8,10537.8 12235.9,10561.8 12241.5,10569.8 12257.5,10591.4 12263.5,10598.9 12280.6,10618.6 12287.1,10625.7 12305.4,10643.9 12312.5,10650.4 12332.2,10667.4 12339.8,10673.4 12361.5,10689.5 12369.6,10695 12393.5,10710.1 12402.1,10715 12421,10725" style="stroke:rgb(0,0,0);stroke-width:1px;fill:none;stroke-opacity:1;stroke-linecap:round;stroke-linejoin:round;;fill:none"/>
<polyline points="12204.4,10508 12215.8,10529.3 12220.8,10537.8 12235.9,10561.8 12241.5,10569.8 12257.5,10591.4 12263.5,10598.9 12280.6,10618.6 12287.1,10625.7 12305.4,10643.9 12312.5,10650.4 12332.2,10667.4 12339.8,10673.4 12361.5,10689.5 12369.6,10695 12393.5,10710.1 12402.1,10715 12422.2,10725.7" style="stroke:rgb(255,0,0);stroke-width:400.000000;fill:none;stroke-opacity:0.5;stroke-linecap:round;stroke-linejoin:round;;fill:none"/>
<polyline points="12204.4,10508 12215.8,10529.3 12220.8,10537.8 12235.9,10561.8 12241.5,10569.8 12257.5,10591.4 12263.5,10598.9 12280.6,10618.6 12287.1,10625.7 12305.4,10643.9 12312.5,10650.4 12332.2,10667.4 12339.8,10673.4 12361.5,10689.5 12369.6,10695 12393.5,10710.1 12402.1,10715 12422.2,10725.7" style="stroke:rgb(0,0,0);stroke-width:1px;fill:none;stroke-opacity:1;stroke-linecap:round;stroke-linejoin:round;;fill:none"/>
<polyline points="19633.2,8334.71 19439.3,8289.94 18757.1,8132.45 18642.9,8106.09 18642.1,8109.32 18640.4,8115.09 18638.9,8120.09 18638.6,8121.22 18636.1,8128.41 18634.6,8132.12 18632.8,8136.61 18632.2,8138.03 18629.5,8144.09 18627.2,8148.48 18625.7,8151.37 18624.2,8154.12 18621.4,8159.07 18618.2,8164.04 18616.6,8166.44 18614.6,8169.35 18611.6,8173.63 18607.7,8178.63 18606.2,8180.57 18603.7,8183.57 18600.9,8186.82 18595.9,8192.13 18595.2,8192.78 18591.3,8196.64 18588.9,8198.95 18582.7,8204.41 18582.3,8204.72 18577.7,8208.44 18575.5,8210.21 18568.4,8215.3 18568.3,8215.38 18563.1,8218.82 18561.6,8219.83 18553.9,8224.36 18553.1,8224.75 18547.5,8227.75 18546.6,8228.19 18539.2,8231.7 18537,8232.63 18531.1,8235.08 18522.8,8238.07 18520.1,8238.91 18514.5,8240.63 18514,8240.75 18505.9,8242.84 18502.8,8243.48 18497.9,8244.47 18496.5,8244.71 18489.8,8245.8 18485,8246.33 18480.9,8246.75 18478.6,8246.93 18472.8,8247.32 18467.1,8247.42 18464,8247.44 18460.7,8247.38 18455.2,8247.22 18449.1,8246.75 18447.1,8246.57 18442.7,8246.07 18438.3,8245.51 18431.3,8244.3 18427.2,8243.53 18425,8243.13 18423.9,8242.93 18397.5,8357.15 18240.1,9039.32 18195.3,9233.17" style="stroke:rgb(255,0,0);stroke-width:400.000000;fill:none;stroke-opacity:0.5;stroke-linecap:round;stroke-linejoin:round;;fill:none"/>
<polyline points="19633.2,8334.71 19439.3,8289.94 18757.1,8132.45 18642.9,8106.09 18642.1,8109.32 18640.4,8115.09 18638.9,8120.09 18638.6,8121.22 18636.1,8128.41 18634.6,8132.12 18632.8,8136.61 18632.2,8138.03 18629.5,8144.09 18627.2,8148.48 18625.7,8151.37 18624.2,8154.12 18621.4,8159.07 18618.2,8164.04 18616.6,8166.44 18614.6,8169.35 18611.6,8173.63 18607.7,8178.63 18606.2,8180.57 18603.7,8183.57 18600.9,8186.82 18595.9,8192.13 18595.2,8192.78 18591.3,8196.64 18588.9,8198.95 18582.7,8204.41 18582.3,8204.72 18577.7,8208.44 18575.5,8210.21 18568.4,8215.3 18568.3,8215.38 18563.1,8218.82 18561.6,8219.83 18553.9,8224.36 18553.1,8224.75 18547.5,8227.75 18546.6,8228.19 18539.2,8231.7 18537,8232.63 18531.1,8235.08 18522.8,8238.07 18520.1,8238.91 18514.5,8240.63 18514,8240.75 18505.9,8242.84 18502.8,8243.48 18497.9,8244.47 18496.5,8244.71 18489.8,8245.8 18485,8246.33 18480.9,8246.75 18478.6,8246.93 18472.8,8247.32 18467.1,8247.42 18464,8247.44 18460.7,8247.38 18455.2,8247.22 18449.1,8246.75 18447.1,8246.57 18442.7,8246.07 18438.3,8245.51 18431.3,8244.3 18427.2,8243.53 18425,8243.13 18423.9,8242.93 18397.5,8357.15 18240.1,9039.32 18195.3,9233.17" style="stroke:rgb(0,0,0);stroke-width:1px;fill:none;stroke-opacity:1;stroke-linecap:round;stroke-linejoin:round;;fill:none"/>
<polyline points="17296.8,7795.3 17490.7,7840.06 18172.9,7997.55 18287.1,8023.92 18286.7,8026.12 18286.5,8027.21 18285.5,8032.42 18284.5,8038.26 18283.8,8043.87 18283.4,8047.07 18283.2,8050.24 18282.8,8055.15 18282.6,8061.8 18282.6,8063.98 18282.6,8068.2 18282.7,8072.83 18283.1,8079.76 18283.2,8080.92 18283.8,8086.13 18284.2,8089.78 18285.5,8097.59 18285.5,8097.88 18286.7,8103.86 18287.2,8105.9 18289.4,8114.41 18289.4,8114.46 18291,8119.77 18291.9,8122.84 18294.5,8130.01 18294.9,8131.06 18296.9,8135.95 18298.3,8139.23 18301.7,8146.47 18301.8,8146.63 18304.7,8152.15 18305.6,8153.89 18310.2,8161.55 18310.6,8162.14 18314.1,8167.5 18314.6,8168.34 18319.8,8175.51 18320.9,8176.89 18324.9,8181.89 18325.3,8182.34 18331.1,8188.92 18332.6,8190.5 18337.1,8195.08 18337.2,8195.24 18343.2,8200.87 18345.6,8202.92 18349.4,8206.18 18350.5,8207.04 18356.4,8211.63 18359.7,8214 18363.6,8216.65 18365,8217.61 18370.9,8221.37 18374.9,8223.62 18378.6,8225.71 18380.5,8226.7 18385.9,8229.46 18390.9,8231.73 18393.4,8232.81 18396.8,8234.22 18401.6,8236.11 18407.7,8238.22 18409.9,8238.93 18413.9,8240.12 18420.7,8242.07 18423.9,8242.93 18397.5,8357.15 18240.1,9039.32 18195.3,9233.17" style="stroke:rgb(255,0,0);stroke-width:400.000000;fill:none;stroke-opacity:0.5;stroke-linecap:round;stroke-linejoin:round;;fill:none"/>
<polyline points="17296.8,7795.3 17490.7,7840.06 18172.9,7997.55 18287.1,8023.92 18286.7,8026.12 18286.5,8027.21 18285.5,8032.42 18284.5,8038.26 18283.8,8043.87 18283.4,8047.07 18283.2,8050.24 18282.8,8055.15 18282.6,8061.8 18282.6,8063.98 18282.6,8068.2 18282.7,8072.83 18283.1,8079.76 18283.2,8080.92 18283.8,8086.13 18284.2,8089.78 18285.5,8097.59 18285.5,8097.88 18286.7,8103.86 18287.2,8105.9 18289.4,8114.41 18289.4,8114.46 18291,8119.77 18291.9,8122.84 18294.5,8130.01 18294.9,8131.06 18296.9,8135.95 18298.3,8139.23 18301.7,8146.47 18301.8,8146.63 18304.7,8152.15 18305.6,8153.89 18310.2,8161.55 18310.6,8162.14 18314.1,8167.5 18314.6,8168.34 18319.8,8175.51 18320.9,8176.89 18324.9,8181.89 18325.3,8182.34 18331.1,8188.92 18332.6,8190.5 18337.1,8195.08 18337.2,8195.24 18343.2,8200.87 18345.6,8202.92 18349.4,8206.18 18350.5,8207.04 18356.4,8211.63 18359.7,8214 18363.6,8216.65 18365,8217.61 18370.9,8221.37 18374.9,8223.62 18378.6,8225.71 18380.5,8226.7 18385.9,8229.46 18390.9,8231.73 18393.4,8232.81 18396.8,8234.22 18401.6,8236.11 18407.7,8238.22 18409.9,8238.93 18413.9,8240.12 18420.7,8242.07 18423.9,8242.93 18397.5,8357.15 18240.1,9039.32 18195.3,9233.17" style="stroke:rgb(0,0,0);stroke-width:1px;fill:none;stroke-opacity:1;stroke-linecap:round;stroke-linejoin:round;;fill:none"/>
<polyline points="18282.6,8063.98 18282.6,8068.2 18282.7,8072.83 18283.1,8079.76 18283.2,8080.92 18283.8,8086.13 18284.2,8089.78 18285.5,8097.59 18285.5,8097.88 18286.7,8103.86 18287.2,8105.9 18289.4,8114.41 18289.4,8114.46 18291,8119.77 18291.9,8122.84 18294.5,8130.01 18294.9,8131.06 18296.9,8135.95 18298.3,8139.23 18301.7,8146.47 18301.8,8146.63 18304.7,8152.15 18305.6,8153.89 18310.2,8161.55 18310.6,8162.14 18314.1,8167.5 18314.6,8168.34 18319.8,8175.51 18320.9,8176.89 18324.9,8181.89 18325.3,8182.34 18331.1,8188.92 18332.6,8190.5 18337.1,8195.08 18337.2,8195.24 18343.2,8200.87 18345.6,8202.92 18349.4,8206.18 18350.5,8207.04 18356.4,8211.63 18359.7,8214 18363.6,8216.65 18365,8217.61 18370.9,8221.37 18374.9,8223.62 18378.6,8225.71 18380.5,8226.7 18385.9,8229.46 18390.9,8231.73 18393.4,8232.81 18396.8,8234.22 18401.6,8236.11 18407.7,8238.22 18409.9,8238.93 18413.9,8240.12 18420.7,8242.07 18423.9,8242.93 18425,8243.13 18427.2,8243.53 18431.3,8244.3 18438.3,8245.51 18442.7,8246.07 18447.1,8246.57 18449.1,8246.75 18455.2,8247.22 18460.7,8247.38 18464,8247.44 18467.1,8247.42 18472.8,8247.32 18478.6,8246.93 18480.9,8246.75 18485,8246.33 18489.8,8245.8 18496.5,8244.71 18497.9,8244.47 18502.8,8243.48 18505.9,8242.84 18514,8240.75 18514.5,8240.63 18520.1,8238.91 18522.8,8238.07 18531.1,8235.08 18537,8232.63 18539.2,8231.7 18546.6,8228.19 18547.5,8227.75 18553.1,8224.75 18553.9,8224.36 18561.6,8219.83 18563.1,8218.82 18568.3,8215.38 18568.4,8215.3 18575.5,8210.21 18577.7,8208.44 18582.3,8204.72 18582.7,8204.41 18588.9,8198.95 18591.3,8196.64 18595.2,8192.78 18595.9,8192.13 18600.9,8186.82 18603.7,8183.57 18606.2,8180.57 18607.7,8178.63 18611.6,8173.63 18614.6,8169.35 18616.6,8166.44 18618.2,8164.04 18621.4,8159.07 18624.2,8154.12 18625.7,8151.37 18627.2,8148.48 18629.5,8144.09 18632.2,8138.03 18632.8,8136.61 18634.6,8132.12 18636.1,8128.41 18638.6,8121.22 18638.9,8120.09 18640.4,8115.09 18642.1,8109.32 18642.9,8106.09 18643.3,8103.88 18643.5,8102.79 18644.5,8097.58 18645.5,8091.74 18646.2,8086.13 18646.6,8082.93 18646.8,8079.76 18647.2,8074.85 18647.4,8068.2 18647.4,8066.02 18647.4,8061.8 18647.3,8057.17 18646.8,8050.24 18646.8,8049.08 18646.2,8043.87 18645.8,8040.22 18644.5,8032.42 18644.5,8032.13 18643.3,8026.14 18642.8,8024.1 18640.6,8015.59 18640.6,8015.55 18639,8010.23 18638.1,8007.17 18635.5,7999.99 18635.1,7998.94 18633.1,7994.06 18631.7,7990.78 18628.3,7983.53 18628.2,7983.38 18625.3,7977.86 18624.4,7976.12 18619.8,7968.45 18619.4,7967.86 18615.9,7962.5 18615.4,7961.67 18610.2,7954.5 18609.1,7953.11 18605.1,7948.12 18604.7,7947.66 18598.9,7941.09 18597.4,7939.5 18592.9,7934.92 18592.8,7934.76 18586.8,7929.13 18584.4,7927.08 18580.6,7923.83 18579.5,7922.97 18573.6,7918.38 18570.3,7916 18566.4,7913.36 18565,7912.39 18559.1,7908.63 18555.1,7906.38 18551.4,7904.29 18549.5,7903.3 18544.1,7900.55 18539.1,7898.27 18536.6,7897.2 18533.2,7895.78 18528.4,7893.89 18522.3,7891.78 18520.1,7891.07 18516.1,7889.88 18509.3,7887.94 18506.1,7887.07 18505,7886.88 18502.8,7886.47 18498.7,7885.7 18491.7,7884.49 18487.3,7883.93 18482.9,7883.44 18480.9,7883.25 18474.8,7882.78 18469.3,7882.62 18466,7882.56 18462.9,7882.58 18457.2,7882.69 18451.4,7883.07 18449.1,7883.25 18445,7883.67 18440.2,7884.21 18433.5,7885.29 18432.1,7885.54 18427.2,7886.52 18424.1,7887.17 18416,7889.25 18415.5,7889.38 18409.9,7891.1 18407.2,7891.93 18398.9,7894.93 18393,7897.37 18390.8,7898.31 18383.4,7901.81 18382.5,7902.26 18376.9,7905.25 18376.1,7905.65 18368.4,7910.17 18366.9,7911.18 18361.7,7914.62 18361.6,7914.71 18354.5,7919.79 18352.3,7921.57 18347.7,7925.28 18347.3,7925.6 18341.1,7931.05 18338.7,7933.37 18334.8,7937.22 18334.1,7937.87 18329.1,7943.19 18326.3,7946.44 18323.8,7949.43 18322.3,7951.38 18318.4,7956.37 18315.4,7960.65 18313.4,7963.56 18311.8,7965.97 18308.6,7970.94 18305.8,7975.88 18304.3,7978.63 18302.8,7981.52 18300.5,7985.91 18297.8,7991.97 18297.2,7993.39 18295.4,7997.89 18293.9,8001.59 18291.4,8008.78 18291.1,8009.92 18289.6,8014.91 18287.9,8020.69 18287.1,8023.92 18286.7,8026.12 18286.5,8027.21 18285.5,8032.42 18284.5,8038.26 18283.8,8043.87 18283.4,8047.07 18283.2,8050.24 18282.8,8055.15 18282.6,8061.8 18282.6,8063.98" style="stroke:rgb(255,0,0);stroke-width:400.000000;fill:none;stroke-opacity:0.5;stroke-linecap:round;stroke-linejoin:round;;fill:none"/>
<polyline points="18282.6,8063.98 18282.6,8068.2 18282.7,8072.83 18283.1,8079.76 18283.2,8080.92 18283.8,8086.13 18284.2,8089.78 18285.5,8097.59 18285.5,8097.88 18286.7,8103.86 18287.2,8105.9 18289.4,8114.41 18289.4,8114.46 18291,8119.77 18291.9,8122.84 18294.5,8130.01 18294.9,8131.06 18296.9,8135.95 18298.3,8139.23 18301.7,8146.47 18301.8,8146.63 18304.7,8152.15 18305.6,8153.89 18310.2,8161.55 18310.6,8162.14 18314.1,8167.5 18314.6,8168.34 18319.8,8175.51 18320.9,8176.89 18324.9,8181.89 18325.3,8182.34 18331.1,8188.92 18332.6,8190.5 18337.1,8195.08 18337.2,8195.24 18343.2,8200.87 18345.6,8202.92 18349.4,8206.18 18350.5,8207.04 18356.4,8211.63 18359.7,8214 18363.6,8216.65 18365,8217.61 18370.9,8221.37 18374.9,8223.62 18378.6,8225.71 18380.5,8226.7 18385.9,8229.46 18390.9,8231.73 18393.4,8232.81 18396.8,8234.22 18401.6,8236.11 18407.7,8238.22 18409.9,8238.93 18413.9,8240.12 18420.7,8242.07 18423.9,8242.93 18425,8243.13 18427.2,8243.53 18431.3,8244.3 18438.3,8245.51 18442.7,8246.07 18447.1,8246.57 18449.1,8246.75 18455.2,8247.22 18460.7,8247.38 18464,8247.44 18467.1,8247.42 18472.8,8247.32 18478.6,8246.93 18480.9,8246.75 18485,8246.33 18489.8,8245.8 18496.5,8244.71 18497.9,8244.47 18502.8,8243.48 18505.9,8242.84 18514,8240.75 18514.5,8240.63 18520.1,8238.91 18522.8,8238.07 18531.1,8235.08 18537,8232.63 18539.2,8231.7 18546.6,8228.19 18547.5,8227.75 18553.1,8224.75 18553.9,8224.36 18561.6,8219.83 18563.1,8218.82 18568.3,8215.38 18568.4,8215.3 18575.5,8210.21 18577.7,8208.44 18582.3,8204.72 18582.7,8204.41 18588.9,8198.95 18591.3,8196.64 18595.2,8192.78 18595.9,8192.13 18600.9,8186.82 18603.7,8183.57 18606.2,8180.57 18607.7,8178.63 18611.6,8173.63 18614.6,8169.35 18616.6,8166.44 18618.2,8164.04 18621.4,8159.07 18624.2,8154.12 18625.7,8151.37 18627.2,8148.48 18629.5,8144.09 18632.2,8138.03 18632.8,8136.61 18634.6,8132.12 18636.1,8128.41 18638.6,8121.22 18638.9,8120.09 18640.4,8115.09 18642.1,8109.32 18642.9,8106.09 18643.3,8103.88 18643.5,8102.79 18644.5,8097.58 18645.5,8091.74 18646.2,8086.13 18646.6,8082.93 18646.8,8079.76 18647.2,8074.85 18647.4,8068.2 18647.4,8066.02 18647.4,8061.8 18647.3,8057.17 18646.8,8050.24 18646.8,8049.08 18646.2,8043.87 18645.8,8040.22 18644.5,8032.42 18644.5,8032.13 18643.3,8026.14 18642.8,8024.1 18640.6,8015.59 18640.6,8015.55 18639,8010.23 18638.1,8007.17 18635.5,7999.99 18635.1,7998.94 18633.1,7994.06 18631.7,7990.78 18628.3,7983.53 18628.2,7983.38 18625.3,7977.86 18624.4,7976.12 18619.8,7968.45 18619.4,7967.86 18615.9,7962.5 18615.4,7961.67 18610.2,7954.5 18609.1,7953.11 18605.1,7948.12 18604.7,7947.66 18598.9,7941.09 18597.4,7939.5 18592.9,7934.92 18592.8,7934.76 18586.8,7929.13 18584.4,7927.08 18580.6,7923.83 18579.5,7922.97 18573.6,7918.38 18570.3,7916 18566.4,7913.36 18565,7912.39 18559.1,7908.63 18555.1,7906.38 18551.4,7904.29 18549.5,7903.3 18544.1,7900.55 18539.1,7898.27 18536.6,7897.2 18533.2,7895.78 18528.4,7893.89 18522.3,7891.78 18520.1,7891.07 18516.1,7889.88 18509.3,7887.94 18506.1,7887.07 18505,7886.88 18502.8,7886.47 18498.7,7885.7 18491.7,7884.49 18487.3,7883.93 18482.9,7883.44 18480.9,7883.25 18474.8,7882.78 18469.3,7882.62 18466,7882.56 18462.9,7882.58 18457.2,7882.69 18451.4,7883.07 18449.1,7883.25 18445,7883.67 18440.2,7884.21 18433.5,7885.29 18432.1,7885.54 18427.2,7886.52 18424.1,7887.17 18416,7889.25 18415.5,7889.38 18409.9,7891.1 18407.2,7891.93 18398.9,7894.93 18393,7897.37 18390.8,7898.31 18383.4,7901.81 18382.5,7902.26 18376.9,7905.25 18376.1,7905.65 18368.4,7910.17 18366.9,7911.18 18361.7,7914.62 18361.6,7914.71 18354.5,7919.79 18352.3,7921.57 18347.7,7925.28 18347.3,7925.6 18341.1,7931.05 18338.7,7933.37 18334.8,7937.22 18334.1,7937.87 18329.1,7943.19 18326.3,7946.44 18323.8,7949.43 18322.3,7951.38 18318.4,7956.37 18315.4,7960.65 18313.4,7963.56 18311.8,7965.97 18308.6,7970.94 18305.8,7975.88 18304.3,7978.63 18302.8,7981.52 18300.5,7985.91 18297.8,7991.97 18297.2,7993.39 18295.4,7997.89 18293.9,8001.59 18291.4,8008.78 18291.1,8009.92 18289.6,8014.91 18287.9,8020.69 18287.1,8023.92 18286.7,8026.12 18286.5,8027.21 18285.5,8032.42 18284.5,8038.26 18283.8,8043.87 18283.4,8047.07 18283.2,8050.24 18282.8,8055.15 18282.6,8061.8 18282.6,8063.98" style="stroke:rgb(0,0,0);stroke-width:1px;fill:none;stroke-opacity:1;stroke-linecap:round;stroke-linejoin:round;;fill:none"/>
<polyline points="18506.1,7887.07 18532.4,7772.85 18689.9,7090.68 18734.7,6896.83" style="stroke:rgb(255,0,0);stroke-width:400.000000;fill:none;stroke-opacity:0.5;stroke-linecap:round;stroke-linejoin:round;;fill:none"/>
<polyline points="18506.1,7887.07 18532.4,7772.85 18689.9,7090.68 18734.7,6896.83" style="stroke:rgb(0,0,0);stroke-width:1px;fill:none;stroke-opacity:1;stroke-linecap:round;stroke-linejoin:round;;fill:none"/>
<polyline points="19633.2,8334.71 19439.3,8289.94 18757.1,8132.45 18642.9,8106.09 18643.3,8103.88 18643.5,8102.79 18644.5,8097.58 18645.5,8091.74 18646.2,8086.13 18646.6,8082.93 18646.8,8079.76 18647.2,8074.85 18647.4,8068.2 18647.4,8066.02 18647.4,8061.8 18647.3,8057.17 18646.8,8050.24 18646.8,8049.08 18646.2,8043.87 18645.8,8040.22 18644.5,8032.42 18644.5,8032.13 18643.3,8026.14 18642.8,8024.1 18640.6,8015.59 18640.6,8015.55 18639,8010.23 18638.1,8007.17 18635.5,7999.99 18635.1,7998.94 18633.1,7994.06 18631.7,7990.78 18628.3,7983.53 18628.2,7983.38 18625.3,7977.86 18624.4,7976.12 18619.8,7968.45 18619.4,7967.86 18615.9,7962.5 18615.4,7961.67 18610.2,7954.5 18609.1,7953.11 18605.1,7948.12 18604.7,7947.66 18598.9,7941.09 18597.4,7939.5 18592.9,7934.92 18592.8,7934.76 18586.8,7929.13 18584.4,7927.08 18580.6,7923.83 18579.5,7922.97 18573.6,7918.38 18570.3,7916 18566.4,7913.36 18565,7912.39 18559.1,7908.63 18555.1,7906.38 18551.4,7904.29 18549.5,7903.3 18544.1,7900.55 18539.1,7898.27 18536.6,7897.2 18533.2,7895.78 18528.4,7893.89 18522.3,7891.78 18520.1,7891.07 18516.1,7889.88 18509.3,7887.94 18506.1,7887.07" style="stroke:rgb(255,0,0);stroke-width:400.000000;fill:none;stroke-opacity:0.5;stroke-linecap:round;stroke-linejoin:round;;fill:none"/>
<polyline points="19633.2,8334.71 19439.3,8289.94 18757.1,8132.45 18642.9,8106.09 18643.3,8103.88 18643.5,8102.79 18644.5,8097.58 18645.5,8091.74 18646.2,8086.13 18646.6,8082.93 18646.8,8079.76 18647.2,8074.85 18647.4,8068.2 18647.4,8066.02 18647.4,8061.8 18647.3,8057.17 18646.8,8050.24 18646.8,8049.08 18646.2,8043.87 18645.8,8040.22 18644.5,8032.42 18644.5,8032.13 18643.3,8026.14 18642.8,8024.1 18640.6,8015.59 18640.6,8015.55 18639,8010.23 18638.1,8007.17 18635.5,7999.99 18635.1,7998.94 18633.1,7994.06 18631.7,7990.78 18628.3,7983.53 18628.2,7983.38 18625.3,7977.86 18624.4,7976.12 18619.8,7968.45 18619.4,7967.86 18615.9,7962.5 18615.4,7961.67 18610.2,7954.5 18609.1,7953.11 18605.1,7948.12 18604.7,7947.66 18598.9,7941.09 18597.4,7939.5 18592.9,7934.92 18592.8,7934.76 18586.8,7929.13 18584.4,7927.08 18580.6,7923.83 18579.5,7922.97 18573.6,7918.38 18570.3,7916 18566.4,7913.36 18565,7912.39 18559.1,7908.63 18555.1,7906.38 18551.4,7904.29 18549.5,7903.3 18544.1,7900.55 18539.1,7898.27 18536.6,7897.2 18533.2,7895.78 18528.4,7893.89 18522.3,7891.78 18520.1,7891.07 18516.1,7889.88 18509.3,7887.94 18506.1,7887.07" style="stroke:rgb(0,0,0);stroke-width:1px;fill:none;stroke-opacity:1;stroke-linecap:round;stroke-linejoin:round;;fill:none"/>
<polyline points="18734.7,6896.83 18689.9,7090.68 18532.4,7772.85 18506.1,7887.07 18505,7886.88 18502.8,7886.47 18498.7,7885.7 18491.7,7884.49 18487.3,7883.93 18482.9,7883.44 18480.9,7883.25 18474.8,7882.78 18469.3,7882.62 18466,7882.56 18462.9,7882.58 18457.2,7882.69 18451.4,7883.07 18449.1,7883.25 18445,7883.67 18440.2,7884.21 18433.5,7885.29 18432.1,7885.54 18427.2,7886.52 18424.1,7887.17 18416,7889.25 18415.5,7889.38 18409.9,7891.1 18407.2,7891.93 18398.9,7894.93 18393,7897.37 18390.8,7898.31 18383.4,7901.81 18382.5,7902.26 18376.9,7905.25 18376.1,7905.65 18368.4,7910.17 18366.9,7911.18 18361.7,7914.62 18361.6,7914.71 18354.5,7919.79 18352.3,7921.57 18347.7,7925.28 18347.3,7925.6 18341.1,7931.05 18338.7,7933.37 18334.8,7937.22 18334.1,7937.87 18329.1,7943.19 18326.3,7946.44 18323.8,7949.43 18322.3,7951.38 18318.4,7956.37 18315.4,7960.65 18313.4,7963.56 18311.8,7965.97 18308.6,7970.94 18305.8,7975.88 18304.3,7978.63 18302.8,7981.52 18300.5,7985.91 18297.8,7991.97 18297.2,7993.39 18295.4,7997.89 18293.9,8001.59 18291.4,8008.78 18291.1,8009.92 18289.6,8014.91 18287.9,8020.69 18287.1,8023.92 18172.9,7997.55 17490.7,7840.06 17296.8,7795.3" style="stroke:rgb(255,0,0);stroke-width:400.000000;fill:none;stroke-opacity:0.5;stroke-linecap:round;stroke-linejoin:round;;fill:none"/>
<polyline points="18734.7,6896.83 18689.9,7090.68 18532.4,7772.85 18506.1,7887.07 18505,7886.88 18502.8,7886.47 18498.7,7885.7 18491.7,7884.49 18487.3,7883.93 18482.9,7883.44 18480.9,7883.25 18474.8,7882.78 18469.3,7882.62 18466,7882.56 18462.9,7882.58 18457.2,7882.69 18451.4,7883.07 18449.1,7883.25 18445,7883.67 18440.2,7884.21 18433.5,7885.29 18432.1,7885.54 18427.2,7886.52 18424.1,7887.17 18416,7889.25 18415.5,7889.38 18409.9,7891.1 18407.2,7891.93 18398.9,7894.93 18393,7897.37 18390.8,7898.31 18383.4,7901.81 18382.5,7902.26 18376.9,7905.25 18376.1,7905.65 18368.4,7910.17 18366.9,7911.18 18361.7,7914.62 18361.6,7914.71 18354.5,7919.79 18352.3,7921.57 18347.7,7925.28 18347.3,7925.6 18341.1,7931.05 18338.7,7933.37 18334.8,7937.22 18334.1,7937.87 18329.1,7943.19 18326.3,7946.44 18323.8,7949.43 18322.3,7951.38 18318.4,7956.37 18315.4,7960.65 18313.4,7963.56 18311.8,7965.97 18308.6,7970.94 18305.8,7975.88 18304.3,7978.63 18302.8,7981.52 18300.5,7985.91 18297.8,7991.97 18297.2,7993.39 18295.4,7997.89 18293.9,8001.59 18291.4,8008.78 18291.1,8009.92 18289.6,8014.91 18287.9,8020.69 18287.1,8023.92 18172.9,7997.55 17490.7,7840.06 17296.8,7795.3" style="stroke:rgb(0,0,0);stroke-width:1px;fill:none;stroke-opacity:1;stroke-linecap:round;stroke-linejoin:round;;fill:none"/>
</svg>
