<?xml version="1.0" standalone="no"?>
<!DOCTYPE svg PUBLIC "-//W3C//DTD SVG 1.1//EN"
"http://www.w3.org/Graphics/SVG/1.1/DTD/svg11.dtd">
<!-- original:
<svg width="67.7669" height="53.3669" viewBox="0 0 1411.81 1111.81" version="1.1"
-->
<svg width="6776.69" height="5336.69" viewBox="0 0 1411.81 1111.81" version="1.1"
xmlns="http://www.w3.org/2000/svg"
xmlns:xlink="http://www.w3.org/1999/xlink">
<polyline points="5.90551,1105.91 1405.91,1105.91 1405.91,5.90551 5.90551,5.90551 5.90551,1105.91" style="stroke:rgb(33,1,197);stroke-width:0.000000;fill:none;stroke-opacity:0.5;stroke-linecap:round;stroke-linejoin:round;;fill:none"/>
<polyline points="5.90551,1105.91 1405.91,1105.91 1405.91,5.90551 5.90551,5.90551 5.90551,1105.91" style="stroke:rgb(0,0,0);stroke-width:1px;fill:none;stroke-opacity:1;stroke-linecap:round;stroke-linejoin:round;;fill:none"/>
<polyline points="505.906,305.906 508.944,271.176 517.966,237.5 532.7,205.906 552.696,177.348 577.348,152.696 605.906,132.7 637.5,117.966 671.176,108.944 705.906,105.906 740.634,108.944 774.31,117.966 805.906,132.7 834.462,152.696 859.114,177.348 879.11,205.906 893.844,237.5 902.866,271.176 905.906,305.906 902.866,340.634 893.844,374.31 879.11,405.906 859.114,434.462 834.462,459.114 805.906,479.11 774.31,493.842 740.634,502.864 705.906,505.906 671.176,502.864 637.5,493.842 605.906,479.11 577.348,459.114 552.696,434.462 532.7,405.906 517.966,374.31 508.944,340.634 505.906,305.906" style="stroke:rgb(33,1,197);stroke-width:0.000000;fill:none;stroke-opacity:0.5;stroke-linecap:round;stroke-linejoin:round;;fill:none"/>
<polyline points="505.906,305.906 508.944,271.176 517.966,237.5 532.7,205.906 552.696,177.348 577.348,152.696 605.906,132.7 637.5,117.966 671.176,108.944 705.906,105.906 740.634,108.944 774.31,117.966 805.906,132.7 834.462,152.696 859.114,177.348 879.11,205.906 893.844,237.5 902.866,271.176 905.906,305.906 902.866,340.634 893.844,374.31 879.11,405.906 859.114,434.462 834.462,459.114 805.906,479.11 774.31,493.842 740.634,502.864 705.906,505.906 671.176,502.864 637.5,493.842 605.906,479.11 577.348,459.114 552.696,434.462 532.7,405.906 517.966,374.31 508.944,340.634 505.906,305.906" style="stroke:rgb(0,0,0);stroke-width:1px;fill:none;stroke-opacity:1;stroke-linecap:round;stroke-linejoin:round;;fill:none"/>
<polyline points="405.906,905.906 405.906,705.906 805.906,705.906 802.866,740.634 793.844,774.31 779.11,805.906 759.114,834.462 734.462,859.114 705.906,879.11 674.31,893.844 640.634,902.866 605.906,905.906 405.906,905.906" style="stroke:rgb(33,1,197);stroke-width:0.000000;fill:none;stroke-opacity:0.5;stroke-linecap:round;stroke-linejoin:round;;fill:none"/>
<polyline points="405.906,905.906 405.906,705.906 805.906,705.906 802.866,740.634 793.844,774.31 779.11,805.906 759.114,834.462 734.462,859.114 705.906,879.11 674.31,893.844 640.634,902.866 605.906,905.906 405.906,905.906" style="stroke:rgb(0,0,0);stroke-width:1px;fill:none;stroke-opacity:1;stroke-linecap:round;stroke-linejoin:round;;fill:none"/>
</svg>
