<?xml version="1.0" standalone="no"?>
<!DOCTYPE svg PUBLIC "-//W3C//DTD SVG 1.1//EN"
"http://www.w3.org/Graphics/SVG/1.1/DTD/svg11.dtd">
<!-- original:
<svg width="477.58" height="477.58" viewBox="0 0 9949.58 9949.58" version="1.1"
-->
<svg width="4775.8" height="4775.8" viewBox="0 0 9949.58 9949.58" version="1.1"
xmlns="http://www.w3.org/2000/svg"
xmlns:xlink="http://www.w3.org/1999/xlink">
<g fill-rule="evenodd"><path d="M 124.015,4977.99 L 124.319,4920.39 L 125.363,4860.4 L 127.063,4802.82 L 129.561,4742.88 L 132.561,4686.96 L 136.549,4626.29 L 141.297,4565.67 L 146.727,4505.92 L 152.983,4445.44 L 159.705,4387.43 L 167.445,4327.13 L 175.707,4268.51 L 185.063,4207.62 L 195.191,4146.86 L 205.651,4088.59 L 216.665,4031.24 L 228.865,3971.68 L 240.587,3917.74 L 253.473,3861.6 L 267.989,3801.74 L 282.655,3744.38 L 298.871,3684.13 L 315.415,3625.62 L 331.995,3569.62 L 350.213,3510.78 L 367.923,3455.97 L 387.061,3399.11 L 406.363,3343.99 L 427.719,3285.36 L 447.813,3232.23 L 470.009,3175.63 L 492.301,3120.79 L 515.261,3066.22 L 539.857,3009.74 L 564.501,2955.04 L 588.795,2902.81 L 615.109,2848 L 641.029,2795.67 L 669.419,2740.11 L 696.257,2689.14 L 723.699,2638.5 L 752.527,2586.79 L 782.387,2534.75 L 812.477,2483.77 L 842.349,2434.52 L 874.085,2383.6 L 906.013,2333.75 L 939.435,2282.96 L 974.395,2231.27 L 1008.63,2182 L 1043.01,2133.81 L 1077.5,2086.68 L 1112.55,2039.97 L 1148.16,1993.69 L 1184.83,1947.21 L 1222.57,1900.56 L 1259.85,1855.61 L 1297.67,1811.11 L 1338.14,1764.68 L 1378.66,1719.35 L 1418.66,1675.7 L 1458.63,1633.13 L 1501.35,1588.75 L 1541.24,1548.31 L 1583.88,1506.1 L 1627.62,1463.87 L 1671.31,1422.74 L 1714.31,1383.23 L 1758.38,1343.71 L 1801.73,1305.77 L 1847.96,1266.29 L 1891.6,1229.93 L 1936.28,1193.58 L 1984.54,1155.3 L 2032.02,1118.61 L 2079.29,1082.98 L 2127.65,1047.47 L 2175.14,1013.48 L 2227.65,976.885 L 2275.31,944.547 L 2324.7,911.903 L 2373.8,880.293 L 2425.33,848.015 L 2475.88,817.209 L 2527.49,786.619 L 2579.48,756.669 L 2631.14,727.751 L 2685.26,698.333 L 2736.91,671.079 L 2788.17,644.809 L 2843.33,617.391 L 2897.39,591.361 L 2951.04,566.335 L 3005.72,541.641 L 3060.71,517.625 L 3115.98,494.291 L 3171.54,471.643 L 3227.38,449.683 L 3284.23,428.137 L 3340.6,407.575 L 3397.21,387.711 L 3453.31,368.801 L 3508.87,350.817 L 3566.18,333.039 L 3619.86,317.087 L 3679.11,300.257 L 3736.26,284.793 L 3793.59,270.027 L 3851.87,255.777 L 3910.32,242.249 L 3968.16,229.611 L 4026.93,217.523 L 4085.84,206.163 L 4141.74,196.081 L 4200.91,186.143 L 4260.2,176.937 L 4322.77,168.035 L 4379.89,160.631 L 4440.28,153.553 L 4496.77,147.625 L 4554.12,142.289 L 4615.52,137.337 L 4676.98,133.165 L 4736.08,129.891 L 4796.03,127.309 L 4856,125.469 L 4911.19,124.431 L 4971.99,124.015 L 5032.79,124.361 L 5091.18,125.411 L 5149.55,127.163 L 5208.7,129.657 L 5268.61,132.921 L 5327.67,136.867 L 5386.69,141.535 L 5446.44,146.999 L 5507.71,153.377 L 5564.92,160.045 L 5624.43,167.713 L 5683.04,175.999 L 5740.77,184.873 L 5803.11,195.259 L 5863.73,206.163 L 5918.72,216.743 L 5976.72,228.617 L 6033.79,241.023 L 6093.81,254.853 L 6149,268.279 L 6209.45,283.773 L 6265.83,298.977 L 6322.8,315.081 L 6379.57,331.879 L 6436.12,349.369 L 6492.46,367.547 L 6550.09,386.931 L 6603.7,405.691 L 6660.84,426.467 L 6716.97,447.669 L 6771.35,468.971 L 6826.94,491.537 L 6882.25,514.789 L 6937.27,538.723 L 6992.72,563.669 L 7044.95,587.941 L 7099.77,614.233 L 7152.11,640.131 L 7203.43,666.291 L 7258.67,695.315 L 7310.02,723.121 L 7361.74,751.937 L 7412.4,780.979 L 7464.78,811.861 L 7512.67,840.883 L 7564.28,873.017 L 7616.16,906.231 L 7665.62,938.769 L 7718.63,974.621 L 7767.9,1008.86 L 7817.39,1044.18 L 7863.86,1078.21 L 7911.2,1113.76 L 7957.47,1149.39 L 8005.18,1187.08 L 8049.94,1223.33 L 8096.72,1262.17 L 8139.98,1298.98 L 8185.8,1338.94 L 8228.74,1377.32 L 8271.23,1416.21 L 8316.73,1458.91 L 8358.82,1499.4 L 8402.11,1542.09 L 8443.19,1583.6 L 8484.87,1626.76 L 8524.92,1669.26 L 8566.08,1714.01 L 8605.07,1757.48 L 8645.11,1803.24 L 8683.54,1848.27 L 8720.91,1893.14 L 8756.74,1937.22 L 8795.01,1985.49 L 8832.66,2034.24 L 8867.31,2080.26 L 8902.81,2128.62 L 8938.64,2178.73 L 8972.92,2227.98 L 9005.25,2275.64 L 9037.02,2323.69 L 9069.5,2374.14 L 9100.09,2422.94 L 9131.75,2474.85 L 9163.56,2528.53 L 9193.1,2579.83 L 9222.4,2632.19 L 9250.68,2684.2 L 9277.2,2734.43 L 9304.95,2788.53 L 9332.01,2842.97 L 9357.7,2896.31 L 9384.07,2952.86 L 9407.12,3003.9 L 9431.79,3060.34 L 9454.82,3114.87 L 9477.49,3170.43 L 9500.04,3227.75 L 9520.74,3282.36 L 9540.52,3336.46 L 9560.17,3392.3 L 9579.64,3449.89 L 9597.43,3504.68 L 9615.72,3563.5 L 9633.05,3621.78 L 9649.64,3680.27 L 9665.09,3737.42 L 9679.84,3794.75 L 9693.89,3852.26 L 9707.41,3910.71 L 9719.22,3964.64 L 9731.5,4024.18 L 9742.9,4083.09 L 9753.15,4139.77 L 9762.86,4197.36 L 9772.11,4256.64 L 9780.62,4316.03 L 9788.4,4375.52 L 9795.27,4433.52 L 9801.59,4493.18 L 9807.11,4552.12 L 9812.03,4612.73 L 9815.99,4670.19 L 9819.34,4729.29 L 9822.1,4791.63 L 9823.98,4850.8 L 9825.17,4913.19 L 9825.56,4971.59 L 9825.26,5029.19 L 9824.21,5089.18 L 9822.51,5146.75 L 9820.01,5206.7 L 9817.01,5262.62 L 9813.03,5323.29 L 9808.28,5383.9 L 9802.85,5443.65 L 9796.59,5504.13 L 9789.87,5562.14 L 9782.13,5622.45 L 9773.87,5681.07 L 9764.51,5741.95 L 9754.38,5802.71 L 9743.92,5860.98 L 9732.91,5918.33 L 9720.71,5977.89 L 9708.99,6031.83 L 9696.1,6087.97 L 9681.59,6147.84 L 9666.92,6205.19 L 9650.7,6265.45 L 9634.16,6323.95 L 9617.58,6379.95 L 9599.36,6438.79 L 9581.65,6493.6 L 9562.51,6550.47 L 9543.21,6605.59 L 9521.86,6664.22 L 9501.76,6717.34 L 9479.57,6773.95 L 9457.27,6828.79 L 9434.31,6883.35 L 9409.72,6939.83 L 9385.07,6994.53 L 9360.78,7046.76 L 9334.47,7101.57 L 9308.55,7153.9 L 9280.16,7209.47 L 9253.32,7260.43 L 9225.88,7311.08 L 9197.05,7362.78 L 9167.19,7414.82 L 9137.1,7465.81 L 9107.23,7515.05 L 9075.49,7565.97 L 9043.56,7615.82 L 9010.14,7666.61 L 8975.18,7718.3 L 8940.94,7767.57 L 8906.56,7815.76 L 8872.07,7862.89 L 8837.02,7909.6 L 8801.41,7955.89 L 8764.74,8002.37 L 8727.01,8049.01 L 8689.72,8093.96 L 8651.9,8138.46 L 8611.43,8184.9 L 8570.91,8230.23 L 8530.91,8273.87 L 8490.94,8316.44 L 8448.22,8360.83 L 8408.34,8401.26 L 8365.69,8443.47 L 8321.95,8485.7 L 8278.27,8526.83 L 8235.27,8566.34 L 8191.19,8605.87 L 8147.85,8643.8 L 8101.61,8683.29 L 8057.98,8719.64 L 8013.29,8755.99 L 7965.03,8794.27 L 7917.56,8830.96 L 7870.28,8866.59 L 7821.92,8902.11 L 7774.43,8936.1 L 7721.93,8972.69 L 7674.26,9005.03 L 7624.88,9037.67 L 7575.77,9069.28 L 7524.25,9101.56 L 7473.7,9132.37 L 7422.08,9162.96 L 7370.09,9192.91 L 7318.43,9221.82 L 7264.31,9251.24 L 7212.66,9278.5 L 7161.4,9304.77 L 7106.24,9332.18 L 7052.18,9358.21 L 6998.53,9383.24 L 6943.85,9407.93 L 6888.87,9431.95 L 6833.59,9455.28 L 6778.03,9477.93 L 6722.19,9499.89 L 6665.34,9521.44 L 6608.98,9542 L 6552.36,9561.86 L 6496.26,9580.77 L 6440.7,9598.76 L 6383.39,9616.54 L 6329.72,9632.49 L 6270.46,9649.32 L 6213.32,9664.78 L 6155.99,9679.55 L 6097.7,9693.8 L 6039.25,9707.33 L 5981.42,9719.96 L 5922.65,9732.05 L 5863.73,9743.41 L 5807.83,9753.49 L 5748.66,9763.43 L 5689.37,9772.64 L 5626.81,9781.54 L 5569.68,9788.94 L 5509.3,9796.02 L 5452.81,9801.95 L 5395.46,9807.29 L 5334.06,9812.24 L 5272.6,9816.41 L 5213.49,9819.68 L 5153.55,9822.27 L 5093.57,9824.11 L 5038.38,9825.14 L 4977.59,9825.56 L 4916.79,9825.21 L 4858.4,9824.16 L 4800.03,9822.41 L 4740.88,9819.92 L 4680.97,9816.65 L 4621.9,9812.71 L 4562.88,9808.04 L 4503.13,9802.58 L 4441.87,9796.2 L 4384.65,9789.53 L 4325.15,9781.86 L 4266.53,9773.58 L 4208.81,9764.7 L 4146.47,9754.32 L 4085.84,9743.41 L 4030.85,9732.83 L 3972.85,9720.96 L 3915.79,9708.55 L 3855.76,9694.72 L 3800.57,9681.3 L 3740.13,9665.8 L 3683.74,9650.6 L 3626.77,9634.49 L 3570.01,9617.7 L 3513.45,9600.21 L 3457.11,9582.03 L 3399.48,9562.64 L 3345.87,9543.88 L 3288.73,9523.11 L 3232.6,9501.91 L 3178.23,9480.6 L 3122.63,9458.04 L 3067.32,9434.79 L 3012.3,9410.85 L 2956.86,9385.91 L 2904.62,9361.63 L 2849.8,9335.34 L 2797.46,9309.44 L 2746.14,9283.28 L 2690.9,9254.26 L 2639.55,9226.45 L 2587.84,9197.64 L 2537.17,9168.6 L 2484.8,9137.71 L 2436.91,9108.69 L 2385.29,9076.56 L 2333.41,9043.34 L 2283.96,9010.81 L 2230.94,8974.95 L 2181.68,8940.71 L 2132.19,8905.39 L 2085.72,8871.36 L 2038.38,8835.81 L 1992.11,8800.18 L 1944.4,8762.5 L 1899.63,8726.25 L 1852.86,8687.41 L 1809.6,8650.6 L 1763.78,8610.64 L 1720.83,8572.25 L 1678.34,8533.36 L 1632.84,8490.66 L 1590.75,8450.18 L 1547.46,8407.49 L 1506.38,8365.98 L 1464.7,8322.82 L 1424.65,8280.32 L 1383.5,8235.56 L 1344.5,8192.09 L 1304.46,8146.34 L 1266.03,8101.31 L 1228.66,8056.43 L 1192.83,8012.36 L 1154.56,7964.09 L 1116.91,7915.33 L 1082.27,7869.32 L 1046.76,7820.95 L 1010.94,7770.84 L 976.659,7721.6 L 944.325,7673.93 L 912.559,7625.88 L 880.079,7575.43 L 849.487,7526.63 L 817.827,7474.72 L 786.013,7421.04 L 756.471,7369.74 L 727.171,7317.38 L 698.899,7265.37 L 672.371,7215.15 L 644.629,7161.05 L 617.567,7106.6 L 591.875,7053.27 L 565.501,6996.72 L 542.453,6945.68 L 517.783,6889.24 L 494.751,6834.7 L 472.089,6779.15 L 449.539,6721.82 L 428.835,6667.22 L 409.059,6613.12 L 389.405,6557.28 L 369.931,6499.68 L 352.149,6444.89 L 333.853,6386.07 L 316.529,6327.79 L 299.937,6269.3 L 284.487,6212.16 L 269.735,6154.82 L 255.685,6097.32 L 242.161,6038.86 L 230.359,5984.94 L 218.071,5925.39 L 206.677,5866.48 L 196.425,5809.8 L 186.719,5752.22 L 177.469,5692.94 L 168.953,5633.54 L 161.173,5574.05 L 154.307,5516.06 L 147.981,5456.39 L 142.463,5397.45 L 137.545,5336.85 L 133.587,5279.39 L 130.231,5220.28 L 127.473,5157.94 L 125.599,5098.77 L 124.405,5036.39 L 124.015,4977.99M 2594.44,4876.39 L 2595.2,4933.98 L 2597.43,4991.53 L 2601.04,5048.22 L 2605.74,5101.61 L 2612,5157.26 L 2619.5,5211.94 L 2628.18,5265.64 L 2638.77,5322.26 L 2650.08,5375.47 L 2663.24,5430.72 L 2677.34,5484.09 L 2692.97,5537.86 L 2709.41,5589.72 L 2727.34,5641.92 L 2747.4,5695.91 L 2768.21,5747.9 L 2790.93,5800.83 L 2813.61,5850.27 L 2837.47,5899.16 L 2862.86,5948.17 L 2889.43,5996.55 L 2918.81,6047.03 L 2948.18,6094.7 L 2978.27,6140.98 L 3010.86,6188.47 L 3042.25,6231.92 L 3075.14,6275.24 L 3111.08,6320.25 L 3148.15,6364.33 L 3184.18,6405.09 L 3223.37,6447.3 L 3263.04,6487.95 L 3301.98,6525.93 L 3342.41,6563.52 L 3384.33,6600.64 L 3428.4,6637.73 L 3474.02,6674.19 L 3517.98,6707.57 L 3562.74,6739.87 L 3609.6,6771.97 L 3657.24,6802.89 L 3703.58,6831.38 L 3753.37,6860.34 L 3801.76,6886.9 L 3850.77,6912.28 L 3901.83,6937.16 L 3953.5,6960.75 L 4003.52,6982.13 L 4056.28,7003.18 L 4109.54,7022.9 L 4160.24,7040.29 L 4215.16,7057.65 L 4268.18,7072.98 L 4323.9,7087.6 L 4376.06,7099.93 L 4432.41,7111.82 L 4485.9,7121.73 L 4541.98,7130.72 L 4597.48,7138.21 L 4654.73,7144.5 L 4712.13,7149.33 L 4764.83,7152.49 L 4819.99,7154.48 L 4875.99,7155.14 L 4929.58,7154.48 L 4986.34,7152.41 L 5043.83,7148.86 L 5099.62,7144.03 L 5156.07,7137.72 L 5209.97,7130.37 L 5266.83,7121.19 L 5321.87,7110.88 L 5375.86,7099.41 L 5431.11,7086.24 L 5484.47,7072.12 L 5538.24,7056.49 L 5590.86,7039.79 L 5644.56,7021.29 L 5696.28,7002.03 L 5749.01,6980.91 L 5800.46,6958.8 L 5851.36,6935.45 L 5903.09,6910.12 L 5952.05,6884.64 L 6002.47,6856.79 L 6050.8,6828.5 L 6097.07,6799.89 L 6143.3,6769.75 L 6189.45,6738.03 L 6235.45,6704.71 L 6280.6,6670.25 L 6324.27,6635.19 L 6366.45,6599.59 L 6407.17,6563.52 L 6448.75,6524.83 L 6488.79,6485.68 L 6527.31,6446.14 L 6565.4,6405.09 L 6601.42,6364.33 L 6638.49,6320.25 L 6674.43,6275.24 L 6707.33,6231.92 L 6738.72,6188.47 L 6771.3,6140.98 L 6801.39,6094.7 L 6830.77,6047.03 L 6860.14,5996.55 L 6886.71,5948.17 L 6912.46,5898.44 L 6936.64,5848.82 L 6960.91,5795.71 L 6981.98,5746.42 L 7002.17,5695.91 L 7022.23,5641.92 L 7040.92,5587.44 L 7057.77,5534.03 L 7072.87,5481.77 L 7087.11,5427.62 L 7100.19,5372.35 L 7111.9,5316.77 L 7121.8,5263.28 L 7130.66,5207.99 L 7138.36,5150.91 L 7144.38,5096.04 L 7149.01,5041.84 L 7152.43,4985.94 L 7154.49,4929.18 L 7155.14,4873.19 L 7154.37,4815.59 L 7152.15,4758.04 L 7148.53,4701.36 L 7143.83,4647.96 L 7137.58,4592.32 L 7130.08,4537.63 L 7121.39,4483.93 L 7110.8,4427.31 L 7099.49,4374.1 L 7086.33,4318.85 L 7072.23,4265.49 L 7056.61,4211.71 L 7040.17,4159.86 L 7022.23,4107.65 L 7002.17,4053.66 L 6981.37,4001.67 L 6958.64,3948.75 L 6935.96,3899.3 L 6912.1,3850.41 L 6886.71,3801.4 L 6860.14,3753.02 L 6830.77,3702.55 L 6801.39,3654.87 L 6771.3,3608.6 L 6738.72,3561.1 L 6707.33,3517.66 L 6674.43,3474.33 L 6638.49,3429.33 L 6601.42,3385.24 L 6565.4,3344.48 L 6526.21,3302.27 L 6486.53,3261.63 L 6447.59,3223.64 L 6407.17,3186.06 L 6365.24,3148.94 L 6321.18,3111.85 L 6275.56,3075.39 L 6231.59,3042.01 L 6186.84,3009.71 L 6139.98,2977.61 L 6092.33,2946.68 L 6046,2918.19 L 5996.21,2889.23 L 5947.82,2862.67 L 5898.8,2837.29 L 5847.74,2812.42 L 5796.07,2788.83 L 5746.05,2767.44 L 5693.3,2746.4 L 5640.04,2726.67 L 5589.34,2709.28 L 5534.42,2691.92 L 5481.39,2676.6 L 5425.68,2661.98 L 5373.52,2649.64 L 5317.16,2637.76 L 5263.67,2627.84 L 5207.59,2618.85 L 5152.1,2611.36 L 5094.84,2605.08 L 5037.45,2600.24 L 4984.74,2597.09 L 4929.58,2595.09 L 4873.59,2594.44 L 4819.99,2595.09 L 4763.23,2597.17 L 4705.74,2600.71 L 4649.95,2605.55 L 4593.51,2611.85 L 4539.61,2619.2 L 4482.75,2628.39 L 4427.71,2638.69 L 4373.71,2650.17 L 4318.46,2663.34 L 4265.1,2677.45 L 4211.33,2693.08 L 4158.72,2709.78 L 4105.02,2728.29 L 4053.29,2747.55 L 4000.56,2768.67 L 3949.11,2790.77 L 3898.22,2814.13 L 3846.49,2839.45 L 3797.52,2864.94 L 3747.1,2892.78 L 3698.78,2921.07 L 3652.51,2949.68 L 3606.27,2979.83 L 3560.12,3011.55 L 3514.13,3044.87 L 3468.97,3079.32 L 3425.31,3114.39 L 3383.12,3149.98 L 3342.41,3186.06 L 3300.82,3224.75 L 3260.78,3263.89 L 3222.26,3303.43 L 3184.18,3344.48 L 3148.15,3385.24 L 3111.08,3429.33 L 3075.14,3474.33 L 3042.25,3517.66 L 3010.86,3561.1 L 2978.27,3608.6 L 2948.18,3654.87 L 2918.81,3702.55 L 2889.43,3753.02 L 2862.86,3801.4 L 2837.11,3851.13 L 2812.93,3900.75 L 2788.66,3953.87 L 2767.6,4003.15 L 2747.4,4053.66 L 2727.34,4107.65 L 2708.65,4162.14 L 2691.81,4215.54 L 2676.7,4267.8 L 2662.46,4321.96 L 2649.38,4377.23 L 2637.68,4432.81 L 2627.77,4486.29 L 2618.91,4541.59 L 2611.21,4598.67 L 2605.19,4653.54 L 2600.56,4707.74 L 2597.15,4763.63 L 2595.08,4820.39 L 2594.44,4876.39 z " style="fill-opacity:1.000000;fill:rgb(33,1,197);stroke:rgb(0,0,0);stroke-width:2"/></g>
</svg>
