<?xml version="1.0" standalone="no"?>
<!DOCTYPE svg PUBLIC "-//W3C//DTD SVG 1.1//EN"
"http://www.w3.org/Graphics/SVG/1.1/DTD/svg11.dtd">
<!-- original:
<svg width="189.506" height="131.906" viewBox="0 0 3948.03 2748.03" version="1.1"
-->
<svg width="1895.06" height="1319.06" viewBox="0 0 3948.03 2748.03" version="1.1"
xmlns="http://www.w3.org/2000/svg"
xmlns:xlink="http://www.w3.org/1999/xlink">
<polyline points="91.4557,713.694 52.1997,753.156 39.7197,766.98 29.4357,779.196 18.7077,793.104 8.60975,807.474 -3.06425,825.67 -13.0103,842.95 -22.0683,860.71 -31.5263,881.914 -38.3023,898.958 -44.5203,917.06 -49.8503,935.442 -55.2643,958.078 -58.8403,977.016 -61.4863,996.108 -63.6703,1021.67 -64.3843,1043.85 -64.3683,1863.29 -63.9903,1876.97 -63.1163,1891.44 -60.6783,1915.27 -56.6423,1939.69 -53.4743,1954.64 -50.4363,1967.16 -46.9903,1979.57 -42.8863,1992.63 -37.5403,2007.81 -32.9043,2019.73 -22.8303,2042.38 -15.9983,2056.07 -9.48425,2068.11 -2.55625,2079.92 3.89575,2090.13 12.4497,2102.85 20.4577,2113.95 28.3417,2124.14 36.5557,2134.06 46.1397,2144.98 55.4857,2154.98 422.358,2521.92 440.556,2539 456.426,2552.49 472.912,2565.1 493.45,2579.04 510.44,2589.47 528.646,2599.4 545.896,2607.69 567.256,2616.79 586.868,2624.02 124.016,2624.02 124.016,2223.58 424.646,2524.19 434.568,2533.62 446.016,2543.78 455.806,2551.99 465.856,2559.87 476.158,2567.43 488.034,2575.52 502.22,2584.57 515.986,2592.63 528.646,2599.4 540.822,2605.36 568.738,2617.38 581.436,2622.13 594.29,2626.45 607.284,2630.31 620.404,2633.73 635.308,2637.19 650.288,2640.1 665.368,2642.42 679.728,2644.09 702.086,2645.78 721.942,2646.31 1671.27,2646.14 1692.88,2645.5 1715.22,2643.58 1733.46,2641.06 1754.8,2637.12 1772.8,2632.96 1791.35,2627.73 1812.69,2620.51 1829.93,2613.87 1847.56,2606.09 1865.5,2597.07 1883.78,2586.88 1900.14,2576.7 1916.64,2565.26 1933.25,2552.55 1945.59,2542.3 1957.5,2531.56 1996.45,2492.9 2019.64,2495.34 2042.81,2496.4 2202.82,2496.44 2218.81,2495.95 2234.77,2494.81 2249.88,2493.13 2266.05,2490.67 2285.69,2495.75 2304.59,2499.68 2327.61,2503.22 2347.65,2505.35 2360.51,2506.17 2375.01,2506.58 2462.35,2506.62 2456.03,2624.02 3711.92,2624.02 3733.17,2597.62 3750,2575.24 3770,2546.29 3780.9,2529.36 3790.54,2513.69 3807.18,2484.5 3824.02,2451.95 3824.02,2414.94 3772.18,2387.61 3669.24,2336.4 3600.08,2303.89 3534.95,2275.16 3524.01,2270.51 3481.72,2253.72 3488.09,2237.67 3493.63,2221.81 3499.05,2204.09 3503.35,2187.85 3507.65,2168.19 3510.5,2152.45 3512.79,2135.81 3514.89,2114.99 3515.74,2099.81 3516.1,2082.79 3515.99,2069.99 3515.36,2055.27 3497.58,2048.21 3515.36,2055.27 3515.93,2067.59 3516.11,2080.39 3515.32,2108.6 3514.21,2122.96 3512.61,2137.39 3509.01,2161.12 3504.63,2182.4 3499.92,2201.01 3493.63,2221.81 3486.67,2241.41 3478.26,2261.92 3469.82,2280.05 3458.96,2300.7 3448.37,2318.6 3437.82,2334.79 3428.08,2348.48 3414.45,2365.97 3403.04,2379.37 3388.77,2394.68 3376.27,2407.06 3360.13,2421.6 3346.59,2432.85 3329.24,2445.92 3315.44,2455.5 3297.02,2467.03 3281.75,2475.78 3266.11,2483.83 3246.01,2493.21 3230.47,2499.58 3210.81,2506.75 3189.4,2513.35 3174.93,2517.2 3161.69,2520.28 3135.6,2525.07 3113.38,2527.93 3093.36,2529.54 3075.86,2530.22 2976.4,2530.29 2961.14,2529.85 2945.11,2528.74 2925.05,2526.78 2906.05,2524.06 2889.54,2520.92 2869.84,2516.38 2853.63,2511.95 2837.19,2506.68 2367.76,2506.44 2355.68,2505.91 2342.02,2504.86 2329.21,2503.43 2314.1,2501.29 2290.4,2496.82 2266.05,2490.67 2253.05,2492.7 2238.75,2494.43 2225.2,2495.57 2210.82,2496.27 2068.66,2496.46 2061.74,2624.02 1802.75,2624.02 1817.97,2618.58 1829.93,2613.87 1842.46,2608.45 1854.07,2602.95 1866.2,2596.69 1881.7,2588.1 1893.38,2581.04 1904.82,2573.58 1916.64,2565.26 1928.83,2556.02 1938.85,2548 1948.61,2539.66 1963.29,2526.01 1996.45,2492.9 2019.64,2495.34 2042.81,2496.4 2202.82,2496.44 2218.81,2495.95 2234.77,2494.81 2249.88,2493.13 2266.05,2490.67 2269.38,2423.58 2267.04,2363.02 2265.2,2323.84 2260.8,2245.62 2259.06,2221.2 2256.15,2187.7 2254.04,2168.87 2251.74,2152.23 2249.47,2138.96 2247.45,2129.17 2244.47,2117.42 2242.52,2111.05 2237.46,2097.28 2233.09,2084.19 2229.49,2070.75 2227.02,2058.6 2225.31,2046.65 2224.32,2034.7 2224.04,2022.13 2224.43,2011.4 2226.35,1993.51 2228.3,1982.68 2230.68,1972.44 2235.08,1957.53 2243.84,1932.72 2246.4,1923.23 2250.01,1906.04 2253.41,1883.88 2255.44,1866.83 2258.15,1837.07 2270.54,1829.6 2282.38,1822.97 2289.79,1819.07 2309.8,1809.39 2332.21,1799.92 2359.27,1790.19 2388.4,1781.49 2411.57,1775.76 2421.79,1773.53 2450.22,1768.22 2460.98,1766.53 2494.48,1762.29 2505.83,1761.19 2549.71,1758.36 2563.46,1789.84 2690.28,1916.65 2706.66,1932.01 2711.52,1936.28 2733.16,1953.53 2747.47,1963.39 2764.87,1973.71 2782.66,1982.35 2801.87,1990.31 2817.3,1995.65 2826.33,1998.04 2840.49,2000.77 2852.94,2002.11 2862.77,2002.5 2914.73,2002.5 2915.38,2002.74 2921.95,2002.77 3371.72,2002.78 3485.59,2043.82 3497.58,2048.21 3515.01,2055.13 3875.13,1695.07 3889.96,1679.27 3905.5,1660.86 3913.35,1650.81 3920.88,1640.5 3927.63,1630.63 3934.92,1619.19 3949.23,1594.2 3955.4,1582.11 3960.83,1570.54 3965.87,1558.81 3971.47,1544.64 3975.54,1533.38 3979.72,1520.47 3983.88,1505.88 3987.34,1491.85 3990.26,1478.6 3992.45,1466.82 3994.6,1452.61 3996.23,1438.33 3997.57,1422.29 3998.29,1406.24 3998.36,1247.26 3997.74,1228.14 3996.18,1209.07 3993.25,1186.84 3989.95,1167.89 3985.13,1146.79 3978.68,1124.46 3969.95,1099.42 3960.71,1077.22 3950.51,1056.34 3937.55,1033.2 3925.08,1013.59 3911.95,995.382 3894.71,974.198 3879.07,956.988 3768.66,846.492 3743.8,846.916 3769.24,846.482 3785.58,827.932 3796.71,814.286 3806.3,801.46 3819.06,783.044 3827.6,769.498 3837.59,752.236 3844.68,738.958 3851.59,724.7 3860.01,705.822 3866.42,689.616 3872.72,671.578 3876.84,658.606 3880.7,644.724 3884.87,627.67 3887.67,614.498 3889.9,602.02 3892.65,583.132 3894.12,570.542 3895.28,556.332 3896.14,538.822 3896.41,526.816 3896.27,513.208 3895.47,494.862 3894.49,481.43 3892.95,467.254 3890.63,450.706 3886.41,427.32 3879.89,400.208 3873.73,379.492 3864.75,353.966 3856.54,334.216 3844.32,308.366 3838.36,297.18 3830.45,283.354 3819.06,264.986 3804.46,244.022 3790.9,226.464 3773.23,205.918 3756.61,188.588 3737.44,170.59 3719.88,155.79 3697.73,138.994 3687.29,131.812 3675.15,124.016 3824.02,124.016 3824.02,272.7 3824.25,273.072 3812.76,255.716 3796.35,233.27 3778.53,211.916 3763.94,195.974 3743.3,175.928 3727.86,162.298 3706.68,145.552 3688.61,132.69 3666.48,118.624 3647.89,108.052 3623.05,95.5957 3602.7,86.7697 3578.93,77.7457 3556.27,70.5717 3541.7,66.5337 3529.39,63.5177 3502.11,58.1857 3486.45,55.7597 3469.92,53.8917 3450.02,52.3477 3432.42,51.7037 3414.11,51.7277 3398.32,52.3297 3376.87,53.9857 3359.38,56.0757 3341.27,58.9397 3325.76,61.9497 3306.4,66.5057 3289.43,71.2097 3271.24,77.0077 3254.91,82.9517 3234.95,91.1037 3218.27,98.8137 2829.73,98.8137 2804.05,87.2637 2792.25,82.6237 2778.18,77.5697 2630.73,-69.8703 2618.72,-81.3883 2603.18,-94.9283 2583.65,-110.35 2566.58,-122.368 2548.2,-133.872 2535.62,-141.09 2523.57,-147.514 2512.04,-153.176 2499.59,-158.776 2486.95,-163.94 2471.17,-169.854 2459.06,-173.92 2445.29,-178.022 2432.15,-181.432 2416.51,-184.958 2403.96,-187.372 2389.77,-189.598 2374.7,-191.386 2357.95,-192.766 2344.49,-193.458 2331.01,-193.688 1613.01,-193.668 1592.98,-192.954 1569.79,-190.968 1550.04,-188.364 1530.45,-184.764 1509.52,-179.768 1487.24,-173.256 1468.39,-166.81 1450.62,-159.732 1431.07,-150.75 1410.46,-139.988 1393.84,-130.312 1376.38,-118.926 1363.38,-109.548 1347.57,-97.1583 1335.96,-87.3603 1324.74,-77.1223 1169.85,77.5697 1155.78,82.6237 1143.98,87.2637 1118.3,98.8137 729.758,98.8137 713.08,91.1037 693.124,82.9517 676.794,77.0077 658.602,71.2097 641.632,66.5057 622.266,61.9497 606.758,58.9397 588.648,56.0757 571.162,53.9857 549.712,52.3297 533.924,51.7277 515.612,51.7037 498.012,52.3477 478.108,53.8917 461.578,55.7597 445.922,58.1857 418.638,63.5177 406.326,66.5337 391.756,70.5717 369.102,77.7457 345.332,86.7697 324.984,95.5957 300.138,108.052 281.546,118.624 259.422,132.69 241.354,145.552 220.172,162.298 204.732,175.928 184.088,195.974 169.496,211.916 151.684,233.27 135.268,255.716 123.782,273.072 124.016,272.7 124.016,124.016 272.876,124.016 256.144,134.912 241.354,145.552 223.222,159.77 207.646,173.244 191.42,188.588 178.038,202.372 161.69,220.986 149.26,236.404 135.268,255.716 125.488,270.364 112.386,292.346 104.07,307.662 96.1097,324.05 85.8997,347.334 79.7177,363.628 72.1217,386.358 66.9317,404.856 61.1377,429.648 57.8837,447.574 54.5057,471.974 52.7457,491.698 51.7217,514.81 51.7217,533.22 52.6037,554.01 54.3577,574.746 57.5577,598.542 60.9577,617.45 65.7437,638.52 71.2017,658.604 78.1237,679.916 84.2097,696.442 91.4557,713.694 155.99,724.474 169.128,726.308 217.042,731.858 303.388,740.666 345.304,745.534 394.044,751.888 466.088,762.518 488.358,764.672 509.758,765.782 529.432,765.962 549.124,765.34 568.13,763.986 592.772,761.108 611.324,758.12 629.192,754.568 648.962,749.862 675.148,742.414 1079.7,742.414 1187.53,697.778 1214.1,695.544 1241.82,691.768 1259.59,688.444 1283.82,682.606 1304.65,676.202 1323.03,669.31 1340.56,661.478 1359.74,651.22 1373.23,642.788 1384.94,634.488 1391.93,629.04 1408.49,614.818 1420.74,604.994 1436.67,593.278 1453.23,582.122 1456.73,562.322 1458.48,546.728 1459.62,530.482 1461.78,514.22 1472.63,500.628 1485.32,488.874 1499.85,478.958 1516.21,470.88 1687.06,400.114 1690.77,400.114 1788.65,359.574 1846.21,302.016 1856.21,293.264 1866.21,287.014 1876.21,283.264 1886.22,282.014 2161.82,282.014 2171.82,283.264 2181.82,287.014 2191.82,293.264 2201.82,302.016 2272.38,372.574 2314.15,473.418 2249.75,577.616 2231.66,602.194 2210.97,621.582 2187.69,635.782 2161.82,644.79 2029.55,676.016 1890.22,676.016 1886.22,680.014 1865.57,703.614 1850.82,727.214 1841.97,750.816 1839.01,774.416 1839.01,813.816 1836.06,837.414 1827.21,861.016 1812.46,884.616 1791.81,908.216 1646.64,1053.41 1676.59,1081.09 1706.53,1105.08 1736.48,1125.38 1766.43,1141.99 1796.37,1154.91 1826.32,1164.13 1856.27,1169.67 1886.22,1171.52 1952.45,1171.52 2161.82,1084.79 2173.21,1078.8 2182.8,1071 2190.6,1061.41 2196.59,1050.01 2252.06,916.1 2256.52,906.006 2264.95,889.256 2274.01,873.714 2280.44,863.648 2295.09,857.442 2308.44,852.524 2325.66,847.212 2337.79,844.068 2586.37,785.394 2615.04,786.66 2635.64,786.608 2644.44,786.34 2673.95,784.364 2703.7,780.696 2726.14,776.804 2735.74,774.852 2760,769.134 2781.51,763.184 3266.6,763.194 3284.75,768.322 3305.46,773.398 3372.66,787.064 3413,795.976 3451.99,805.21 3518.29,822.05 3554.63,829.968 3585.13,835.28 3628.97,840.972 3639.25,842.006 3679.69,845.074 3733.69,846.852 3768.66,846.49 3878.51,956.412 3893.14,972.376 3909.01,991.58 3919.11,1005.04 3929.07,1019.6 3937.96,1033.89 3946.71,1049.28 3954.17,1063.47 3960.71,1077.22 3966.72,1091.22 3972.46,1106.19 3978.18,1122.93 3982.18,1135.96 3986.3,1151.45 3989.47,1165.53 3992.51,1182.09 3995.16,1200.36 3996.8,1215.42 3997.82,1229.73 3998.37,1248.85 3998.29,1406.24 3997.57,1422.29 3996.08,1439.92 3994.39,1454.2 3992.04,1469.18 3987.34,1491.85 3983.88,1505.88 3980.19,1518.94 3972.59,1541.65 3963.4,1564.7 3958.16,1576.35 3952.19,1588.54 3940.22,1610.28 3927.63,1630.63 3914.31,1649.53 3906,1660.24 3895.75,1672.61 3887.28,1682.26 3877.94,1692.2 3666.63,1903.54 3692.61,1914.41 3761.14,1944.59 3824.02,1974.13 3824.02,1746.18 3515.01,2055.13 3497.58,2048.21 3485.59,2043.82 3371.72,2002.78 3338.11,1979.77 3262.98,1927.33 3230.46,1904.09 3200.96,1882.35 3186.87,1872.54 3173.5,1864.25 3160.47,1857.1 3148.81,1851.5 3133.42,1845.28 2926.28,1845.25 2918.86,1829.6 2912.49,1811.98 2909.4,1800.28 2907.73,1791.77 2906.21,1779.89 2905.61,1765.22 2906.13,1754.1 2907.07,1745.59 2910.05,1730.03 2913.65,1717.4 2918.4,1704.57 2922.16,1696.07 2928.9,1682.91 2937.66,1668.44 2949.02,1652.38 2956.58,1642.83 2971.52,1625.82 3021.37,1575.67 3070.12,1555.48 3087.96,1548.66 3116.72,1539.28 3129.75,1535.59 3201.46,1463.85 3232.49,1466.71 3263.97,1468.28 3291.05,1468.37 3304.47,1467.93 3324.27,1466.61 3344.55,1464.34 3355.37,1462.72 3365.19,1460.97 3383.48,1456.95 3393.3,1454.33 3409.21,1449.32 3428.02,1442 3436.56,1438.11 3447.58,1432.47 3461.26,1424.36 3471.14,1417.64 3478.22,1412.28 3489.12,1403.06 3497.37,1395.14 3503.4,1388.74 3510.29,1380.71 3516.78,1372.29 3519.86,1357.55 3521.71,1343.89 3522.65,1328.74 3522.44,1313.79 3521.71,1304.14 3519.86,1290.48 3516.79,1275.74 3510.54,1267.61 3501.44,1257.13 3489.29,1245.13 3478.86,1236.25 3467.58,1227.88 3455.13,1219.89 3440.67,1211.95 3425.37,1204.9 3409.57,1198.81 3290.91,1080.24 3271.28,1072.12 3264.36,1069.61 3254.52,1066.75 3245.78,1064.89 3232.41,1063.23 3203.67,1062.97 3189.43,1055.37 3175.2,1052.83 3072.83,1052.83 3062.83,1054.08 3052.83,1057.83 3042.83,1064.08 3032.83,1072.83 3021.51,1084.15 3023.95,1098.76 3025.32,1114.08 3025.49,1129.68 3024.88,1140.54 3023.65,1151.5 3021.77,1162.66 3016.34,1186.16 3012.58,1207.86 3004.81,1215.36 2995.3,1223.66 2984.74,1231.94 2978.28,1236.57 2961.51,1247.25 2949.91,1253.65 2941.41,1257.88 2923.57,1265.67 2902.64,1273.2 2879.84,1279.69 2871.6,1281.65 2844.89,1286.8 2835.33,1290.77 2828.07,1311.39 2822.78,1324.67 2813.6,1345.19 2804.54,1362.89 2800.48,1370.14 2790.64,1386.36 2784.72,1395.24 2773.46,1410.76 2751.16,1438.82 2733.22,1462.86 2720.15,1481.38 2696.03,1517.21 2689.79,1526 2677.44,1542.33 2669.74,1551.93 2652.84,1571.7 2644.13,1581.29 2621.68,1604.52 2607.85,1617.97 2549.71,1758.36 2505.83,1761.19 2494.48,1762.29 2460.98,1766.53 2450.22,1768.22 2421.79,1773.53 2411.57,1775.76 2388.4,1781.49 2359.27,1790.19 2349.98,1793.34 2324.15,1803.18 2309.8,1809.39 2289.79,1819.07 2270.54,1829.6 2258.15,1837.07 2226.91,1843.33 2198.82,1852.74 2186.68,1857.5 2176.57,1860.98 2159.47,1865.72 2149.21,1867.9 2135.17,1870.08 2120.35,1871.34 2109.62,1871.65 2049.21,1871.65 2028.25,1873.14 2007.29,1877.62 1986.33,1885.08 1965.37,1895.52 1882.66,1895.52 1861.7,1885.08 1840.74,1877.62 1819.78,1873.14 1798.82,1871.65 1649.21,1871.65 1621.8,1874.2 1594.39,1881.86 1598.29,1907.57 1602.24,1925.66 1606.55,1940.05 1611.08,1952.13 1614.6,1962.71 1617.54,1973.18 1620.03,1984.18 1622.81,2002.2 1623.7,2013.01 1624.01,2024.96 1623.51,2038.06 1621.57,2055.24 1619.04,2068.61 1617.12,2076.49 1612.2,2092.74 1604.68,2113.72 1601.63,2124.82 1599.83,2132.8 1586.43,2136.63 1576.92,2138.91 1565.97,2141.03 1555.57,2142.62 1544.86,2143.8 1532.32,2144.56 1517.65,2144.62 1502.33,2143.71 1485.36,2141.58 1474.46,2139.62 1462.86,2136.97 1388.85,2150.02 1379.44,2151.19 1368.9,2151.76 929.52,2151.8 913.342,2157.15 899.504,2160.45 891.218,2161.86 883.064,2162.85 868.862,2163.6 778.454,2163.59 763.864,2162.74 748.04,2160.36 741.862,2156.03 733.928,2149.84 722.48,2139.39 717.038,2133.66 709.076,2124.18 700.25,2111.73 691.846,2097.24 687.996,2089.42 684.136,2080.57 678.786,2066.01 673.794,2048.61 670.942,2035.81 669.038,2025.05 678.37,2019.53 689.846,2013.43 701.19,2008.11 714.628,2002.75 932.662,2002.75 947.712,1996.67 964.734,1988.31 974.682,1982.68 983.186,1977.43 994.972,1969.5 1003.48,1963.3 1017.69,1952.05 1026.19,1944.78 1048.26,1924.01 1026.19,1944.78 1017.69,1952.05 1003.48,1963.3 994.972,1969.5 983.186,1977.43 974.682,1982.68 964.734,1988.31 947.712,1996.67 932.662,2002.75 714.628,2002.75 701.19,2008.11 689.846,2013.43 678.37,2019.53 669.038,2025.05 652.05,2017.55 645.98,2014.46 634.814,2008.02 620.858,1998.4 610.568,1989.87 603.956,1983.64 463.812,1843.49 455.718,1834.66 446.836,1823.42 445.046,1814.98 443.128,1801.92 442.248,1787.7 442.17,1424.43 435.502,1409.22 431.314,1398.1 425.568,1379.35 422.31,1365.06 419.578,1347.02 418.584,1334.45 418.452,1316.65 419.352,1303.2 420.692,1292.38 422.464,1282.2 424.976,1270.99 427.87,1260.5 431.474,1249.48 436.236,1237.02 439.68,1229.02 445.406,1217.03 456.338,1197.27 461.286,1189.27 470.796,1175.09 482.642,1159.15 490.396,1149.5 497.154,1141.5 509.388,1127.88 514.808,1114.81 659.568,1054.91 670.78,1050.85 683.822,1047.12 700.544,1043.88 712.068,1042.62 720.608,1042.25 732.14,1042.23 752.486,1034.61 772.834,1032.07 875.194,1032.07 889.756,1033.37 904.318,1037.28 918.88,1043.78 933.44,1052.88 930.248,1068.35 926.83,1082.57 924.57,1095.23 923.116,1108.07 922.664,1115.29 922.62,1132.01 923.362,1142.87 925.438,1158.29 933.088,1193.21 935.208,1206.16 937.29,1222.68 939.452,1246.8 940.786,1268.27 943.148,1332.6 930.876,1385.42 913.234,1443.6 940.414,1457.98 963.85,1471.7 984.946,1485.22 1037.77,1507.1 1052.61,1512.97 1084.73,1524.03 1119.8,1533.44 1145.94,1538.64 1157.07,1540.41 1174.41,1546 1195.23,1551.87 1206.42,1554.68 1232.75,1560.35 1251.53,1563.49 1269.29,1565.8 1282.16,1567.06 1302.13,1568.36 1321.21,1568.85 1344.59,1568.37 1355.78,1567.77 1379.69,1565.64 1390.88,1564.24 1415.46,1560.26 1426.66,1558.04 1452.27,1552 1476.85,1545.02 2017.87,1545.02 2034.87,1537.43 2063.23,1522.88 2068.34,1519.97 2096.87,1501.86 2102.24,1498.06 2125.07,1480.39 2139.09,1468.01 2149.57,1457.97 2416.26,1191.28 2446.81,1178.62 2504.86,1120.65 2518.37,1108.2 2533.6,1096.01 2549.33,1085.48 2559.53,1079.68 2566.01,1076.44 2574.59,1072.68 2581.07,1070.24 2591.19,1067.08 2605.71,1064.06 2615.26,1063.01 2623.2,1062.68 2874.35,1062.67 2885.8,1058.86 2894.42,1056.61 2903.59,1054.8 2911.75,1053.68 2920.6,1053 2931.24,1052.91 2942.49,1053.68 2950.5,1054.77 2965.88,1058.12 2973.89,1060.53 2986.36,1065.17 2999.6,1071.31 3005.88,1074.64 3021.51,1084.15 3023.95,1098.76 3025.02,1109.27 3025.57,1124.5 3025.25,1135.29 3024.33,1146.15 3022.79,1157.12 3020.59,1168.28 3016.34,1186.16 3012.58,1207.86 3004.81,1215.36 2995.3,1223.66 2984.74,1231.94 2978.28,1236.57 2961.51,1247.25 2949.91,1253.65 2941.41,1257.88 2923.57,1265.67 2916.2,1268.5 2895.71,1275.35 2871.6,1281.65 2844.89,1286.8 2835.33,1290.77 2828.07,1311.39 2822.78,1324.67 2813.6,1345.19 2804.54,1362.89 2800.48,1370.14 2790.64,1386.36 2784.72,1395.24 2773.46,1410.76 2751.16,1438.82 2733.22,1462.86 2720.15,1481.38 2696.03,1517.21 2689.79,1526 2677.44,1542.33 2669.74,1551.93 2652.84,1571.7 2644.13,1581.29 2621.68,1604.52 2607.85,1617.97 2549.71,1758.36 2505.83,1761.19 2494.48,1762.29 2460.98,1766.53 2450.22,1768.22 2421.79,1773.53 2411.57,1775.76 2388.4,1781.49 2359.27,1790.19 2349.98,1793.34 2324.15,1803.18 2309.8,1809.39 2289.79,1819.07 2270.54,1829.6 2258.15,1837.07 2226.91,1843.33 2198.82,1852.74 2186.68,1857.5 2176.57,1860.98 2159.47,1865.72 2149.21,1867.9 2135.17,1870.08 2120.35,1871.34 2109.62,1871.65 2049.21,1871.65 2028.25,1873.14 2007.29,1877.62 1986.33,1885.08 1965.37,1895.52 1882.66,1895.52 1861.7,1885.08 1840.74,1877.62 1819.78,1873.14 1798.82,1871.65 1649.21,1871.65 1621.8,1874.2 1594.39,1881.86 1571.36,1877.38 1555.45,1875.29 1533.7,1873.8 1510.31,1873.96 1496.13,1874.93 1476.63,1877.37 1456.33,1881.26 1436.19,1886.46 1413.53,1893.94 1396.65,1900.62 1373.22,1911.44 1354.97,1921.14 1338.69,1924.01 1048.26,1924.01 1026.85,1903.82 1018.35,1896.53 1004.04,1885.15 995.53,1878.92 983.696,1870.92 965.458,1860.11 949.004,1851.93 932.656,1845.3 714.65,1845.24 698.878,1838.82 687.98,1826.35 677.406,1812.12 672.39,1804.48 667.912,1797.11 661.132,1784.58 652.118,1764.71 646.416,1749.42 642.056,1735.54 643.746,1722.74 646.822,1706.16 651.006,1689.11 656.404,1671.53 663.192,1653.23 671.602,1634.03 674.632,1627.76 685.398,1607.46 699.104,1584.89 711.11,1567.19 730.252,1541.84 753.92,1514 779.31,1487.16 790.394,1480.93 813.344,1467.23 821.34,1462.19 849.578,1443.31 913.234,1443.6 930.876,1385.42 943.148,1332.6 940.786,1268.27 939.452,1246.8 937.29,1222.68 935.208,1206.16 933.088,1193.21 925.438,1158.29 923.362,1142.87 922.62,1132.01 922.664,1115.29 923.116,1108.07 924.57,1095.23 926.83,1082.57 930.248,1068.35 933.44,1052.88 948.134,1046.49 961.726,1041.61 974.304,1037.99 991.938,1034.37 1003.92,1032.88 1011.13,1032.36 1022.99,1032.11 1035.64,1032.7 1053,1034.9 1065.47,1037.51 1079.61,1041.49 1094.43,1046.83 1110.16,1053.8 1117.37,1057.44 1134.27,1067.1 1145.45,1074.34 1162.9,1086.95 1176.57,1092.49 1195.47,1099.05 1216.81,1104.91 1241.48,1109.96 1256.28,1112.26 1313.08,1086.32 1334.74,1077.37 1346.25,1073.04 1367.17,1065.84 1389.96,1059.03 1413.61,1052.96 1440.21,1047.19 1463.6,1042.97 1491.7,1052.79 1516.21,1053.41 1646.64,1053.41" style="stroke:rgb(33,1,197);stroke-width:787.401575;fill:none;stroke-opacity:0.5;stroke-linecap:round;stroke-linejoin:round;;fill:none"/>
<polyline points="91.4557,713.694 52.1997,753.156 39.7197,766.98 29.4357,779.196 18.7077,793.104 8.60975,807.474 -3.06425,825.67 -13.0103,842.95 -22.0683,860.71 -31.5263,881.914 -38.3023,898.958 -44.5203,917.06 -49.8503,935.442 -55.2643,958.078 -58.8403,977.016 -61.4863,996.108 -63.6703,1021.67 -64.3843,1043.85 -64.3683,1863.29 -63.9903,1876.97 -63.1163,1891.44 -60.6783,1915.27 -56.6423,1939.69 -53.4743,1954.64 -50.4363,1967.16 -46.9903,1979.57 -42.8863,1992.63 -37.5403,2007.81 -32.9043,2019.73 -22.8303,2042.38 -15.9983,2056.07 -9.48425,2068.11 -2.55625,2079.92 3.89575,2090.13 12.4497,2102.85 20.4577,2113.95 28.3417,2124.14 36.5557,2134.06 46.1397,2144.98 55.4857,2154.98 422.358,2521.92 440.556,2539 456.426,2552.49 472.912,2565.1 493.45,2579.04 510.44,2589.47 528.646,2599.4 545.896,2607.69 567.256,2616.79 586.868,2624.02 124.016,2624.02 124.016,2223.58 424.646,2524.19 434.568,2533.62 446.016,2543.78 455.806,2551.99 465.856,2559.87 476.158,2567.43 488.034,2575.52 502.22,2584.57 515.986,2592.63 528.646,2599.4 540.822,2605.36 568.738,2617.38 581.436,2622.13 594.29,2626.45 607.284,2630.31 620.404,2633.73 635.308,2637.19 650.288,2640.1 665.368,2642.42 679.728,2644.09 702.086,2645.78 721.942,2646.31 1671.27,2646.14 1692.88,2645.5 1715.22,2643.58 1733.46,2641.06 1754.8,2637.12 1772.8,2632.96 1791.35,2627.73 1812.69,2620.51 1829.93,2613.87 1847.56,2606.09 1865.5,2597.07 1883.78,2586.88 1900.14,2576.7 1916.64,2565.26 1933.25,2552.55 1945.59,2542.3 1957.5,2531.56 1996.45,2492.9 2019.64,2495.34 2042.81,2496.4 2202.82,2496.44 2218.81,2495.95 2234.77,2494.81 2249.88,2493.13 2266.05,2490.67 2285.69,2495.75 2304.59,2499.68 2327.61,2503.22 2347.65,2505.35 2360.51,2506.17 2375.01,2506.58 2462.35,2506.62 2456.03,2624.02 3711.92,2624.02 3733.17,2597.62 3750,2575.24 3770,2546.29 3780.9,2529.36 3790.54,2513.69 3807.18,2484.5 3824.02,2451.95 3824.02,2414.94 3772.18,2387.61 3669.24,2336.4 3600.08,2303.89 3534.95,2275.16 3524.01,2270.51 3481.72,2253.72 3488.09,2237.67 3493.63,2221.81 3499.05,2204.09 3503.35,2187.85 3507.65,2168.19 3510.5,2152.45 3512.79,2135.81 3514.89,2114.99 3515.74,2099.81 3516.1,2082.79 3515.99,2069.99 3515.36,2055.27 3497.58,2048.21 3515.36,2055.27 3515.93,2067.59 3516.11,2080.39 3515.32,2108.6 3514.21,2122.96 3512.61,2137.39 3509.01,2161.12 3504.63,2182.4 3499.92,2201.01 3493.63,2221.81 3486.67,2241.41 3478.26,2261.92 3469.82,2280.05 3458.96,2300.7 3448.37,2318.6 3437.82,2334.79 3428.08,2348.48 3414.45,2365.97 3403.04,2379.37 3388.77,2394.68 3376.27,2407.06 3360.13,2421.6 3346.59,2432.85 3329.24,2445.92 3315.44,2455.5 3297.02,2467.03 3281.75,2475.78 3266.11,2483.83 3246.01,2493.21 3230.47,2499.58 3210.81,2506.75 3189.4,2513.35 3174.93,2517.2 3161.69,2520.28 3135.6,2525.07 3113.38,2527.93 3093.36,2529.54 3075.86,2530.22 2976.4,2530.29 2961.14,2529.85 2945.11,2528.74 2925.05,2526.78 2906.05,2524.06 2889.54,2520.92 2869.84,2516.38 2853.63,2511.95 2837.19,2506.68 2367.76,2506.44 2355.68,2505.91 2342.02,2504.86 2329.21,2503.43 2314.1,2501.29 2290.4,2496.82 2266.05,2490.67 2253.05,2492.7 2238.75,2494.43 2225.2,2495.57 2210.82,2496.27 2068.66,2496.46 2061.74,2624.02 1802.75,2624.02 1817.97,2618.58 1829.93,2613.87 1842.46,2608.45 1854.07,2602.95 1866.2,2596.69 1881.7,2588.1 1893.38,2581.04 1904.82,2573.58 1916.64,2565.26 1928.83,2556.02 1938.85,2548 1948.61,2539.66 1963.29,2526.01 1996.45,2492.9 2019.64,2495.34 2042.81,2496.4 2202.82,2496.44 2218.81,2495.95 2234.77,2494.81 2249.88,2493.13 2266.05,2490.67 2269.38,2423.58 2267.04,2363.02 2265.2,2323.84 2260.8,2245.62 2259.06,2221.2 2256.15,2187.7 2254.04,2168.87 2251.74,2152.23 2249.47,2138.96 2247.45,2129.17 2244.47,2117.42 2242.52,2111.05 2237.46,2097.28 2233.09,2084.19 2229.49,2070.75 2227.02,2058.6 2225.31,2046.65 2224.32,2034.7 2224.04,2022.13 2224.43,2011.4 2226.35,1993.51 2228.3,1982.68 2230.68,1972.44 2235.08,1957.53 2243.84,1932.72 2246.4,1923.23 2250.01,1906.04 2253.41,1883.88 2255.44,1866.83 2258.15,1837.07 2270.54,1829.6 2282.38,1822.97 2289.79,1819.07 2309.8,1809.39 2332.21,1799.92 2359.27,1790.19 2388.4,1781.49 2411.57,1775.76 2421.79,1773.53 2450.22,1768.22 2460.98,1766.53 2494.48,1762.29 2505.83,1761.19 2549.71,1758.36 2563.46,1789.84 2690.28,1916.65 2706.66,1932.01 2711.52,1936.28 2733.16,1953.53 2747.47,1963.39 2764.87,1973.71 2782.66,1982.35 2801.87,1990.31 2817.3,1995.65 2826.33,1998.04 2840.49,2000.77 2852.94,2002.11 2862.77,2002.5 2914.73,2002.5 2915.38,2002.74 2921.95,2002.77 3371.72,2002.78 3485.59,2043.82 3497.58,2048.21 3515.01,2055.13 3875.13,1695.07 3889.96,1679.27 3905.5,1660.86 3913.35,1650.81 3920.88,1640.5 3927.63,1630.63 3934.92,1619.19 3949.23,1594.2 3955.4,1582.11 3960.83,1570.54 3965.87,1558.81 3971.47,1544.64 3975.54,1533.38 3979.72,1520.47 3983.88,1505.88 3987.34,1491.85 3990.26,1478.6 3992.45,1466.82 3994.6,1452.61 3996.23,1438.33 3997.57,1422.29 3998.29,1406.24 3998.36,1247.26 3997.74,1228.14 3996.18,1209.07 3993.25,1186.84 3989.95,1167.89 3985.13,1146.79 3978.68,1124.46 3969.95,1099.42 3960.71,1077.22 3950.51,1056.34 3937.55,1033.2 3925.08,1013.59 3911.95,995.382 3894.71,974.198 3879.07,956.988 3768.66,846.492 3743.8,846.916 3769.24,846.482 3785.58,827.932 3796.71,814.286 3806.3,801.46 3819.06,783.044 3827.6,769.498 3837.59,752.236 3844.68,738.958 3851.59,724.7 3860.01,705.822 3866.42,689.616 3872.72,671.578 3876.84,658.606 3880.7,644.724 3884.87,627.67 3887.67,614.498 3889.9,602.02 3892.65,583.132 3894.12,570.542 3895.28,556.332 3896.14,538.822 3896.41,526.816 3896.27,513.208 3895.47,494.862 3894.49,481.43 3892.95,467.254 3890.63,450.706 3886.41,427.32 3879.89,400.208 3873.73,379.492 3864.75,353.966 3856.54,334.216 3844.32,308.366 3838.36,297.18 3830.45,283.354 3819.06,264.986 3804.46,244.022 3790.9,226.464 3773.23,205.918 3756.61,188.588 3737.44,170.59 3719.88,155.79 3697.73,138.994 3687.29,131.812 3675.15,124.016 3824.02,124.016 3824.02,272.7 3824.25,273.072 3812.76,255.716 3796.35,233.27 3778.53,211.916 3763.94,195.974 3743.3,175.928 3727.86,162.298 3706.68,145.552 3688.61,132.69 3666.48,118.624 3647.89,108.052 3623.05,95.5957 3602.7,86.7697 3578.93,77.7457 3556.27,70.5717 3541.7,66.5337 3529.39,63.5177 3502.11,58.1857 3486.45,55.7597 3469.92,53.8917 3450.02,52.3477 3432.42,51.7037 3414.11,51.7277 3398.32,52.3297 3376.87,53.9857 3359.38,56.0757 3341.27,58.9397 3325.76,61.9497 3306.4,66.5057 3289.43,71.2097 3271.24,77.0077 3254.91,82.9517 3234.95,91.1037 3218.27,98.8137 2829.73,98.8137 2804.05,87.2637 2792.25,82.6237 2778.18,77.5697 2630.73,-69.8703 2618.72,-81.3883 2603.18,-94.9283 2583.65,-110.35 2566.58,-122.368 2548.2,-133.872 2535.62,-141.09 2523.57,-147.514 2512.04,-153.176 2499.59,-158.776 2486.95,-163.94 2471.17,-169.854 2459.06,-173.92 2445.29,-178.022 2432.15,-181.432 2416.51,-184.958 2403.96,-187.372 2389.77,-189.598 2374.7,-191.386 2357.95,-192.766 2344.49,-193.458 2331.01,-193.688 1613.01,-193.668 1592.98,-192.954 1569.79,-190.968 1550.04,-188.364 1530.45,-184.764 1509.52,-179.768 1487.24,-173.256 1468.39,-166.81 1450.62,-159.732 1431.07,-150.75 1410.46,-139.988 1393.84,-130.312 1376.38,-118.926 1363.38,-109.548 1347.57,-97.1583 1335.96,-87.3603 1324.74,-77.1223 1169.85,77.5697 1155.78,82.6237 1143.98,87.2637 1118.3,98.8137 729.758,98.8137 713.08,91.1037 693.124,82.9517 676.794,77.0077 658.602,71.2097 641.632,66.5057 622.266,61.9497 606.758,58.9397 588.648,56.0757 571.162,53.9857 549.712,52.3297 533.924,51.7277 515.612,51.7037 498.012,52.3477 478.108,53.8917 461.578,55.7597 445.922,58.1857 418.638,63.5177 406.326,66.5337 391.756,70.5717 369.102,77.7457 345.332,86.7697 324.984,95.5957 300.138,108.052 281.546,118.624 259.422,132.69 241.354,145.552 220.172,162.298 204.732,175.928 184.088,195.974 169.496,211.916 151.684,233.27 135.268,255.716 123.782,273.072 124.016,272.7 124.016,124.016 272.876,124.016 256.144,134.912 241.354,145.552 223.222,159.77 207.646,173.244 191.42,188.588 178.038,202.372 161.69,220.986 149.26,236.404 135.268,255.716 125.488,270.364 112.386,292.346 104.07,307.662 96.1097,324.05 85.8997,347.334 79.7177,363.628 72.1217,386.358 66.9317,404.856 61.1377,429.648 57.8837,447.574 54.5057,471.974 52.7457,491.698 51.7217,514.81 51.7217,533.22 52.6037,554.01 54.3577,574.746 57.5577,598.542 60.9577,617.45 65.7437,638.52 71.2017,658.604 78.1237,679.916 84.2097,696.442 91.4557,713.694 155.99,724.474 169.128,726.308 217.042,731.858 303.388,740.666 345.304,745.534 394.044,751.888 466.088,762.518 488.358,764.672 509.758,765.782 529.432,765.962 549.124,765.34 568.13,763.986 592.772,761.108 611.324,758.12 629.192,754.568 648.962,749.862 675.148,742.414 1079.7,742.414 1187.53,697.778 1214.1,695.544 1241.82,691.768 1259.59,688.444 1283.82,682.606 1304.65,676.202 1323.03,669.31 1340.56,661.478 1359.74,651.22 1373.23,642.788 1384.94,634.488 1391.93,629.04 1408.49,614.818 1420.74,604.994 1436.67,593.278 1453.23,582.122 1456.73,562.322 1458.48,546.728 1459.62,530.482 1461.78,514.22 1472.63,500.628 1485.32,488.874 1499.85,478.958 1516.21,470.88 1687.06,400.114 1690.77,400.114 1788.65,359.574 1846.21,302.016 1856.21,293.264 1866.21,287.014 1876.21,283.264 1886.22,282.014 2161.82,282.014 2171.82,283.264 2181.82,287.014 2191.82,293.264 2201.82,302.016 2272.38,372.574 2314.15,473.418 2249.75,577.616 2231.66,602.194 2210.97,621.582 2187.69,635.782 2161.82,644.79 2029.55,676.016 1890.22,676.016 1886.22,680.014 1865.57,703.614 1850.82,727.214 1841.97,750.816 1839.01,774.416 1839.01,813.816 1836.06,837.414 1827.21,861.016 1812.46,884.616 1791.81,908.216 1646.64,1053.41 1676.59,1081.09 1706.53,1105.08 1736.48,1125.38 1766.43,1141.99 1796.37,1154.91 1826.32,1164.13 1856.27,1169.67 1886.22,1171.52 1952.45,1171.52 2161.82,1084.79 2173.21,1078.8 2182.8,1071 2190.6,1061.41 2196.59,1050.01 2252.06,916.1 2256.52,906.006 2264.95,889.256 2274.01,873.714 2280.44,863.648 2295.09,857.442 2308.44,852.524 2325.66,847.212 2337.79,844.068 2586.37,785.394 2615.04,786.66 2635.64,786.608 2644.44,786.34 2673.95,784.364 2703.7,780.696 2726.14,776.804 2735.74,774.852 2760,769.134 2781.51,763.184 3266.6,763.194 3284.75,768.322 3305.46,773.398 3372.66,787.064 3413,795.976 3451.99,805.21 3518.29,822.05 3554.63,829.968 3585.13,835.28 3628.97,840.972 3639.25,842.006 3679.69,845.074 3733.69,846.852 3768.66,846.49 3878.51,956.412 3893.14,972.376 3909.01,991.58 3919.11,1005.04 3929.07,1019.6 3937.96,1033.89 3946.71,1049.28 3954.17,1063.47 3960.71,1077.22 3966.72,1091.22 3972.46,1106.19 3978.18,1122.93 3982.18,1135.96 3986.3,1151.45 3989.47,1165.53 3992.51,1182.09 3995.16,1200.36 3996.8,1215.42 3997.82,1229.73 3998.37,1248.85 3998.29,1406.24 3997.57,1422.29 3996.08,1439.92 3994.39,1454.2 3992.04,1469.18 3987.34,1491.85 3983.88,1505.88 3980.19,1518.94 3972.59,1541.65 3963.4,1564.7 3958.16,1576.35 3952.19,1588.54 3940.22,1610.28 3927.63,1630.63 3914.31,1649.53 3906,1660.24 3895.75,1672.61 3887.28,1682.26 3877.94,1692.2 3666.63,1903.54 3692.61,1914.41 3761.14,1944.59 3824.02,1974.13 3824.02,1746.18 3515.01,2055.13 3497.58,2048.21 3485.59,2043.82 3371.72,2002.78 3338.11,1979.77 3262.98,1927.33 3230.46,1904.09 3200.96,1882.35 3186.87,1872.54 3173.5,1864.25 3160.47,1857.1 3148.81,1851.5 3133.42,1845.28 2926.28,1845.25 2918.86,1829.6 2912.49,1811.98 2909.4,1800.28 2907.73,1791.77 2906.21,1779.89 2905.61,1765.22 2906.13,1754.1 2907.07,1745.59 2910.05,1730.03 2913.65,1717.4 2918.4,1704.57 2922.16,1696.07 2928.9,1682.91 2937.66,1668.44 2949.02,1652.38 2956.58,1642.83 2971.52,1625.82 3021.37,1575.67 3070.12,1555.48 3087.96,1548.66 3116.72,1539.28 3129.75,1535.59 3201.46,1463.85 3232.49,1466.71 3263.97,1468.28 3291.05,1468.37 3304.47,1467.93 3324.27,1466.61 3344.55,1464.34 3355.37,1462.72 3365.19,1460.97 3383.48,1456.95 3393.3,1454.33 3409.21,1449.32 3428.02,1442 3436.56,1438.11 3447.58,1432.47 3461.26,1424.36 3471.14,1417.64 3478.22,1412.28 3489.12,1403.06 3497.37,1395.14 3503.4,1388.74 3510.29,1380.71 3516.78,1372.29 3519.86,1357.55 3521.71,1343.89 3522.65,1328.74 3522.44,1313.79 3521.71,1304.14 3519.86,1290.48 3516.79,1275.74 3510.54,1267.61 3501.44,1257.13 3489.29,1245.13 3478.86,1236.25 3467.58,1227.88 3455.13,1219.89 3440.67,1211.95 3425.37,1204.9 3409.57,1198.81 3290.91,1080.24 3271.28,1072.12 3264.36,1069.61 3254.52,1066.75 3245.78,1064.89 3232.41,1063.23 3203.67,1062.97 3189.43,1055.37 3175.2,1052.83 3072.83,1052.83 3062.83,1054.08 3052.83,1057.83 3042.83,1064.08 3032.83,1072.83 3021.51,1084.15 3023.95,1098.76 3025.32,1114.08 3025.49,1129.68 3024.88,1140.54 3023.65,1151.5 3021.77,1162.66 3016.34,1186.16 3012.58,1207.86 3004.81,1215.36 2995.3,1223.66 2984.74,1231.94 2978.28,1236.57 2961.51,1247.25 2949.91,1253.65 2941.41,1257.88 2923.57,1265.67 2902.64,1273.2 2879.84,1279.69 2871.6,1281.65 2844.89,1286.8 2835.33,1290.77 2828.07,1311.39 2822.78,1324.67 2813.6,1345.19 2804.54,1362.89 2800.48,1370.14 2790.64,1386.36 2784.72,1395.24 2773.46,1410.76 2751.16,1438.82 2733.22,1462.86 2720.15,1481.38 2696.03,1517.21 2689.79,1526 2677.44,1542.33 2669.74,1551.93 2652.84,1571.7 2644.13,1581.29 2621.68,1604.52 2607.85,1617.97 2549.71,1758.36 2505.83,1761.19 2494.48,1762.29 2460.98,1766.53 2450.22,1768.22 2421.79,1773.53 2411.57,1775.76 2388.4,1781.49 2359.27,1790.19 2349.98,1793.34 2324.15,1803.18 2309.8,1809.39 2289.79,1819.07 2270.54,1829.6 2258.15,1837.07 2226.91,1843.33 2198.82,1852.74 2186.68,1857.5 2176.57,1860.98 2159.47,1865.72 2149.21,1867.9 2135.17,1870.08 2120.35,1871.34 2109.62,1871.65 2049.21,1871.65 2028.25,1873.14 2007.29,1877.62 1986.33,1885.08 1965.37,1895.52 1882.66,1895.52 1861.7,1885.08 1840.74,1877.62 1819.78,1873.14 1798.82,1871.65 1649.21,1871.65 1621.8,1874.2 1594.39,1881.86 1598.29,1907.57 1602.24,1925.66 1606.55,1940.05 1611.08,1952.13 1614.6,1962.71 1617.54,1973.18 1620.03,1984.18 1622.81,2002.2 1623.7,2013.01 1624.01,2024.96 1623.51,2038.06 1621.57,2055.24 1619.04,2068.61 1617.12,2076.49 1612.2,2092.74 1604.68,2113.72 1601.63,2124.82 1599.83,2132.8 1586.43,2136.63 1576.92,2138.91 1565.97,2141.03 1555.57,2142.62 1544.86,2143.8 1532.32,2144.56 1517.65,2144.62 1502.33,2143.71 1485.36,2141.58 1474.46,2139.62 1462.86,2136.97 1388.85,2150.02 1379.44,2151.19 1368.9,2151.76 929.52,2151.8 913.342,2157.15 899.504,2160.45 891.218,2161.86 883.064,2162.85 868.862,2163.6 778.454,2163.59 763.864,2162.74 748.04,2160.36 741.862,2156.03 733.928,2149.84 722.48,2139.39 717.038,2133.66 709.076,2124.18 700.25,2111.73 691.846,2097.24 687.996,2089.42 684.136,2080.57 678.786,2066.01 673.794,2048.61 670.942,2035.81 669.038,2025.05 678.37,2019.53 689.846,2013.43 701.19,2008.11 714.628,2002.75 932.662,2002.75 947.712,1996.67 964.734,1988.31 974.682,1982.68 983.186,1977.43 994.972,1969.5 1003.48,1963.3 1017.69,1952.05 1026.19,1944.78 1048.26,1924.01 1026.19,1944.78 1017.69,1952.05 1003.48,1963.3 994.972,1969.5 983.186,1977.43 974.682,1982.68 964.734,1988.31 947.712,1996.67 932.662,2002.75 714.628,2002.75 701.19,2008.11 689.846,2013.43 678.37,2019.53 669.038,2025.05 652.05,2017.55 645.98,2014.46 634.814,2008.02 620.858,1998.4 610.568,1989.87 603.956,1983.64 463.812,1843.49 455.718,1834.66 446.836,1823.42 445.046,1814.98 443.128,1801.92 442.248,1787.7 442.17,1424.43 435.502,1409.22 431.314,1398.1 425.568,1379.35 422.31,1365.06 419.578,1347.02 418.584,1334.45 418.452,1316.65 419.352,1303.2 420.692,1292.38 422.464,1282.2 424.976,1270.99 427.87,1260.5 431.474,1249.48 436.236,1237.02 439.68,1229.02 445.406,1217.03 456.338,1197.27 461.286,1189.27 470.796,1175.09 482.642,1159.15 490.396,1149.5 497.154,1141.5 509.388,1127.88 514.808,1114.81 659.568,1054.91 670.78,1050.85 683.822,1047.12 700.544,1043.88 712.068,1042.62 720.608,1042.25 732.14,1042.23 752.486,1034.61 772.834,1032.07 875.194,1032.07 889.756,1033.37 904.318,1037.28 918.88,1043.78 933.44,1052.88 930.248,1068.35 926.83,1082.57 924.57,1095.23 923.116,1108.07 922.664,1115.29 922.62,1132.01 923.362,1142.87 925.438,1158.29 933.088,1193.21 935.208,1206.16 937.29,1222.68 939.452,1246.8 940.786,1268.27 943.148,1332.6 930.876,1385.42 913.234,1443.6 940.414,1457.98 963.85,1471.7 984.946,1485.22 1037.77,1507.1 1052.61,1512.97 1084.73,1524.03 1119.8,1533.44 1145.94,1538.64 1157.07,1540.41 1174.41,1546 1195.23,1551.87 1206.42,1554.68 1232.75,1560.35 1251.53,1563.49 1269.29,1565.8 1282.16,1567.06 1302.13,1568.36 1321.21,1568.85 1344.59,1568.37 1355.78,1567.77 1379.69,1565.64 1390.88,1564.24 1415.46,1560.26 1426.66,1558.04 1452.27,1552 1476.85,1545.02 2017.87,1545.02 2034.87,1537.43 2063.23,1522.88 2068.34,1519.97 2096.87,1501.86 2102.24,1498.06 2125.07,1480.39 2139.09,1468.01 2149.57,1457.97 2416.26,1191.28 2446.81,1178.62 2504.86,1120.65 2518.37,1108.2 2533.6,1096.01 2549.33,1085.48 2559.53,1079.68 2566.01,1076.44 2574.59,1072.68 2581.07,1070.24 2591.19,1067.08 2605.71,1064.06 2615.26,1063.01 2623.2,1062.68 2874.35,1062.67 2885.8,1058.86 2894.42,1056.61 2903.59,1054.8 2911.75,1053.68 2920.6,1053 2931.24,1052.91 2942.49,1053.68 2950.5,1054.77 2965.88,1058.12 2973.89,1060.53 2986.36,1065.17 2999.6,1071.31 3005.88,1074.64 3021.51,1084.15 3023.95,1098.76 3025.02,1109.27 3025.57,1124.5 3025.25,1135.29 3024.33,1146.15 3022.79,1157.12 3020.59,1168.28 3016.34,1186.16 3012.58,1207.86 3004.81,1215.36 2995.3,1223.66 2984.74,1231.94 2978.28,1236.57 2961.51,1247.25 2949.91,1253.65 2941.41,1257.88 2923.57,1265.67 2916.2,1268.5 2895.71,1275.35 2871.6,1281.65 2844.89,1286.8 2835.33,1290.77 2828.07,1311.39 2822.78,1324.67 2813.6,1345.19 2804.54,1362.89 2800.48,1370.14 2790.64,1386.36 2784.72,1395.24 2773.46,1410.76 2751.16,1438.82 2733.22,1462.86 2720.15,1481.38 2696.03,1517.21 2689.79,1526 2677.44,1542.33 2669.74,1551.93 2652.84,1571.7 2644.13,1581.29 2621.68,1604.52 2607.85,1617.97 2549.71,1758.36 2505.83,1761.19 2494.48,1762.29 2460.98,1766.53 2450.22,1768.22 2421.79,1773.53 2411.57,1775.76 2388.4,1781.49 2359.27,1790.19 2349.98,1793.34 2324.15,1803.18 2309.8,1809.39 2289.79,1819.07 2270.54,1829.6 2258.15,1837.07 2226.91,1843.33 2198.82,1852.74 2186.68,1857.5 2176.57,1860.98 2159.47,1865.72 2149.21,1867.9 2135.17,1870.08 2120.35,1871.34 2109.62,1871.65 2049.21,1871.65 2028.25,1873.14 2007.29,1877.62 1986.33,1885.08 1965.37,1895.52 1882.66,1895.52 1861.7,1885.08 1840.74,1877.62 1819.78,1873.14 1798.82,1871.65 1649.21,1871.65 1621.8,1874.2 1594.39,1881.86 1571.36,1877.38 1555.45,1875.29 1533.7,1873.8 1510.31,1873.96 1496.13,1874.93 1476.63,1877.37 1456.33,1881.26 1436.19,1886.46 1413.53,1893.94 1396.65,1900.62 1373.22,1911.44 1354.97,1921.14 1338.69,1924.01 1048.26,1924.01 1026.85,1903.82 1018.35,1896.53 1004.04,1885.15 995.53,1878.92 983.696,1870.92 965.458,1860.11 949.004,1851.93 932.656,1845.3 714.65,1845.24 698.878,1838.82 687.98,1826.35 677.406,1812.12 672.39,1804.48 667.912,1797.11 661.132,1784.58 652.118,1764.71 646.416,1749.42 642.056,1735.54 643.746,1722.74 646.822,1706.16 651.006,1689.11 656.404,1671.53 663.192,1653.23 671.602,1634.03 674.632,1627.76 685.398,1607.46 699.104,1584.89 711.11,1567.19 730.252,1541.84 753.92,1514 779.31,1487.16 790.394,1480.93 813.344,1467.23 821.34,1462.19 849.578,1443.31 913.234,1443.6 930.876,1385.42 943.148,1332.6 940.786,1268.27 939.452,1246.8 937.29,1222.68 935.208,1206.16 933.088,1193.21 925.438,1158.29 923.362,1142.87 922.62,1132.01 922.664,1115.29 923.116,1108.07 924.57,1095.23 926.83,1082.57 930.248,1068.35 933.44,1052.88 948.134,1046.49 961.726,1041.61 974.304,1037.99 991.938,1034.37 1003.92,1032.88 1011.13,1032.36 1022.99,1032.11 1035.64,1032.7 1053,1034.9 1065.47,1037.51 1079.61,1041.49 1094.43,1046.83 1110.16,1053.8 1117.37,1057.44 1134.27,1067.1 1145.45,1074.34 1162.9,1086.95 1176.57,1092.49 1195.47,1099.05 1216.81,1104.91 1241.48,1109.96 1256.28,1112.26 1313.08,1086.32 1334.74,1077.37 1346.25,1073.04 1367.17,1065.84 1389.96,1059.03 1413.61,1052.96 1440.21,1047.19 1463.6,1042.97 1491.7,1052.79 1516.21,1053.41 1646.64,1053.41" style="stroke:rgb(0,0,0);stroke-width:1px;fill:none;stroke-opacity:1;stroke-linecap:round;stroke-linejoin:round;;fill:none"/>
</svg>
