G04 #@! TF.GenerationSoftware,KiCad,Pcbnew,9.0.2+1*
G04 #@! TF.CreationDate,2025-06-17T22:05:04-07:00*
G04 #@! TF.ProjectId,NanoV3.3,4e616e6f-5633-42e3-932e-6b696361645f,rev?*
G04 #@! TF.SameCoordinates,PX8eeaea0PY59a0560*
G04 #@! TF.FileFunction,Copper,L2,Bot*
G04 #@! TF.FilePolarity,Positive*
%FSLAX46Y46*%
G04 Gerber Fmt 4.6, Leading zero omitted, Abs format (unit mm)*
G04 Created by KiCad (PCBNEW 9.0.2+1) date 2025-06-17 22:05:04*
%MOMM*%
%LPD*%
G01*
G04 APERTURE LIST*
G04 Aperture macros list*
%AMRoundRect*
0 Rectangle with rounded corners*
0 $1 Rounding radius*
0 $2 $3 $4 $5 $6 $7 $8 $9 X,Y pos of 4 corners*
0 Add a 4 corners polygon primitive as box body*
4,1,4,$2,$3,$4,$5,$6,$7,$8,$9,$2,$3,0*
0 Add four circle primitives for the rounded corners*
1,1,$1+$1,$2,$3*
1,1,$1+$1,$4,$5*
1,1,$1+$1,$6,$7*
1,1,$1+$1,$8,$9*
0 Add four rect primitives between the rounded corners*
20,1,$1+$1,$2,$3,$4,$5,0*
20,1,$1+$1,$4,$5,$6,$7,0*
20,1,$1+$1,$6,$7,$8,$9,0*
20,1,$1+$1,$8,$9,$2,$3,0*%
%AMOutline5P*
0 Free polygon, 5 corners , with rotation*
0 The origin of the aperture is its center*
0 number of corners: always 5*
0 $1 to $10 corner X, Y*
0 $11 Rotation angle, in degrees counterclockwise*
0 create outline with 5 corners*
4,1,5,$1,$2,$3,$4,$5,$6,$7,$8,$9,$10,$1,$2,$11*%
%AMOutline6P*
0 Free polygon, 6 corners , with rotation*
0 The origin of the aperture is its center*
0 number of corners: always 6*
0 $1 to $12 corner X, Y*
0 $13 Rotation angle, in degrees counterclockwise*
0 create outline with 6 corners*
4,1,6,$1,$2,$3,$4,$5,$6,$7,$8,$9,$10,$11,$12,$1,$2,$13*%
%AMOutline7P*
0 Free polygon, 7 corners , with rotation*
0 The origin of the aperture is its center*
0 number of corners: always 7*
0 $1 to $14 corner X, Y*
0 $15 Rotation angle, in degrees counterclockwise*
0 create outline with 7 corners*
4,1,7,$1,$2,$3,$4,$5,$6,$7,$8,$9,$10,$11,$12,$13,$14,$1,$2,$15*%
%AMOutline8P*
0 Free polygon, 8 corners , with rotation*
0 The origin of the aperture is its center*
0 number of corners: always 8*
0 $1 to $16 corner X, Y*
0 $17 Rotation angle, in degrees counterclockwise*
0 create outline with 8 corners*
4,1,8,$1,$2,$3,$4,$5,$6,$7,$8,$9,$10,$11,$12,$13,$14,$15,$16,$1,$2,$17*%
G04 Aperture macros list end*
G04 #@! TA.AperFunction,SMDPad,CuDef*
%ADD10RoundRect,0.359360X0.089840X-0.190640X0.089840X0.190640X-0.089840X0.190640X-0.089840X-0.190640X0*%
G04 #@! TD*
G04 #@! TA.AperFunction,SMDPad,CuDef*
%ADD11RoundRect,0.359360X-0.089840X0.190640X-0.089840X-0.190640X0.089840X-0.190640X0.089840X0.190640X0*%
G04 #@! TD*
G04 #@! TA.AperFunction,SMDPad,CuDef*
%ADD12RoundRect,0.076200X-0.248800X0.173800X-0.248800X-0.173800X0.248800X-0.173800X0.248800X0.173800X0*%
G04 #@! TD*
G04 #@! TA.AperFunction,SMDPad,CuDef*
%ADD13RoundRect,0.076200X0.248800X-0.173800X0.248800X0.173800X-0.248800X0.173800X-0.248800X-0.173800X0*%
G04 #@! TD*
G04 #@! TA.AperFunction,ComponentPad*
%ADD14C,1.778000*%
G04 #@! TD*
G04 #@! TA.AperFunction,ComponentPad*
%ADD15R,1.778000X1.778000*%
G04 #@! TD*
G04 #@! TA.AperFunction,ComponentPad*
%ADD16Outline8P,-0.775000X0.321016X-0.321016X0.775000X0.321016X0.775000X0.775000X0.321016X0.775000X-0.321016X0.321016X-0.775000X-0.321016X-0.775000X-0.775000X-0.321016X90.000000*%
G04 #@! TD*
G04 #@! TA.AperFunction,SMDPad,CuDef*
%ADD17RoundRect,0.190500X0.000010X0.825500X-0.000010X0.825500X-0.000010X-0.825500X0.000010X-0.825500X0*%
G04 #@! TD*
G04 #@! TA.AperFunction,SMDPad,CuDef*
%ADD18RoundRect,0.142500X-0.332500X-0.357500X0.332500X-0.357500X0.332500X0.357500X-0.332500X0.357500X0*%
G04 #@! TD*
G04 #@! TA.AperFunction,SMDPad,CuDef*
%ADD19RoundRect,0.167640X-0.391160X-0.721360X0.391160X-0.721360X0.391160X0.721360X-0.391160X0.721360X0*%
G04 #@! TD*
G04 #@! TA.AperFunction,SMDPad,CuDef*
%ADD20RoundRect,0.167640X0.721360X-0.391160X0.721360X0.391160X-0.721360X0.391160X-0.721360X-0.391160X0*%
G04 #@! TD*
G04 #@! TA.AperFunction,SMDPad,CuDef*
%ADD21RoundRect,0.330000X-0.770000X1.470000X-0.770000X-1.470000X0.770000X-1.470000X0.770000X1.470000X0*%
G04 #@! TD*
G04 #@! TA.AperFunction,SMDPad,CuDef*
%ADD22RoundRect,0.182880X-0.934720X0.426720X-0.934720X-0.426720X0.934720X-0.426720X0.934720X0.426720X0*%
G04 #@! TD*
G04 #@! TA.AperFunction,SMDPad,CuDef*
%ADD23RoundRect,0.359360X0.190640X0.089840X-0.190640X0.089840X-0.190640X-0.089840X0.190640X-0.089840X0*%
G04 #@! TD*
G04 #@! TA.AperFunction,SMDPad,CuDef*
%ADD24RoundRect,0.114300X-0.520700X0.266700X-0.520700X-0.266700X0.520700X-0.266700X0.520700X0.266700X0*%
G04 #@! TD*
G04 #@! TA.AperFunction,SMDPad,CuDef*
%ADD25RoundRect,0.381000X-0.889000X-0.952500X0.889000X-0.952500X0.889000X0.952500X-0.889000X0.952500X0*%
G04 #@! TD*
G04 #@! TA.AperFunction,SMDPad,CuDef*
%ADD26RoundRect,0.500000X-0.000010X-0.000010X0.000010X-0.000010X0.000010X0.000010X-0.000010X0.000010X0*%
G04 #@! TD*
G04 #@! TA.AperFunction,ViaPad*
%ADD27C,0.906400*%
G04 #@! TD*
G04 #@! TA.AperFunction,ViaPad*
%ADD28C,0.812800*%
G04 #@! TD*
G04 #@! TA.AperFunction,Conductor*
%ADD29C,0.254000*%
G04 #@! TD*
G04 #@! TA.AperFunction,Conductor*
%ADD30C,0.406400*%
G04 #@! TD*
G04 #@! TA.AperFunction,Conductor*
%ADD31C,0.304800*%
G04 #@! TD*
G04 #@! TA.AperFunction,Conductor*
%ADD32C,0.355600*%
G04 #@! TD*
G04 #@! TA.AperFunction,Conductor*
%ADD33C,0.609600*%
G04 #@! TD*
G04 #@! TA.AperFunction,Conductor*
%ADD34C,0.812800*%
G04 #@! TD*
G04 APERTURE END LIST*
D10*
X-16802900Y-16891000D03*
X-15024900Y-16891000D03*
D11*
X-2197100Y-13792200D03*
X-3975100Y-13792200D03*
D10*
X-7023100Y-13868400D03*
X-5245100Y-13868400D03*
D11*
X9232900Y-6070600D03*
X7454900Y-6070600D03*
D12*
X-1900Y-12922400D03*
X-1900Y-13722400D03*
X-1900Y-14522400D03*
X-1900Y-15322400D03*
X1348100Y-15322400D03*
X1348100Y-14522400D03*
X1348100Y-13722400D03*
X1348100Y-12922400D03*
D13*
X1348100Y-8921600D03*
X1348100Y-8121600D03*
X1348100Y-7321600D03*
X1348100Y-6521600D03*
X-1900Y-6521600D03*
X-1900Y-7321600D03*
X-1900Y-8121600D03*
X-1900Y-8921600D03*
D14*
X-19138900Y-3403600D03*
X-16598900Y-3403600D03*
X-14058900Y-3403600D03*
X-11518900Y-3403600D03*
X-8978900Y-3403600D03*
X-6438900Y-3403600D03*
X-3898900Y-3403600D03*
X-1358900Y-3403600D03*
X1181100Y-3403600D03*
X3721100Y-3403600D03*
X6261100Y-3403600D03*
X8801100Y-3403600D03*
X11341100Y-3403600D03*
X13881100Y-3403600D03*
D15*
X16421100Y-3403600D03*
D14*
X-19138900Y-18643600D03*
X-16598900Y-18643600D03*
X-14058900Y-18643600D03*
X-11518900Y-18643600D03*
X-8978900Y-18643600D03*
X-6438900Y-18643600D03*
X-3898900Y-18643600D03*
X-1358900Y-18643600D03*
X1181100Y-18643600D03*
X3721100Y-18643600D03*
X6261100Y-18643600D03*
X8801100Y-18643600D03*
X11341100Y-18643600D03*
X13881100Y-18643600D03*
D15*
X16421100Y-18643600D03*
D16*
X16319500Y-8483600D03*
X18859500Y-8483600D03*
X16319500Y-11023600D03*
X18859500Y-11023600D03*
X16319500Y-13563600D03*
X18859500Y-13563600D03*
D17*
X-8343900Y-7493000D03*
X-8993600Y-7493000D03*
X-9643900Y-7493000D03*
X-10293900Y-7493000D03*
X-10944100Y-7493000D03*
X-11593800Y-7493000D03*
X-12243600Y-7493000D03*
X-12893800Y-7493000D03*
X-13543800Y-7493000D03*
X-14194000Y-7493000D03*
X-14844300Y-7493000D03*
X-15494000Y-7493000D03*
X-16143700Y-7493000D03*
X-16794000Y-7493000D03*
X-16794000Y-14605000D03*
X-16143700Y-14605000D03*
X-15494000Y-14605000D03*
X-14844300Y-14605000D03*
X-14194000Y-14605000D03*
X-13543800Y-14605000D03*
X-12893800Y-14605000D03*
X-12243600Y-14605000D03*
X-11593800Y-14605000D03*
X-10944100Y-14605000D03*
X-10293900Y-14605000D03*
X-9643900Y-14605000D03*
X-8994100Y-14605000D03*
X-8343900Y-14605000D03*
D18*
X-20066100Y-15417800D03*
X-21666100Y-15417800D03*
D19*
X11366500Y-8763000D03*
X8572500Y-8763000D03*
D20*
X-20408900Y-9499600D03*
X-20408900Y-12293600D03*
D21*
X7099100Y-13436600D03*
D22*
X13296900Y-15748000D03*
X13296900Y-13436600D03*
X13296900Y-11125200D03*
D23*
X-18376900Y-11785600D03*
X-18376900Y-10007600D03*
D24*
X5626100Y-5944600D03*
D25*
X5626100Y-8294600D03*
D10*
X5803900Y-10642600D03*
X7581900Y-10642600D03*
X4737100Y-16357600D03*
X6515100Y-16357600D03*
D26*
X-21170900Y-5562600D03*
X-21170900Y-8102600D03*
D27*
X3213100Y-8204200D03*
X-18884900Y-15468600D03*
D28*
X2628900Y-6477000D03*
X3898900Y-14579600D03*
D27*
X3263900Y-13563600D03*
D28*
X-13982700Y-10642600D03*
X-13550900Y-11785600D03*
D27*
X-21932900Y-13182600D03*
X-18910300Y-5588000D03*
X16040100Y-5181600D03*
D28*
X2374900Y-11785600D03*
D27*
X-4748900Y-8713600D03*
X-11348900Y-12713600D03*
X2578100Y-16103600D03*
X8293100Y-7213600D03*
X-2146300Y-15189200D03*
X-17948900Y-16913600D03*
X-8798900Y-10813600D03*
X-12448900Y-9163600D03*
X-7448900Y-9413600D03*
X-4748900Y-6913600D03*
X-7248900Y-6913600D03*
X-20154900Y-10769600D03*
D28*
X-20256500Y-17195800D03*
X1333500Y-10414000D03*
X14897100Y-12395200D03*
X11341100Y-15773400D03*
X9309100Y-15519400D03*
X5245100Y-14122400D03*
X3594100Y-7112000D03*
X10325100Y-7137400D03*
D27*
X16878300Y-15443200D03*
X-11448900Y-10713600D03*
X-3648900Y-10913600D03*
X-1948900Y-10013600D03*
X2603500Y-10134600D03*
D28*
X13652500Y-5994400D03*
X-11214100Y-16484600D03*
X-13906500Y-16865600D03*
D27*
X3314700Y-11023600D03*
X-4248900Y-15213600D03*
X2705100Y-14833600D03*
X10452100Y-11912600D03*
D29*
X3092500Y-8134400D02*
X3213100Y-8204200D01*
X1348100Y-8121600D02*
X3092500Y-8134400D01*
D30*
X-19507300Y-15468600D02*
X-20066100Y-15417800D01*
X-18884900Y-15468600D02*
X-19507300Y-15468600D01*
D31*
X2584300Y-6521600D02*
X2628900Y-6477000D01*
X1348100Y-6521600D02*
X2584300Y-6521600D01*
D29*
X2127100Y-8921600D02*
X2197100Y-8991600D01*
X1348100Y-8921600D02*
X2127100Y-8921600D01*
X3365500Y-9906000D02*
X4102100Y-10642600D01*
X3365500Y-9499600D02*
X3365500Y-9906000D01*
X2857500Y-8991600D02*
X3365500Y-9499600D01*
X2197100Y-8991600D02*
X2857500Y-8991600D01*
X4102100Y-14300200D02*
X3898900Y-14579600D01*
X4102100Y-10642600D02*
X4102100Y-14300200D01*
X-71900Y-6324600D02*
X-1900Y-6521600D01*
X-723900Y-6324600D02*
X-71900Y-6324600D01*
X-947900Y-6100600D02*
X-723900Y-6324600D01*
X-947900Y-6096000D02*
X-947900Y-6100600D01*
X-12001500Y-6096000D02*
X-947900Y-6096000D01*
X-12243600Y-6312700D02*
X-12243600Y-7493000D01*
X-12001500Y-6096000D02*
X-12243600Y-6312700D01*
X-8398900Y-9713600D02*
X-10448900Y-9713600D01*
X-7898900Y-10213600D02*
X-8398900Y-9713600D01*
X-6698900Y-10213600D02*
X-7898900Y-10213600D01*
X-5648900Y-9163600D02*
X-5648900Y-8413600D01*
X-6698900Y-10213600D02*
X-5648900Y-9163600D01*
X-11595100Y-8567400D02*
X-10448900Y-9713600D01*
X-5648900Y-8413600D02*
X-5148900Y-7913600D01*
X-548900Y-7913600D02*
X-5148900Y-7913600D01*
X-359900Y-8102600D02*
X-548900Y-7913600D01*
X-20900Y-8102600D02*
X-359900Y-8102600D01*
X-11595100Y-7494300D02*
X-11595100Y-8567400D01*
D31*
X-11595100Y-7494300D02*
X-11593800Y-7493000D01*
D29*
X-20900Y-8102600D02*
X-1900Y-8121600D01*
X1348100Y-14522400D02*
X1746300Y-14522400D01*
X2705100Y-13563600D02*
X3263900Y-13563600D01*
X1746300Y-14522400D02*
X2705100Y-13563600D01*
X-14109700Y-10769600D02*
X-13982700Y-10642600D01*
X-15938500Y-10769600D02*
X-14109700Y-10769600D01*
X-16141700Y-10566400D02*
X-15938500Y-10769600D01*
D31*
X-20281900Y-6451600D02*
X-21170900Y-5562600D01*
X-18122900Y-6451600D02*
X-20281900Y-6451600D01*
X-17614900Y-5943600D02*
X-18122900Y-6451600D01*
X-16143700Y-6144800D02*
X-16344900Y-5943600D01*
X-16143700Y-7493000D02*
X-16143700Y-6144800D01*
X-17614900Y-5943600D02*
X-16344900Y-5943600D01*
D32*
X-16143700Y-7482300D02*
X-16141700Y-7480300D01*
X-16143700Y-7493000D02*
X-16143700Y-7482300D01*
D29*
X-16154400Y-7467600D02*
X-16141700Y-7480300D01*
X-16141700Y-7480300D02*
X-16141700Y-10566400D01*
X-13578900Y-11813600D02*
X-13550900Y-11785600D01*
X-15648900Y-11813600D02*
X-13578900Y-11813600D01*
X-16789400Y-10673100D02*
X-15648900Y-11813600D01*
X-16789400Y-7594600D02*
X-16789400Y-10673100D01*
D31*
X-17302000Y-6985000D02*
X-16794000Y-7493000D01*
X-20053300Y-6985000D02*
X-17302000Y-6985000D01*
X-21170900Y-8102600D02*
X-20053300Y-6985000D01*
D32*
X-16794000Y-7590000D02*
X-16789400Y-7594600D01*
X-16794000Y-7493000D02*
X-16794000Y-7590000D01*
D29*
X-16802100Y-7467600D02*
X-16789400Y-7480300D01*
X-16789400Y-7480300D02*
X-16789400Y-7594600D01*
X-501700Y-13722400D02*
X-800100Y-14020800D01*
X-1900Y-13722400D02*
X-501700Y-13722400D01*
X-800100Y-15798800D02*
X-800100Y-14020800D01*
X-1511300Y-16510000D02*
X-800100Y-15798800D01*
X-10071100Y-16510000D02*
X-1511300Y-16510000D01*
X-10944100Y-15637000D02*
X-10071100Y-16510000D01*
X-10944100Y-14605000D02*
X-10944100Y-15637000D01*
X-616100Y-12922400D02*
X-1333500Y-13639800D01*
X-1900Y-12922400D02*
X-616100Y-12922400D01*
X-8343900Y-15849600D02*
X-8343900Y-14605000D01*
X-8343900Y-15849600D02*
X-8140700Y-16052800D01*
X-8140700Y-16052800D02*
X-1841500Y-16052800D01*
X-1841500Y-16052800D02*
X-1333500Y-15544800D01*
X-1333500Y-15544800D02*
X-1333500Y-13639800D01*
D31*
X-8994100Y-13578800D02*
X-8470900Y-13055600D01*
X-8994100Y-14605000D02*
X-8994100Y-13578800D01*
X-7327900Y-13055600D02*
X-8470900Y-13055600D01*
X-7073900Y-13817600D02*
X-7023100Y-13868400D01*
X-7073900Y-13309600D02*
X-7073900Y-13817600D01*
X-7327900Y-13055600D02*
X-7073900Y-13309600D01*
D30*
X-21666100Y-13449400D02*
X-21932900Y-13182600D01*
X-21666100Y-15417800D02*
X-21666100Y-13449400D01*
X-21043900Y-12293600D02*
X-21932900Y-13182600D01*
X-20408900Y-12293600D02*
X-21043900Y-12293600D01*
D32*
X4000500Y-5943600D02*
X3797300Y-5740400D01*
X5625100Y-5943600D02*
X4000500Y-5943600D01*
X-18503900Y-5181600D02*
X-18910300Y-5588000D01*
X-16344900Y-5181600D02*
X-18503900Y-5181600D01*
X-15938500Y-5588000D02*
X-16344900Y-5181600D01*
X3619500Y-5588000D02*
X-15938500Y-5588000D01*
D33*
X5752100Y-6070600D02*
X5626100Y-5944600D01*
X7454900Y-6070600D02*
X5752100Y-6070600D01*
X5625100Y-5943600D02*
X5626100Y-5944600D01*
D32*
X3619500Y-5588000D02*
X3797300Y-5740400D01*
D30*
X5879100Y-6070600D02*
X5626100Y-5944600D01*
D29*
X1348100Y-12812400D02*
X2374900Y-11785600D01*
X1348100Y-12922400D02*
X1348100Y-12812400D01*
X16040100Y-5181600D02*
X15278100Y-5181600D01*
X13881100Y-3784600D02*
X15278100Y-5181600D01*
X13881100Y-3403600D02*
X13881100Y-3784600D01*
D31*
X-19198900Y-17363600D02*
X-18648900Y-17363600D01*
X-19448900Y-17113600D02*
X-19198900Y-17363600D01*
X-19448900Y-16563600D02*
X-19448900Y-17113600D01*
X-19198900Y-16313600D02*
X-19448900Y-16563600D01*
X-18548900Y-16313600D02*
X-19198900Y-16313600D01*
X-17848900Y-15613600D02*
X-18548900Y-16313600D01*
X-17848900Y-12693600D02*
X-17848900Y-15613600D01*
X-17078900Y-18163600D02*
X-16598900Y-18643600D01*
X-17848900Y-18163600D02*
X-17078900Y-18163600D01*
X-18648900Y-17363600D02*
X-17848900Y-18163600D01*
D29*
X-13148900Y-11063600D02*
X-13148900Y-10313600D01*
X-12748900Y-11463600D02*
X-13148900Y-11063600D01*
X-13643300Y-9819200D02*
X-13148900Y-10313600D01*
X-13643300Y-9813600D02*
X-13643300Y-9819200D01*
X-12748900Y-12113600D02*
X-12748900Y-11463600D01*
D31*
X-17848900Y-12693600D02*
X-17768900Y-12613600D01*
D29*
X-17768900Y-12613600D02*
X-17868900Y-12513600D01*
X-13248900Y-12613600D02*
X-17768900Y-12613600D01*
X-12748900Y-12113600D02*
X-13248900Y-12613600D01*
X-15348900Y-9813600D02*
X-13643300Y-9813600D01*
X-15494000Y-9668500D02*
X-15348900Y-9813600D01*
X-15494000Y-7493000D02*
X-15494000Y-9668500D01*
D31*
X-17868900Y-12293600D02*
X-17868900Y-12513600D01*
X-17106900Y-18135600D02*
X-16598900Y-18643600D01*
X-17233900Y-18135600D02*
X-17106900Y-18135600D01*
X-18376900Y-11785600D02*
X-17868900Y-12293600D01*
X-18351500Y-11760200D02*
X-18376900Y-11785600D01*
D33*
X16421100Y-17627600D02*
X16421100Y-18643600D01*
X14541500Y-15748000D02*
X16421100Y-17627600D01*
X13296900Y-15748000D02*
X14541500Y-15748000D01*
D29*
X-12648900Y-10103400D02*
X-13543800Y-9208500D01*
X-12648900Y-10913600D02*
X-12648900Y-10103400D01*
X-12248900Y-11313600D02*
X-12648900Y-10913600D01*
X-12248900Y-11813600D02*
X-12248900Y-11313600D01*
X-13543800Y-9208500D02*
X-13548900Y-9113600D01*
D31*
X-4248900Y-8713600D02*
X-4748900Y-8713600D01*
X-2748900Y-10213600D02*
X-4248900Y-8713600D01*
X-2748900Y-12013600D02*
X-2748900Y-10213600D01*
X-2942500Y-12207200D02*
X-2748900Y-12013600D01*
X-2948900Y-12207200D02*
X-2942500Y-12207200D01*
D33*
X-10955900Y-12320600D02*
X-11348900Y-12713600D01*
X-10348900Y-12320600D02*
X-10955900Y-12320600D01*
D31*
X-2948900Y-12207200D02*
X-3975100Y-13233400D01*
X-10248900Y-12520600D02*
X-10348900Y-12320600D01*
D29*
X-12248900Y-11813600D02*
X-11348900Y-12713600D01*
X-13543800Y-7493000D02*
X-13543800Y-9208500D01*
X-4848900Y-12359600D02*
X-4787900Y-12320600D01*
D33*
X-4787900Y-12320600D02*
X-10348900Y-12320600D01*
D31*
X-10248900Y-14534600D02*
X-10248900Y-12520600D01*
D33*
X-3975100Y-13233400D02*
X-4787900Y-12320600D01*
X-2762300Y-15189200D02*
X-2146300Y-15189200D01*
X-3875100Y-14076400D02*
X-2762300Y-15189200D01*
X-3975100Y-13792200D02*
X-3875100Y-14076400D01*
X-3975100Y-13233400D02*
X-3975100Y-13792200D01*
X-2146300Y-15163800D02*
X-2146300Y-15189200D01*
D34*
X7708900Y-10769600D02*
X7581900Y-10642600D01*
X8547100Y-10769600D02*
X7708900Y-10769600D01*
X8547100Y-8788400D02*
X8572500Y-8763000D01*
X8547100Y-10769600D02*
X8547100Y-8788400D01*
X9309100Y-10769600D02*
X8547100Y-10769600D01*
X7581900Y-12547600D02*
X7175500Y-12700000D01*
X7581900Y-10642600D02*
X7581900Y-12547600D01*
D33*
X7785100Y-17500600D02*
X7912100Y-17500600D01*
X6515100Y-16357600D02*
X7785100Y-17500600D01*
D29*
X-1900Y-14522400D02*
X-1900Y-15322400D01*
X2324100Y-16357600D02*
X2578100Y-16103600D01*
X165100Y-16357600D02*
X2324100Y-16357600D01*
X-1900Y-16190600D02*
X165100Y-16357600D01*
X-1900Y-15322400D02*
X-1900Y-16190600D01*
D30*
X8470900Y-8864600D02*
X8572500Y-8763000D01*
D34*
X6388100Y-8864600D02*
X8470900Y-8864600D01*
D33*
X5818100Y-8294600D02*
X6388100Y-8864600D01*
X5626100Y-8294600D02*
X5818100Y-8294600D01*
D31*
X8572500Y-7493000D02*
X8293100Y-7213600D01*
X8572500Y-8763000D02*
X8572500Y-7493000D01*
D30*
X7175500Y-12700000D02*
X7505600Y-13030100D01*
X7505600Y-13030100D02*
X7099100Y-13436600D01*
X7658100Y-12877600D02*
X7505600Y-13030100D01*
X7658100Y-12547600D02*
X7658100Y-12877600D01*
D33*
X10833100Y-10769600D02*
X9309100Y-10769600D01*
X11468100Y-11404600D02*
X10833100Y-10769600D01*
X11468100Y-12674600D02*
X11468100Y-11404600D01*
X12230100Y-13436600D02*
X11468100Y-12674600D01*
X13296900Y-13436600D02*
X12230100Y-13436600D01*
D31*
X6388100Y-14147600D02*
X7099100Y-13436600D01*
X6388100Y-14960600D02*
X6388100Y-14147600D01*
D34*
X7912100Y-17754600D02*
X8801100Y-18643600D01*
X7912100Y-17500600D02*
X7912100Y-17754600D01*
X7912100Y-14249600D02*
X7912100Y-17500600D01*
X7099100Y-13436600D02*
X7912100Y-14249600D01*
D33*
X15913100Y-13563600D02*
X16319500Y-13563600D01*
X15786100Y-13690600D02*
X15913100Y-13563600D01*
X14135100Y-13690600D02*
X15786100Y-13690600D01*
X14008100Y-13563600D02*
X14135100Y-13690600D01*
X13423900Y-13563600D02*
X14008100Y-13563600D01*
D30*
X13296900Y-13436600D02*
X13423900Y-13563600D01*
D29*
X-10248900Y-14534600D02*
X-10293900Y-14605000D01*
X-10548900Y-11613600D02*
X-11448900Y-10713600D01*
X-4448900Y-11613600D02*
X-10548900Y-11613600D01*
X-3648900Y-10913600D02*
X-4448900Y-11613600D01*
X-1140900Y-9205600D02*
X-1948900Y-10013600D01*
X-1900Y-9205600D02*
X-1140900Y-9205600D01*
X14363700Y-6705600D02*
X13652500Y-5994400D01*
X2019300Y-9626600D02*
X2603500Y-10134600D01*
X419100Y-9626600D02*
X2019300Y-9626600D01*
X-1900Y-9205600D02*
X419100Y-9626600D01*
X-1900Y-8921600D02*
X-1900Y-9205600D01*
X17183100Y-6705600D02*
X14363700Y-6705600D01*
X17589500Y-7112000D02*
X17183100Y-6705600D01*
X17589500Y-7112000D02*
X17589500Y-9753600D01*
D30*
X17589500Y-9753600D02*
X18859500Y-11023600D01*
D31*
X-15024900Y-17677600D02*
X-14058900Y-18643600D01*
X-15024900Y-16891000D02*
X-15024900Y-17677600D01*
D29*
X-10731500Y-16967200D02*
X-11214100Y-16484600D01*
X2806700Y-16967200D02*
X-10731500Y-16967200D01*
X4991100Y-17373600D02*
X6261100Y-18643600D01*
X3213100Y-17373600D02*
X4991100Y-17373600D01*
X2806700Y-16967200D02*
X3213100Y-17373600D01*
X-13296900Y-17424400D02*
X-13906500Y-16865600D01*
X3340100Y-18262600D02*
X3721100Y-18643600D01*
X2832100Y-18262600D02*
X3340100Y-18262600D01*
X1993900Y-17424400D02*
X2832100Y-18262600D01*
X-13296900Y-17424400D02*
X1993900Y-17424400D01*
X-19138900Y-3453854D02*
X-17919154Y-4673600D01*
X-19138900Y-3403600D02*
X-19138900Y-3453854D01*
X-16090900Y-4673600D02*
X-17919154Y-4673600D01*
X-15684500Y-5080000D02*
X-16090900Y-4673600D01*
X9461500Y-5080000D02*
X-15684500Y-5080000D01*
X9690100Y-5181600D02*
X15024100Y-10515600D01*
X9563100Y-5181600D02*
X9690100Y-5181600D01*
X9461500Y-5080000D02*
X9563100Y-5181600D01*
X15024100Y-11404600D02*
X15024100Y-10515600D01*
X15913100Y-12293600D02*
X15024100Y-11404600D01*
X15913100Y-12293600D02*
X17589500Y-12293600D01*
D30*
X17589500Y-12293600D02*
X18859500Y-13563600D01*
X15684500Y-10287000D02*
X9918700Y-4622800D01*
D33*
X16319500Y-11023600D02*
X15684500Y-10287000D01*
D29*
X-16598900Y-3403600D02*
X-15405100Y-4622800D01*
X-15405100Y-4622800D02*
X9918700Y-4622800D01*
X3314700Y-11023600D02*
X3314700Y-12141200D01*
X1348100Y-13722400D02*
X1733500Y-13722400D01*
X3314700Y-12141200D02*
X1733500Y-13722400D01*
X-5248900Y-14213600D02*
X-4248900Y-15213600D01*
D31*
X-5248900Y-13872200D02*
X-5248900Y-14213600D01*
D29*
X-5248900Y-13872200D02*
X-5245100Y-13868400D01*
D30*
X18859500Y-7391400D02*
X17564100Y-6096000D01*
X18859500Y-8483600D02*
X18859500Y-7391400D01*
D31*
X-5245100Y-13868400D02*
X-5245100Y-14147800D01*
D30*
X10452100Y-17754600D02*
X11341100Y-18643600D01*
D29*
X2216300Y-15322400D02*
X2705100Y-14833600D01*
X1348100Y-15322400D02*
X2216300Y-15322400D01*
D30*
X15125700Y-6096000D02*
X17564100Y-6096000D01*
X13830300Y-4800600D02*
X15125700Y-6096000D01*
X12865100Y-4800600D02*
X13830300Y-4800600D01*
X11468100Y-3403600D02*
X12865100Y-4800600D01*
D29*
X11341100Y-3403600D02*
X11468100Y-3403600D01*
D30*
X10452100Y-11912600D02*
X10452100Y-17754600D01*
G04 #@! TA.AperFunction,Conductor*
G36*
X-19479894Y-2269744D02*
G01*
X-19461462Y-2313886D01*
X-19479642Y-2358132D01*
X-19504647Y-2373505D01*
X-19534656Y-2383256D01*
X-19558351Y-2390955D01*
X-19558353Y-2390955D01*
X-19558353Y-2390956D01*
X-19558358Y-2390958D01*
X-19711603Y-2469040D01*
X-19850746Y-2570134D01*
X-19850754Y-2570141D01*
X-19972359Y-2691746D01*
X-19972366Y-2691754D01*
X-20073460Y-2830897D01*
X-20151542Y-2984142D01*
X-20151546Y-2984150D01*
X-20204695Y-3147726D01*
X-20204695Y-3147727D01*
X-20231599Y-3317589D01*
X-20231600Y-3317605D01*
X-20231600Y-3489594D01*
X-20231599Y-3489610D01*
X-20204695Y-3659472D01*
X-20204695Y-3659473D01*
X-20151546Y-3823049D01*
X-20151542Y-3823057D01*
X-20073460Y-3976302D01*
X-19972366Y-4115445D01*
X-19972359Y-4115453D01*
X-19850754Y-4237058D01*
X-19850746Y-4237065D01*
X-19734465Y-4321549D01*
X-19711600Y-4338161D01*
X-19558351Y-4416245D01*
X-19394775Y-4469394D01*
X-19361318Y-4474693D01*
X-19224911Y-4496298D01*
X-19224905Y-4496298D01*
X-19224897Y-4496300D01*
X-19224895Y-4496300D01*
X-19052905Y-4496300D01*
X-19052903Y-4496300D01*
X-18883025Y-4469394D01*
X-18719449Y-4416245D01*
X-18710052Y-4411456D01*
X-18662367Y-4407702D01*
X-18637484Y-4422950D01*
X-18367028Y-4693406D01*
X-18348722Y-4737600D01*
X-18367028Y-4781794D01*
X-18411222Y-4800100D01*
X-18554130Y-4800100D01*
X-18651152Y-4826098D01*
X-18651154Y-4826098D01*
X-18738148Y-4876324D01*
X-18778043Y-4916218D01*
X-18822237Y-4934523D01*
X-18834428Y-4933322D01*
X-18845598Y-4931100D01*
X-18845601Y-4931100D01*
X-18974999Y-4931100D01*
X-18975001Y-4931100D01*
X-19101908Y-4956344D01*
X-19101910Y-4956344D01*
X-19101911Y-4956345D01*
X-19136923Y-4970847D01*
X-19221458Y-5005862D01*
X-19221461Y-5005863D01*
X-19329049Y-5077752D01*
X-19420548Y-5169251D01*
X-19492437Y-5276839D01*
X-19492438Y-5276842D01*
X-19527453Y-5361377D01*
X-19537094Y-5384655D01*
X-19541956Y-5396392D01*
X-19567200Y-5523299D01*
X-19567200Y-5652700D01*
X-19543788Y-5770399D01*
X-19541955Y-5779611D01*
X-19511337Y-5853529D01*
X-19492438Y-5899157D01*
X-19492437Y-5899160D01*
X-19426208Y-5998277D01*
X-19416876Y-6045193D01*
X-19443452Y-6084967D01*
X-19478175Y-6095500D01*
X-20108510Y-6095500D01*
X-20152704Y-6077194D01*
X-20462578Y-5767320D01*
X-20480884Y-5723126D01*
X-20478054Y-5704531D01*
X-20473644Y-5690379D01*
X-20473643Y-5690377D01*
X-20467200Y-5619473D01*
X-20467201Y-5505728D01*
X-20473643Y-5434823D01*
X-20524483Y-5271671D01*
X-20612891Y-5125428D01*
X-20733728Y-5004591D01*
X-20879971Y-4916183D01*
X-21043119Y-4865344D01*
X-21043120Y-4865343D01*
X-21085666Y-4861477D01*
X-21114027Y-4858900D01*
X-21114029Y-4858900D01*
X-21227770Y-4858900D01*
X-21265309Y-4862311D01*
X-21298677Y-4865343D01*
X-21298680Y-4865344D01*
X-21298681Y-4865344D01*
X-21461830Y-4916183D01*
X-21608073Y-5004591D01*
X-21728909Y-5125427D01*
X-21817317Y-5271670D01*
X-21868156Y-5434818D01*
X-21868157Y-5434819D01*
X-21870903Y-5465042D01*
X-21874044Y-5499614D01*
X-21874600Y-5505728D01*
X-21874600Y-5619469D01*
X-21872844Y-5638793D01*
X-21868157Y-5690377D01*
X-21817317Y-5853529D01*
X-21728909Y-5999772D01*
X-21608072Y-6120609D01*
X-21461829Y-6209017D01*
X-21298682Y-6259855D01*
X-21298681Y-6259856D01*
X-21298680Y-6259856D01*
X-21298677Y-6259857D01*
X-21227773Y-6266300D01*
X-21114028Y-6266299D01*
X-21043123Y-6259857D01*
X-21028969Y-6255446D01*
X-20981330Y-6259774D01*
X-20966180Y-6270922D01*
X-20566851Y-6670251D01*
X-20500551Y-6736551D01*
X-20500549Y-6736552D01*
X-20500548Y-6736553D01*
X-20449306Y-6766138D01*
X-20420186Y-6804088D01*
X-20426430Y-6851514D01*
X-20436362Y-6864458D01*
X-20966181Y-7394277D01*
X-21010375Y-7412583D01*
X-21028968Y-7409753D01*
X-21043115Y-7405344D01*
X-21043120Y-7405343D01*
X-21085666Y-7401477D01*
X-21114027Y-7398900D01*
X-21114029Y-7398900D01*
X-21227770Y-7398900D01*
X-21265309Y-7402311D01*
X-21298677Y-7405343D01*
X-21298680Y-7405344D01*
X-21298681Y-7405344D01*
X-21461830Y-7456183D01*
X-21608073Y-7544591D01*
X-21728909Y-7665427D01*
X-21817317Y-7811670D01*
X-21868156Y-7974818D01*
X-21868157Y-7974819D01*
X-21874600Y-8045728D01*
X-21874600Y-8159469D01*
X-21873490Y-8171680D01*
X-21868157Y-8230377D01*
X-21817317Y-8393529D01*
X-21728909Y-8539772D01*
X-21608072Y-8660609D01*
X-21512979Y-8718095D01*
X-21484630Y-8756623D01*
X-21491828Y-8803914D01*
X-21495280Y-8809034D01*
X-21548462Y-8880077D01*
X-21548467Y-8880086D01*
X-21595861Y-9007153D01*
X-21601900Y-9063319D01*
X-21601900Y-9347600D01*
X-20560900Y-9347600D01*
X-20560900Y-8646684D01*
X-20577728Y-8636800D01*
X-20256900Y-8636800D01*
X-20256900Y-10362399D01*
X-19642435Y-10362399D01*
X-19642419Y-10362398D01*
X-19586256Y-10356360D01*
X-19586252Y-10356359D01*
X-19459187Y-10308966D01*
X-19459182Y-10308963D01*
X-19350611Y-10227688D01*
X-19332953Y-10204099D01*
X-19291814Y-10179688D01*
X-19245465Y-10191517D01*
X-19223248Y-10222958D01*
X-19176901Y-10371691D01*
X-19093561Y-10509551D01*
X-18979652Y-10623460D01*
X-18841792Y-10706800D01*
X-18687990Y-10754726D01*
X-18687992Y-10754726D01*
X-18621162Y-10760799D01*
X-18621159Y-10760800D01*
X-18528900Y-10760800D01*
X-18224900Y-10760800D01*
X-18132641Y-10760800D01*
X-18132639Y-10760799D01*
X-18065810Y-10754726D01*
X-17912009Y-10706800D01*
X-17774149Y-10623460D01*
X-17660240Y-10509551D01*
X-17576900Y-10371691D01*
X-17528975Y-10217894D01*
X-17523677Y-10159600D01*
X-18224900Y-10159600D01*
X-18224900Y-10760800D01*
X-18528900Y-10760800D01*
X-18528900Y-10070100D01*
X-18510594Y-10025906D01*
X-18466400Y-10007600D01*
X-18376900Y-10007600D01*
X-18376900Y-9918100D01*
X-18358594Y-9873906D01*
X-18314400Y-9855600D01*
X-17523677Y-9855600D01*
X-17528975Y-9797305D01*
X-17576900Y-9643508D01*
X-17660240Y-9505648D01*
X-17774149Y-9391739D01*
X-17912009Y-9308399D01*
X-18065811Y-9260473D01*
X-18065809Y-9260473D01*
X-18094614Y-9257855D01*
X-18136970Y-9235624D01*
X-18151199Y-9189954D01*
X-18145380Y-9170523D01*
X-18145946Y-9170289D01*
X-18142491Y-9161949D01*
X-18090081Y-9035420D01*
X-18062200Y-8895255D01*
X-18062200Y-8752345D01*
X-18090081Y-8612180D01*
X-18144771Y-8480147D01*
X-18224168Y-8361321D01*
X-18325221Y-8260268D01*
X-18333853Y-8254500D01*
X-18444045Y-8180872D01*
X-18444047Y-8180871D01*
X-18576082Y-8126180D01*
X-18716245Y-8098300D01*
X-18859155Y-8098300D01*
X-18999319Y-8126180D01*
X-19131354Y-8180871D01*
X-19131356Y-8180872D01*
X-19250179Y-8260267D01*
X-19351233Y-8361321D01*
X-19430628Y-8480144D01*
X-19430629Y-8480146D01*
X-19462953Y-8558183D01*
X-19484804Y-8610938D01*
X-19486494Y-8615017D01*
X-19488228Y-8614298D01*
X-19515021Y-8646882D01*
X-19562630Y-8651524D01*
X-19566270Y-8650293D01*
X-19586256Y-8642839D01*
X-19642420Y-8636800D01*
X-20256900Y-8636800D01*
X-20577728Y-8636800D01*
X-20592386Y-8628191D01*
X-20597338Y-8621637D01*
X-20604926Y-8618494D01*
X-20611254Y-8603218D01*
X-20621222Y-8590024D01*
X-20620089Y-8581888D01*
X-20623232Y-8574300D01*
X-20614839Y-8544190D01*
X-20614623Y-8542646D01*
X-20614351Y-8542439D01*
X-20614218Y-8541966D01*
X-20612893Y-8539773D01*
X-20612891Y-8539772D01*
X-20524483Y-8393529D01*
X-20473643Y-8230377D01*
X-20467200Y-8159473D01*
X-20467201Y-8045728D01*
X-20473643Y-7974823D01*
X-20478054Y-7960668D01*
X-20473728Y-7913031D01*
X-20462582Y-7897882D01*
X-19924104Y-7359406D01*
X-19879910Y-7341100D01*
X-17475390Y-7341100D01*
X-17431196Y-7359406D01*
X-17206506Y-7584095D01*
X-17188200Y-7628289D01*
X-17188200Y-8349523D01*
X-17188199Y-8349539D01*
X-17173582Y-8441827D01*
X-17173580Y-8441834D01*
X-17173578Y-8441837D01*
X-17126912Y-8533425D01*
X-17120100Y-8561797D01*
X-17120100Y-10716636D01*
X-17120099Y-10716644D01*
X-17097565Y-10800745D01*
X-17097564Y-10800748D01*
X-17054027Y-10876154D01*
X-17054022Y-10876160D01*
X-16988900Y-10941282D01*
X-16988886Y-10941294D01*
X-15851960Y-12078222D01*
X-15851954Y-12078227D01*
X-15776548Y-12121764D01*
X-15776545Y-12121765D01*
X-15692437Y-12144301D01*
X-15692436Y-12144301D01*
X-15601537Y-12144301D01*
X-15601521Y-12144300D01*
X-14078393Y-12144300D01*
X-14075293Y-12145584D01*
X-14072080Y-12144620D01*
X-14059818Y-12151994D01*
X-14034199Y-12162606D01*
X-14029961Y-12167296D01*
X-14028077Y-12169606D01*
X-14024796Y-12174516D01*
X-14020869Y-12178443D01*
X-14018868Y-12180896D01*
X-14012835Y-12201002D01*
X-14004800Y-12220400D01*
X-14006085Y-12223500D01*
X-14005120Y-12226713D01*
X-14015072Y-12245196D01*
X-14023106Y-12264594D01*
X-14026206Y-12265877D01*
X-14027796Y-12268832D01*
X-14047903Y-12274865D01*
X-14067300Y-12282900D01*
X-17455147Y-12282900D01*
X-17499341Y-12264594D01*
X-17515517Y-12236576D01*
X-17537067Y-12156150D01*
X-17540637Y-12149967D01*
X-17548388Y-12136542D01*
X-17583949Y-12074949D01*
X-17583950Y-12074948D01*
X-17583951Y-12074946D01*
X-17615756Y-12043141D01*
X-17634062Y-11998947D01*
X-17633527Y-11990789D01*
X-17623200Y-11912348D01*
X-17623200Y-11658852D01*
X-17632834Y-11585670D01*
X-17637691Y-11548779D01*
X-17637692Y-11548775D01*
X-17637692Y-11548772D01*
X-17694428Y-11411800D01*
X-17784681Y-11294181D01*
X-17902300Y-11203928D01*
X-17914328Y-11198946D01*
X-17952187Y-11183264D01*
X-18039272Y-11147192D01*
X-18039275Y-11147191D01*
X-18039276Y-11147191D01*
X-18039280Y-11147190D01*
X-18149346Y-11132700D01*
X-18149352Y-11132700D01*
X-18604448Y-11132700D01*
X-18604455Y-11132700D01*
X-18714521Y-11147190D01*
X-18714525Y-11147191D01*
X-18714528Y-11147191D01*
X-18714528Y-11147192D01*
X-18752209Y-11162800D01*
X-18851499Y-11203927D01*
X-18969119Y-11294181D01*
X-19059373Y-11411801D01*
X-19116109Y-11548775D01*
X-19116110Y-11548779D01*
X-19130600Y-11658845D01*
X-19130600Y-11912354D01*
X-19116110Y-12022420D01*
X-19116109Y-12022424D01*
X-19116108Y-12022428D01*
X-19092997Y-12078222D01*
X-19060310Y-12157137D01*
X-19059372Y-12159400D01*
X-18969119Y-12277019D01*
X-18851500Y-12367272D01*
X-18825462Y-12378057D01*
X-18791638Y-12411882D01*
X-18791637Y-12459718D01*
X-18825462Y-12493542D01*
X-18849380Y-12498300D01*
X-18859155Y-12498300D01*
X-18999319Y-12526180D01*
X-19131354Y-12580871D01*
X-19131357Y-12580872D01*
X-19218978Y-12639419D01*
X-19265895Y-12648751D01*
X-19305668Y-12622175D01*
X-19316201Y-12587454D01*
X-19316201Y-11867196D01*
X-19326716Y-11795018D01*
X-19381146Y-11683679D01*
X-19468779Y-11596046D01*
X-19580118Y-11541616D01*
X-19580120Y-11541615D01*
X-19580121Y-11541615D01*
X-19637456Y-11533262D01*
X-19652295Y-11531100D01*
X-19652296Y-11531100D01*
X-21165504Y-11531100D01*
X-21237680Y-11541615D01*
X-21237681Y-11541615D01*
X-21237682Y-11541616D01*
X-21342136Y-11592680D01*
X-21349023Y-11596047D01*
X-21436653Y-11683677D01*
X-21491085Y-11795020D01*
X-21501600Y-11867195D01*
X-21501600Y-12149967D01*
X-21519906Y-12194161D01*
X-21833139Y-12507394D01*
X-21877333Y-12525700D01*
X-21997601Y-12525700D01*
X-22124508Y-12550944D01*
X-22124510Y-12550944D01*
X-22124511Y-12550945D01*
X-22147533Y-12560481D01*
X-22244058Y-12600462D01*
X-22244061Y-12600463D01*
X-22351649Y-12672352D01*
X-22443148Y-12763851D01*
X-22515037Y-12871439D01*
X-22515038Y-12871442D01*
X-22564556Y-12990992D01*
X-22589800Y-13117899D01*
X-22589800Y-13247300D01*
X-22574602Y-13323706D01*
X-22564555Y-13374211D01*
X-22529227Y-13459500D01*
X-22515038Y-13493757D01*
X-22515037Y-13493760D01*
X-22443148Y-13601348D01*
X-22351649Y-13692847D01*
X-22244061Y-13764736D01*
X-22244060Y-13764736D01*
X-22244059Y-13764737D01*
X-22124511Y-13814255D01*
X-22123313Y-13814493D01*
X-22122970Y-13814722D01*
X-22121579Y-13815144D01*
X-22121707Y-13815565D01*
X-22083536Y-13841065D01*
X-22073000Y-13875793D01*
X-22073000Y-14673186D01*
X-22091306Y-14717380D01*
X-22109086Y-14729830D01*
X-22200239Y-14772335D01*
X-22286565Y-14858661D01*
X-22338162Y-14969311D01*
X-22338164Y-14969317D01*
X-22344800Y-15019722D01*
X-22344800Y-15815861D01*
X-22344800Y-15815862D01*
X-22344799Y-15815870D01*
X-22338163Y-15866286D01*
X-22320716Y-15903700D01*
X-22286565Y-15976938D01*
X-22200239Y-16063264D01*
X-22200238Y-16063264D01*
X-22200236Y-16063266D01*
X-22089586Y-16114863D01*
X-22039171Y-16121500D01*
X-21293030Y-16121499D01*
X-21242614Y-16114863D01*
X-21131964Y-16063266D01*
X-21045634Y-15976936D01*
X-20994037Y-15866286D01*
X-20987400Y-15815871D01*
X-20987401Y-15019730D01*
X-20994037Y-14969314D01*
X-21045634Y-14858664D01*
X-21045636Y-14858662D01*
X-21045636Y-14858661D01*
X-21131962Y-14772335D01*
X-21223114Y-14729830D01*
X-21255431Y-14694562D01*
X-21259200Y-14673186D01*
X-21259200Y-13395834D01*
X-21259200Y-13395831D01*
X-21260837Y-13389719D01*
X-21282029Y-13310637D01*
X-21282957Y-13282269D01*
X-21276000Y-13247299D01*
X-21276000Y-13127031D01*
X-21257696Y-13082839D01*
X-21244809Y-13069951D01*
X-21200616Y-13051644D01*
X-21191609Y-13052296D01*
X-21165505Y-13056100D01*
X-19652296Y-13056099D01*
X-19580118Y-13045584D01*
X-19580114Y-13045581D01*
X-19576909Y-13045115D01*
X-19530537Y-13056858D01*
X-19506051Y-13097951D01*
X-19506599Y-13119154D01*
X-19513200Y-13152341D01*
X-19513200Y-13295255D01*
X-19485320Y-13435418D01*
X-19430629Y-13567453D01*
X-19430628Y-13567455D01*
X-19371349Y-13656172D01*
X-19351232Y-13686279D01*
X-19250179Y-13787332D01*
X-19131353Y-13866729D01*
X-18999320Y-13921419D01*
X-18859155Y-13949300D01*
X-18716245Y-13949300D01*
X-18576080Y-13921419D01*
X-18444047Y-13866729D01*
X-18325221Y-13787332D01*
X-18311694Y-13773805D01*
X-18267500Y-13755499D01*
X-18223306Y-13773805D01*
X-18205000Y-13817999D01*
X-18205000Y-15097718D01*
X-18223306Y-15141912D01*
X-18267500Y-15160218D01*
X-18311694Y-15141912D01*
X-18319466Y-15132442D01*
X-18374651Y-15049854D01*
X-18374655Y-15049849D01*
X-18466152Y-14958352D01*
X-18573740Y-14886463D01*
X-18573743Y-14886462D01*
X-18616888Y-14868591D01*
X-18693289Y-14836945D01*
X-18693293Y-14836944D01*
X-18820200Y-14811700D01*
X-18820201Y-14811700D01*
X-18949599Y-14811700D01*
X-18949601Y-14811700D01*
X-19076508Y-14836944D01*
X-19076510Y-14836944D01*
X-19076511Y-14836945D01*
X-19111523Y-14851447D01*
X-19196058Y-14886462D01*
X-19196061Y-14886463D01*
X-19303649Y-14958352D01*
X-19303654Y-14958356D01*
X-19305668Y-14960371D01*
X-19349864Y-14978672D01*
X-19394056Y-14960361D01*
X-19406500Y-14942588D01*
X-19445634Y-14858664D01*
X-19445636Y-14858662D01*
X-19445636Y-14858661D01*
X-19531962Y-14772335D01*
X-19596363Y-14742304D01*
X-19642614Y-14720737D01*
X-19642616Y-14720736D01*
X-19642618Y-14720736D01*
X-19693029Y-14714100D01*
X-20439162Y-14714100D01*
X-20439164Y-14714100D01*
X-20439170Y-14714101D01*
X-20489586Y-14720737D01*
X-20489588Y-14720737D01*
X-20489589Y-14720738D01*
X-20600239Y-14772335D01*
X-20686565Y-14858661D01*
X-20738162Y-14969311D01*
X-20738164Y-14969317D01*
X-20744800Y-15019722D01*
X-20744800Y-15815861D01*
X-20744800Y-15815862D01*
X-20744799Y-15815870D01*
X-20738163Y-15866286D01*
X-20720716Y-15903700D01*
X-20686565Y-15976938D01*
X-20600239Y-16063264D01*
X-20600238Y-16063264D01*
X-20600236Y-16063266D01*
X-20489586Y-16114863D01*
X-20439171Y-16121500D01*
X-19693030Y-16121499D01*
X-19665257Y-16117843D01*
X-19661089Y-16118960D01*
X-19657100Y-16117308D01*
X-19638496Y-16125014D01*
X-19619052Y-16130224D01*
X-19616895Y-16133960D01*
X-19612906Y-16135613D01*
X-19605200Y-16154217D01*
X-19595135Y-16171651D01*
X-19596253Y-16175819D01*
X-19594600Y-16179808D01*
X-19602307Y-16198412D01*
X-19607516Y-16217856D01*
X-19612905Y-16224002D01*
X-19667551Y-16278648D01*
X-19676341Y-16287439D01*
X-19676343Y-16287439D01*
X-19733847Y-16344943D01*
X-19733854Y-16344952D01*
X-19780731Y-16426144D01*
X-19780735Y-16426153D01*
X-19804999Y-16516712D01*
X-19805000Y-16516720D01*
X-19805000Y-17160479D01*
X-19804999Y-17160487D01*
X-19780735Y-17251046D01*
X-19780731Y-17251055D01*
X-19733854Y-17332247D01*
X-19733847Y-17332256D01*
X-19537374Y-17528728D01*
X-19519068Y-17572922D01*
X-19537374Y-17617116D01*
X-19556228Y-17629713D01*
X-19556163Y-17629840D01*
X-19557237Y-17630386D01*
X-19557654Y-17630666D01*
X-19558349Y-17630953D01*
X-19658070Y-17681764D01*
X-19711600Y-17709039D01*
X-19711603Y-17709040D01*
X-19711605Y-17709042D01*
X-19850746Y-17810134D01*
X-19850754Y-17810141D01*
X-19972359Y-17931746D01*
X-19972366Y-17931754D01*
X-20073460Y-18070897D01*
X-20151542Y-18224142D01*
X-20151546Y-18224150D01*
X-20204695Y-18387726D01*
X-20204695Y-18387727D01*
X-20231599Y-18557589D01*
X-20231600Y-18557605D01*
X-20231600Y-18729594D01*
X-20231599Y-18729610D01*
X-20204695Y-18899472D01*
X-20204695Y-18899473D01*
X-20151546Y-19063049D01*
X-20151542Y-19063057D01*
X-20073460Y-19216302D01*
X-19972366Y-19355445D01*
X-19972359Y-19355453D01*
X-19850754Y-19477058D01*
X-19850746Y-19477065D01*
X-19734465Y-19561549D01*
X-19711600Y-19578161D01*
X-19558351Y-19656245D01*
X-19558339Y-19656248D01*
X-19556085Y-19657183D01*
X-19556622Y-19658477D01*
X-19523405Y-19686846D01*
X-19519650Y-19734534D01*
X-19550716Y-19770909D01*
X-19578914Y-19777722D01*
X-20898353Y-19781481D01*
X-20942599Y-19763301D01*
X-20961031Y-19719159D01*
X-20942851Y-19674913D01*
X-20932961Y-19666820D01*
X-20887077Y-19636532D01*
X-20887077Y-19636531D01*
X-20887068Y-19636526D01*
X-20722499Y-19479182D01*
X-20588670Y-19294982D01*
X-20489882Y-19089846D01*
X-20429309Y-18870367D01*
X-20408900Y-18643600D01*
X-20408900Y-18643594D01*
X-20425112Y-18463466D01*
X-20429309Y-18416833D01*
X-20489882Y-18197354D01*
X-20540344Y-18092568D01*
X-20588667Y-17992223D01*
X-20588669Y-17992220D01*
X-20588670Y-17992218D01*
X-20722499Y-17808018D01*
X-20725837Y-17804827D01*
X-20887069Y-17650673D01*
X-20887072Y-17650671D01*
X-20970058Y-17595893D01*
X-21077087Y-17525244D01*
X-21077090Y-17525242D01*
X-21077091Y-17525242D01*
X-21286442Y-17435760D01*
X-21286445Y-17435759D01*
X-21286448Y-17435758D01*
X-21449428Y-17398559D01*
X-21508423Y-17385094D01*
X-21735877Y-17374879D01*
X-21735883Y-17374879D01*
X-21961494Y-17405440D01*
X-21961500Y-17405441D01*
X-22178037Y-17475797D01*
X-22178041Y-17475799D01*
X-22378537Y-17583690D01*
X-22378549Y-17583698D01*
X-22556548Y-17725648D01*
X-22556550Y-17725650D01*
X-22706350Y-17897109D01*
X-22708000Y-17899382D01*
X-22709090Y-17898590D01*
X-22744139Y-17924652D01*
X-22791466Y-17917691D01*
X-22820008Y-17879305D01*
X-22821900Y-17864044D01*
X-22821900Y-9935881D01*
X-21601899Y-9935881D01*
X-21595861Y-9992044D01*
X-21595860Y-9992048D01*
X-21548467Y-10119113D01*
X-21548464Y-10119118D01*
X-21467189Y-10227688D01*
X-21358619Y-10308963D01*
X-21358614Y-10308966D01*
X-21231547Y-10356360D01*
X-21175374Y-10362399D01*
X-20560900Y-10362399D01*
X-20560900Y-9651600D01*
X-21601899Y-9651600D01*
X-21601899Y-9935881D01*
X-22821900Y-9935881D01*
X-22821900Y-4183157D01*
X-22803594Y-4138963D01*
X-22759400Y-4120657D01*
X-22715206Y-4138963D01*
X-22708202Y-4147952D01*
X-22708007Y-4147811D01*
X-22706358Y-4150080D01*
X-22706353Y-4150086D01*
X-22706352Y-4150087D01*
X-22628512Y-4239182D01*
X-22556550Y-4321549D01*
X-22556548Y-4321551D01*
X-22378549Y-4463501D01*
X-22378542Y-4463505D01*
X-22378539Y-4463508D01*
X-22178042Y-4571400D01*
X-22178040Y-4571400D01*
X-22178037Y-4571402D01*
X-22098750Y-4597163D01*
X-21961502Y-4641758D01*
X-21735878Y-4672321D01*
X-21508424Y-4662106D01*
X-21286448Y-4611442D01*
X-21077087Y-4521956D01*
X-20887068Y-4396526D01*
X-20722499Y-4239182D01*
X-20588670Y-4054982D01*
X-20489882Y-3849846D01*
X-20429309Y-3630367D01*
X-20408900Y-3403600D01*
X-20408900Y-3403594D01*
X-20429308Y-3176846D01*
X-20429309Y-3176833D01*
X-20489882Y-2957354D01*
X-20540344Y-2852568D01*
X-20588667Y-2752223D01*
X-20588669Y-2752220D01*
X-20588670Y-2752218D01*
X-20722499Y-2568018D01*
X-20861501Y-2435119D01*
X-20887069Y-2410673D01*
X-20887072Y-2410671D01*
X-20948405Y-2370186D01*
X-20975204Y-2330562D01*
X-20966135Y-2283594D01*
X-20926511Y-2256795D01*
X-20914161Y-2255525D01*
X-19524136Y-2251565D01*
X-19479894Y-2269744D01*
G37*
G04 #@! TD.AperFunction*
G04 #@! TA.AperFunction,Conductor*
G36*
X-12332111Y-12198069D02*
G01*
X-12008764Y-12521416D01*
X-11990458Y-12565610D01*
X-11991659Y-12577802D01*
X-12005800Y-12648897D01*
X-12005800Y-12778300D01*
X-11983263Y-12891600D01*
X-11980555Y-12905211D01*
X-11948971Y-12981462D01*
X-11931038Y-13024757D01*
X-11931037Y-13024760D01*
X-11859148Y-13132348D01*
X-11859147Y-13132349D01*
X-11767649Y-13223847D01*
X-11685697Y-13278606D01*
X-11677726Y-13283932D01*
X-11651151Y-13323706D01*
X-11660483Y-13370623D01*
X-11700257Y-13397198D01*
X-11702672Y-13397629D01*
X-11717128Y-13399918D01*
X-11717138Y-13399921D01*
X-11809901Y-13447187D01*
X-11857589Y-13450940D01*
X-11888309Y-13428953D01*
X-11890339Y-13426241D01*
X-12004173Y-13341026D01*
X-12004178Y-13341023D01*
X-12091600Y-13308415D01*
X-12091600Y-15901583D01*
X-12004179Y-15868977D01*
X-12004173Y-15868973D01*
X-11890341Y-15783760D01*
X-11888316Y-15781055D01*
X-11847182Y-15756638D01*
X-11809902Y-15762811D01*
X-11717133Y-15810080D01*
X-11717130Y-15810080D01*
X-11717128Y-15810081D01*
X-11624840Y-15824698D01*
X-11624834Y-15824698D01*
X-11624826Y-15824700D01*
X-11624824Y-15824700D01*
X-11562776Y-15824700D01*
X-11562774Y-15824700D01*
X-11539913Y-15821079D01*
X-11521626Y-15818183D01*
X-11475112Y-15829349D01*
X-11450118Y-15870135D01*
X-11461284Y-15916649D01*
X-11487929Y-15937655D01*
X-11503088Y-15943934D01*
X-11503093Y-15943936D01*
X-11603016Y-16010703D01*
X-11687997Y-16095684D01*
X-11754764Y-16195607D01*
X-11800755Y-16306641D01*
X-11824200Y-16424509D01*
X-11824200Y-16544690D01*
X-11800755Y-16662558D01*
X-11754764Y-16773592D01*
X-11687997Y-16873515D01*
X-11603016Y-16958496D01*
X-11571981Y-16979233D01*
X-11545405Y-17019007D01*
X-11554737Y-17065923D01*
X-11594511Y-17092499D01*
X-11606704Y-17093700D01*
X-13143951Y-17093700D01*
X-13186184Y-17077272D01*
X-13278977Y-16992212D01*
X-13299185Y-16948855D01*
X-13298042Y-16933943D01*
X-13296400Y-16925690D01*
X-13296400Y-16805510D01*
X-13319846Y-16687640D01*
X-13365836Y-16576609D01*
X-13376067Y-16561298D01*
X-13432604Y-16476684D01*
X-13517585Y-16391703D01*
X-13617508Y-16324936D01*
X-13728542Y-16278945D01*
X-13846410Y-16255500D01*
X-13966590Y-16255500D01*
X-14084459Y-16278945D01*
X-14195493Y-16324936D01*
X-14295414Y-16391702D01*
X-14341027Y-16437315D01*
X-14385222Y-16455620D01*
X-14429416Y-16437314D01*
X-14441064Y-16419882D01*
X-14441179Y-16419949D01*
X-14442193Y-16418193D01*
X-14442962Y-16417042D01*
X-14443227Y-16416402D01*
X-14443228Y-16416401D01*
X-14443228Y-16416400D01*
X-14533481Y-16298781D01*
X-14651100Y-16208528D01*
X-14658169Y-16205600D01*
X-14720436Y-16179808D01*
X-14788072Y-16151792D01*
X-14788075Y-16151791D01*
X-14788076Y-16151791D01*
X-14788080Y-16151790D01*
X-14898146Y-16137300D01*
X-14898152Y-16137300D01*
X-15151648Y-16137300D01*
X-15151655Y-16137300D01*
X-15261721Y-16151790D01*
X-15261725Y-16151791D01*
X-15261728Y-16151791D01*
X-15261728Y-16151792D01*
X-15267582Y-16154217D01*
X-15398699Y-16208527D01*
X-15516319Y-16298781D01*
X-15606573Y-16416401D01*
X-15626796Y-16465225D01*
X-15653546Y-16529806D01*
X-15663309Y-16553375D01*
X-15663310Y-16553379D01*
X-15677800Y-16663445D01*
X-15677800Y-17118554D01*
X-15663310Y-17228620D01*
X-15663309Y-17228624D01*
X-15663308Y-17228628D01*
X-15606572Y-17365600D01*
X-15516319Y-17483219D01*
X-15405452Y-17568291D01*
X-15381535Y-17609717D01*
X-15381000Y-17617875D01*
X-15381000Y-17724479D01*
X-15380999Y-17724487D01*
X-15356735Y-17815046D01*
X-15356731Y-17815055D01*
X-15309854Y-17896247D01*
X-15309847Y-17896256D01*
X-15073414Y-18132688D01*
X-15055108Y-18176882D01*
X-15061919Y-18205254D01*
X-15071542Y-18224140D01*
X-15071546Y-18224150D01*
X-15124695Y-18387726D01*
X-15124695Y-18387727D01*
X-15151599Y-18557589D01*
X-15151600Y-18557605D01*
X-15151600Y-18729594D01*
X-15151599Y-18729610D01*
X-15124695Y-18899472D01*
X-15124695Y-18899473D01*
X-15071546Y-19063049D01*
X-15071542Y-19063057D01*
X-14993460Y-19216302D01*
X-14892366Y-19355445D01*
X-14892359Y-19355453D01*
X-14770754Y-19477058D01*
X-14770746Y-19477065D01*
X-14654465Y-19561549D01*
X-14631600Y-19578161D01*
X-14505417Y-19642454D01*
X-14500136Y-19645145D01*
X-14469069Y-19681519D01*
X-14472822Y-19729207D01*
X-14509196Y-19760274D01*
X-14528332Y-19763333D01*
X-16138114Y-19767919D01*
X-16182360Y-19749739D01*
X-16200792Y-19705597D01*
X-16182612Y-19661351D01*
X-16166670Y-19649733D01*
X-16026200Y-19578161D01*
X-15887054Y-19477065D01*
X-15765435Y-19355446D01*
X-15664339Y-19216300D01*
X-15586255Y-19063051D01*
X-15533106Y-18899475D01*
X-15506200Y-18729597D01*
X-15506200Y-18557603D01*
X-15506208Y-18557555D01*
X-15529441Y-18410867D01*
X-15533106Y-18387725D01*
X-15586255Y-18224149D01*
X-15664339Y-18070900D01*
X-15684180Y-18043592D01*
X-15765435Y-17931754D01*
X-15765442Y-17931746D01*
X-15887047Y-17810141D01*
X-15887055Y-17810134D01*
X-16026198Y-17709040D01*
X-16179443Y-17630958D01*
X-16179456Y-17630952D01*
X-16191739Y-17626961D01*
X-16228112Y-17595893D01*
X-16231863Y-17548205D01*
X-16216616Y-17523325D01*
X-16187039Y-17493748D01*
X-16103700Y-17355891D01*
X-16055774Y-17202090D01*
X-16049701Y-17135261D01*
X-16049700Y-17135259D01*
X-16049700Y-17043000D01*
X-17556100Y-17043000D01*
X-17556100Y-17135261D01*
X-17550027Y-17202090D01*
X-17502101Y-17355891D01*
X-17418761Y-17493751D01*
X-17304852Y-17607660D01*
X-17236529Y-17648963D01*
X-17229055Y-17659121D01*
X-17218300Y-17665712D01*
X-17215440Y-17677624D01*
X-17208179Y-17687492D01*
X-17210077Y-17699960D01*
X-17207132Y-17712226D01*
X-17213534Y-17722672D01*
X-17215377Y-17734783D01*
X-17232126Y-17753012D01*
X-17253040Y-17768207D01*
X-17277004Y-17777770D01*
X-17276824Y-17778439D01*
X-17375306Y-17804827D01*
X-17375511Y-17804062D01*
X-17392793Y-17807500D01*
X-17675510Y-17807500D01*
X-17719704Y-17789194D01*
X-18430244Y-17078653D01*
X-18430253Y-17078646D01*
X-18511445Y-17031769D01*
X-18511454Y-17031765D01*
X-18602013Y-17007501D01*
X-18602018Y-17007500D01*
X-18602019Y-17007500D01*
X-18602020Y-17007500D01*
X-19025510Y-17007500D01*
X-19025514Y-17007498D01*
X-19025517Y-17007500D01*
X-19054825Y-16995357D01*
X-19069704Y-16989194D01*
X-19069709Y-16989190D01*
X-19074499Y-16984399D01*
X-19092800Y-16940209D01*
X-19092800Y-16736989D01*
X-19074494Y-16692795D01*
X-19069705Y-16688006D01*
X-19025511Y-16669700D01*
X-18502020Y-16669700D01*
X-18502019Y-16669700D01*
X-18416321Y-16646738D01*
X-17556100Y-16646738D01*
X-17556100Y-16739000D01*
X-16954900Y-16739000D01*
X-16650900Y-16739000D01*
X-16049700Y-16739000D01*
X-16049700Y-16646741D01*
X-16049701Y-16646738D01*
X-16055774Y-16579909D01*
X-16103700Y-16426108D01*
X-16187040Y-16288248D01*
X-16300949Y-16174339D01*
X-16438809Y-16090999D01*
X-16592604Y-16043075D01*
X-16592614Y-16043073D01*
X-16650900Y-16037775D01*
X-16650900Y-16739000D01*
X-16954900Y-16739000D01*
X-16954900Y-16037776D01*
X-16954901Y-16037775D01*
X-17013187Y-16043073D01*
X-17013197Y-16043075D01*
X-17166992Y-16090999D01*
X-17304852Y-16174339D01*
X-17418761Y-16288248D01*
X-17502101Y-16426108D01*
X-17550027Y-16579909D01*
X-17556100Y-16646738D01*
X-18416321Y-16646738D01*
X-18411450Y-16645433D01*
X-18330249Y-16598551D01*
X-17635396Y-15903695D01*
X-17635391Y-15903692D01*
X-17630251Y-15898551D01*
X-17630249Y-15898551D01*
X-17563949Y-15832251D01*
X-17517067Y-15751050D01*
X-17509271Y-15721954D01*
X-17492800Y-15660482D01*
X-17492800Y-15566719D01*
X-17492800Y-13748476D01*
X-17188200Y-13748476D01*
X-17188200Y-15461523D01*
X-17188199Y-15461539D01*
X-17173582Y-15553827D01*
X-17173579Y-15553837D01*
X-17116891Y-15665092D01*
X-17028593Y-15753390D01*
X-16917338Y-15810078D01*
X-16917336Y-15810078D01*
X-16917333Y-15810080D01*
X-16917330Y-15810080D01*
X-16917328Y-15810081D01*
X-16825040Y-15824698D01*
X-16825034Y-15824698D01*
X-16825026Y-15824700D01*
X-16825024Y-15824700D01*
X-16762976Y-15824700D01*
X-16762974Y-15824700D01*
X-16707267Y-15815877D01*
X-16670673Y-15810081D01*
X-16670673Y-15810080D01*
X-16670667Y-15810080D01*
X-16559407Y-15753390D01*
X-16513044Y-15707027D01*
X-16468850Y-15688721D01*
X-16424656Y-15707027D01*
X-16378293Y-15753390D01*
X-16267038Y-15810078D01*
X-16267036Y-15810078D01*
X-16267033Y-15810080D01*
X-16267030Y-15810080D01*
X-16267028Y-15810081D01*
X-16174740Y-15824698D01*
X-16174734Y-15824698D01*
X-16174726Y-15824700D01*
X-16174724Y-15824700D01*
X-16112676Y-15824700D01*
X-16112674Y-15824700D01*
X-16056967Y-15815877D01*
X-16020373Y-15810081D01*
X-16020373Y-15810080D01*
X-16020367Y-15810080D01*
X-15909107Y-15753390D01*
X-15863044Y-15707327D01*
X-15818850Y-15689021D01*
X-15774656Y-15707327D01*
X-15728593Y-15753390D01*
X-15617338Y-15810078D01*
X-15617336Y-15810078D01*
X-15617333Y-15810080D01*
X-15617330Y-15810080D01*
X-15617328Y-15810081D01*
X-15525040Y-15824698D01*
X-15525034Y-15824698D01*
X-15525026Y-15824700D01*
X-15525024Y-15824700D01*
X-15462976Y-15824700D01*
X-15462974Y-15824700D01*
X-15407267Y-15815877D01*
X-15370673Y-15810081D01*
X-15370673Y-15810080D01*
X-15370667Y-15810080D01*
X-15259407Y-15753390D01*
X-15213344Y-15707327D01*
X-15169150Y-15689021D01*
X-15124956Y-15707327D01*
X-15078893Y-15753390D01*
X-14967638Y-15810078D01*
X-14967636Y-15810078D01*
X-14967633Y-15810080D01*
X-14967630Y-15810080D01*
X-14967628Y-15810081D01*
X-14875340Y-15824698D01*
X-14875334Y-15824698D01*
X-14875326Y-15824700D01*
X-14875324Y-15824700D01*
X-14813276Y-15824700D01*
X-14813274Y-15824700D01*
X-14757567Y-15815877D01*
X-14720973Y-15810081D01*
X-14720973Y-15810080D01*
X-14720967Y-15810080D01*
X-14609707Y-15753390D01*
X-14563344Y-15707027D01*
X-14519150Y-15688721D01*
X-14474956Y-15707027D01*
X-14428593Y-15753390D01*
X-14317338Y-15810078D01*
X-14317336Y-15810078D01*
X-14317333Y-15810080D01*
X-14317330Y-15810080D01*
X-14317328Y-15810081D01*
X-14225040Y-15824698D01*
X-14225034Y-15824698D01*
X-14225026Y-15824700D01*
X-14225024Y-15824700D01*
X-14162976Y-15824700D01*
X-14162974Y-15824700D01*
X-14107267Y-15815877D01*
X-14070673Y-15810081D01*
X-14070673Y-15810080D01*
X-14070667Y-15810080D01*
X-13959407Y-15753390D01*
X-13913094Y-15707077D01*
X-13868900Y-15688771D01*
X-13824706Y-15707077D01*
X-13778393Y-15753390D01*
X-13667138Y-15810078D01*
X-13667136Y-15810078D01*
X-13667133Y-15810080D01*
X-13667130Y-15810080D01*
X-13667128Y-15810081D01*
X-13574840Y-15824698D01*
X-13574834Y-15824698D01*
X-13574826Y-15824700D01*
X-13574824Y-15824700D01*
X-13512776Y-15824700D01*
X-13512774Y-15824700D01*
X-13457067Y-15815877D01*
X-13420473Y-15810081D01*
X-13420473Y-15810080D01*
X-13420467Y-15810080D01*
X-13309207Y-15753390D01*
X-13262994Y-15707177D01*
X-13218800Y-15688871D01*
X-13174606Y-15707177D01*
X-13128393Y-15753390D01*
X-13017138Y-15810078D01*
X-13017136Y-15810078D01*
X-13017133Y-15810080D01*
X-13017130Y-15810080D01*
X-13017128Y-15810081D01*
X-12924840Y-15824698D01*
X-12924834Y-15824698D01*
X-12924826Y-15824700D01*
X-12924824Y-15824700D01*
X-12862776Y-15824700D01*
X-12862774Y-15824700D01*
X-12807067Y-15815877D01*
X-12770473Y-15810081D01*
X-12770473Y-15810080D01*
X-12770467Y-15810080D01*
X-12677410Y-15762664D01*
X-12629724Y-15758912D01*
X-12599004Y-15780897D01*
X-12596865Y-15783755D01*
X-12596861Y-15783759D01*
X-12483028Y-15868973D01*
X-12483022Y-15868977D01*
X-12395601Y-15901583D01*
X-12395600Y-15901582D01*
X-12395600Y-13308416D01*
X-12395601Y-13308415D01*
X-12483023Y-13341023D01*
X-12483028Y-13341026D01*
X-12596862Y-13426241D01*
X-12599006Y-13429106D01*
X-12640148Y-13453511D01*
X-12677410Y-13447334D01*
X-12770463Y-13399921D01*
X-12770473Y-13399918D01*
X-12862761Y-13385301D01*
X-12862773Y-13385300D01*
X-12862774Y-13385300D01*
X-12924826Y-13385300D01*
X-12924828Y-13385300D01*
X-12924840Y-13385301D01*
X-13017128Y-13399918D01*
X-13017138Y-13399921D01*
X-13128393Y-13456609D01*
X-13174606Y-13502823D01*
X-13218800Y-13521129D01*
X-13262994Y-13502823D01*
X-13309208Y-13456609D01*
X-13420463Y-13399921D01*
X-13420473Y-13399918D01*
X-13512761Y-13385301D01*
X-13512773Y-13385300D01*
X-13512774Y-13385300D01*
X-13574826Y-13385300D01*
X-13574828Y-13385300D01*
X-13574840Y-13385301D01*
X-13667128Y-13399918D01*
X-13667138Y-13399921D01*
X-13778393Y-13456609D01*
X-13824706Y-13502923D01*
X-13868900Y-13521229D01*
X-13913094Y-13502923D01*
X-13959408Y-13456609D01*
X-14070663Y-13399921D01*
X-14070673Y-13399918D01*
X-14162961Y-13385301D01*
X-14162973Y-13385300D01*
X-14162974Y-13385300D01*
X-14225026Y-13385300D01*
X-14225028Y-13385300D01*
X-14225040Y-13385301D01*
X-14317328Y-13399918D01*
X-14317338Y-13399921D01*
X-14428591Y-13456608D01*
X-14474956Y-13502973D01*
X-14519151Y-13521278D01*
X-14563344Y-13502973D01*
X-14585208Y-13481109D01*
X-14609707Y-13456610D01*
X-14609710Y-13456608D01*
X-14720963Y-13399921D01*
X-14720973Y-13399918D01*
X-14813261Y-13385301D01*
X-14813273Y-13385300D01*
X-14813274Y-13385300D01*
X-14875326Y-13385300D01*
X-14875328Y-13385300D01*
X-14875340Y-13385301D01*
X-14967628Y-13399918D01*
X-14967638Y-13399921D01*
X-15078893Y-13456609D01*
X-15124956Y-13502673D01*
X-15169150Y-13520979D01*
X-15213344Y-13502673D01*
X-15259408Y-13456609D01*
X-15370663Y-13399921D01*
X-15370673Y-13399918D01*
X-15462961Y-13385301D01*
X-15462973Y-13385300D01*
X-15462974Y-13385300D01*
X-15525026Y-13385300D01*
X-15525028Y-13385300D01*
X-15525040Y-13385301D01*
X-15617328Y-13399918D01*
X-15617338Y-13399921D01*
X-15728593Y-13456609D01*
X-15774656Y-13502673D01*
X-15818850Y-13520979D01*
X-15863044Y-13502673D01*
X-15909108Y-13456609D01*
X-16020363Y-13399921D01*
X-16020373Y-13399918D01*
X-16112661Y-13385301D01*
X-16112673Y-13385300D01*
X-16112674Y-13385300D01*
X-16174726Y-13385300D01*
X-16174728Y-13385300D01*
X-16174740Y-13385301D01*
X-16267028Y-13399918D01*
X-16267038Y-13399921D01*
X-16378291Y-13456608D01*
X-16424656Y-13502973D01*
X-16468851Y-13521278D01*
X-16513044Y-13502973D01*
X-16534908Y-13481109D01*
X-16559407Y-13456610D01*
X-16559410Y-13456608D01*
X-16670663Y-13399921D01*
X-16670673Y-13399918D01*
X-16762961Y-13385301D01*
X-16762973Y-13385300D01*
X-16762974Y-13385300D01*
X-16825026Y-13385300D01*
X-16825028Y-13385300D01*
X-16825040Y-13385301D01*
X-16917328Y-13399918D01*
X-16917338Y-13399921D01*
X-17028593Y-13456609D01*
X-17116891Y-13544907D01*
X-17173579Y-13656162D01*
X-17173582Y-13656172D01*
X-17188199Y-13748460D01*
X-17188200Y-13748476D01*
X-17492800Y-13748476D01*
X-17492800Y-13006800D01*
X-17474494Y-12962606D01*
X-17430300Y-12944300D01*
X-13205363Y-12944300D01*
X-13205362Y-12944300D01*
X-13121254Y-12921764D01*
X-13045845Y-12878226D01*
X-12984274Y-12816655D01*
X-12984274Y-12816653D01*
X-12979133Y-12811513D01*
X-12979129Y-12811508D01*
X-12550992Y-12383371D01*
X-12550987Y-12383367D01*
X-12545847Y-12378226D01*
X-12545845Y-12378226D01*
X-12484274Y-12316655D01*
X-12443896Y-12246719D01*
X-12440737Y-12241248D01*
X-12439485Y-12236576D01*
X-12436675Y-12226087D01*
X-12407558Y-12188138D01*
X-12360132Y-12181892D01*
X-12332111Y-12198069D01*
G37*
G04 #@! TD.AperFunction*
G04 #@! TA.AperFunction,Conductor*
G36*
X3495928Y-5984546D02*
G01*
X3533133Y-6016436D01*
X3536075Y-6018958D01*
X3539594Y-6022217D01*
X3695224Y-6177847D01*
X3766253Y-6248876D01*
X3853246Y-6299101D01*
X3884920Y-6307588D01*
X3950270Y-6325099D01*
X3950273Y-6325099D01*
X3950275Y-6325100D01*
X4767775Y-6325100D01*
X4811969Y-6343406D01*
X4824419Y-6361186D01*
X4840892Y-6396513D01*
X4920186Y-6475807D01*
X4920187Y-6475807D01*
X4920189Y-6475809D01*
X5021826Y-6523203D01*
X5068136Y-6529300D01*
X5512844Y-6529300D01*
X5544094Y-6537673D01*
X5555826Y-6544447D01*
X5685155Y-6579100D01*
X6868419Y-6579100D01*
X6912613Y-6597406D01*
X6918001Y-6603549D01*
X6963481Y-6662819D01*
X7081100Y-6753072D01*
X7218072Y-6809808D01*
X7218078Y-6809808D01*
X7218079Y-6809809D01*
X7264468Y-6815916D01*
X7328152Y-6824300D01*
X7328158Y-6824300D01*
X7581642Y-6824300D01*
X7581648Y-6824300D01*
X7645328Y-6815916D01*
X7691532Y-6828296D01*
X7715450Y-6869723D01*
X7711228Y-6901798D01*
X7680784Y-6975300D01*
X7663237Y-7017664D01*
X7661444Y-7021992D01*
X7636200Y-7148899D01*
X7636200Y-7278300D01*
X7661323Y-7404601D01*
X7661445Y-7405211D01*
X7690521Y-7475407D01*
X7710962Y-7524757D01*
X7710963Y-7524760D01*
X7775979Y-7622062D01*
X7782853Y-7632349D01*
X7874351Y-7723847D01*
X7874354Y-7723849D01*
X7875765Y-7725007D01*
X7876056Y-7725552D01*
X7876522Y-7726018D01*
X7876380Y-7726159D01*
X7898314Y-7767195D01*
X7884428Y-7812970D01*
X7880314Y-7817509D01*
X7874948Y-7822875D01*
X7874948Y-7822876D01*
X7874947Y-7822877D01*
X7874946Y-7822879D01*
X7830874Y-7913031D01*
X7820515Y-7934220D01*
X7810000Y-8006395D01*
X7810000Y-8192000D01*
X7791694Y-8236194D01*
X7747500Y-8254500D01*
X7162299Y-8254500D01*
X7118105Y-8236194D01*
X7099799Y-8192000D01*
X7099799Y-7303786D01*
X7099798Y-7303772D01*
X7084751Y-7189470D01*
X7084750Y-7189466D01*
X7084750Y-7189463D01*
X7025834Y-7047227D01*
X6932113Y-6925087D01*
X6809973Y-6831366D01*
X6667737Y-6772450D01*
X6667734Y-6772449D01*
X6667733Y-6772449D01*
X6667730Y-6772448D01*
X6565856Y-6759037D01*
X6553421Y-6757400D01*
X6553420Y-6757400D01*
X4698786Y-6757400D01*
X4698772Y-6757401D01*
X4584470Y-6772448D01*
X4584466Y-6772449D01*
X4584463Y-6772449D01*
X4584463Y-6772450D01*
X4442227Y-6831366D01*
X4320087Y-6925087D01*
X4226366Y-7047227D01*
X4176427Y-7167792D01*
X4167449Y-7189466D01*
X4167448Y-7189469D01*
X4152400Y-7303774D01*
X4152400Y-9285413D01*
X4152401Y-9285427D01*
X4167448Y-9399729D01*
X4167449Y-9399733D01*
X4167450Y-9399737D01*
X4226366Y-9541973D01*
X4320087Y-9664113D01*
X4442227Y-9757834D01*
X4584463Y-9816750D01*
X4584467Y-9816750D01*
X4584469Y-9816751D01*
X4604314Y-9819363D01*
X4698779Y-9831800D01*
X5245201Y-9831799D01*
X5289394Y-9850105D01*
X5307700Y-9894299D01*
X5289394Y-9938493D01*
X5188039Y-10039848D01*
X5104699Y-10177708D01*
X5056773Y-10331509D01*
X5050700Y-10398338D01*
X5050700Y-10490600D01*
X6557100Y-10490600D01*
X6557100Y-10398341D01*
X6557099Y-10398338D01*
X6551026Y-10331509D01*
X6503100Y-10177708D01*
X6419760Y-10039848D01*
X6318405Y-9938493D01*
X6300099Y-9894299D01*
X6318405Y-9850105D01*
X6362598Y-9831799D01*
X6553420Y-9831799D01*
X6667737Y-9816750D01*
X6809973Y-9757834D01*
X6932113Y-9664113D01*
X7025834Y-9541973D01*
X7037718Y-9513281D01*
X7071541Y-9479458D01*
X7095460Y-9474700D01*
X7749405Y-9474700D01*
X7793599Y-9493006D01*
X7811252Y-9528190D01*
X7820515Y-9591779D01*
X7820516Y-9591782D01*
X7874946Y-9703121D01*
X7874947Y-9703122D01*
X7918694Y-9746869D01*
X7937000Y-9791063D01*
X7937000Y-9858844D01*
X7918694Y-9903038D01*
X7874500Y-9921344D01*
X7850583Y-9916587D01*
X7818728Y-9903392D01*
X7818726Y-9903391D01*
X7818720Y-9903390D01*
X7708654Y-9888900D01*
X7708648Y-9888900D01*
X7455152Y-9888900D01*
X7455145Y-9888900D01*
X7345079Y-9903390D01*
X7345075Y-9903391D01*
X7345072Y-9903391D01*
X7345072Y-9903392D01*
X7313217Y-9916587D01*
X7208101Y-9960127D01*
X7090481Y-10050381D01*
X7000227Y-10168001D01*
X6964737Y-10253682D01*
X6947312Y-10295751D01*
X6943491Y-10304975D01*
X6943490Y-10304979D01*
X6929000Y-10415045D01*
X6929000Y-10870154D01*
X6943490Y-10980220D01*
X6943491Y-10980226D01*
X6943492Y-10980228D01*
X6961937Y-11024759D01*
X6967042Y-11037082D01*
X6971800Y-11061000D01*
X6971800Y-11370400D01*
X6953494Y-11414594D01*
X6909300Y-11432900D01*
X6383100Y-11432900D01*
X6338906Y-11414594D01*
X6320600Y-11370400D01*
X6338906Y-11326206D01*
X6419760Y-11245351D01*
X6503100Y-11107491D01*
X6551026Y-10953690D01*
X6557099Y-10886861D01*
X6557100Y-10886859D01*
X6557100Y-10794600D01*
X5955900Y-10794600D01*
X5955900Y-11502141D01*
X5971017Y-11534419D01*
X5954732Y-11579397D01*
X5951183Y-11582637D01*
X5951192Y-11582646D01*
X5948169Y-11585668D01*
X5859520Y-11702570D01*
X5859517Y-11702575D01*
X5805699Y-11839049D01*
X5795401Y-11924803D01*
X5795400Y-11924820D01*
X5795400Y-14948379D01*
X5795401Y-14948396D01*
X5805699Y-15034150D01*
X5859517Y-15170624D01*
X5859520Y-15170629D01*
X5859521Y-15170631D01*
X5948169Y-15287531D01*
X6065069Y-15376179D01*
X6065071Y-15376180D01*
X6065075Y-15376182D01*
X6138678Y-15405207D01*
X6201551Y-15430001D01*
X6287314Y-15440300D01*
X7239500Y-15440300D01*
X7283694Y-15458606D01*
X7302000Y-15502800D01*
X7302000Y-16241358D01*
X7293430Y-16262047D01*
X7285956Y-16283168D01*
X7284367Y-16283926D01*
X7283694Y-16285552D01*
X7263003Y-16294122D01*
X7242785Y-16303772D01*
X7241125Y-16303184D01*
X7239500Y-16303858D01*
X7197690Y-16287814D01*
X7188690Y-16279714D01*
X7168086Y-16236543D01*
X7168000Y-16233258D01*
X7168000Y-16130058D01*
X7167999Y-16130045D01*
X7165916Y-16114226D01*
X7153508Y-16019972D01*
X7096772Y-15883000D01*
X7006519Y-15765381D01*
X6888900Y-15675128D01*
X6884576Y-15673337D01*
X6851412Y-15659600D01*
X6751928Y-15618392D01*
X6751925Y-15618391D01*
X6751924Y-15618391D01*
X6751920Y-15618390D01*
X6641854Y-15603900D01*
X6641848Y-15603900D01*
X6388352Y-15603900D01*
X6388345Y-15603900D01*
X6278279Y-15618390D01*
X6278275Y-15618391D01*
X6278272Y-15618391D01*
X6278272Y-15618392D01*
X6262616Y-15624877D01*
X6141301Y-15675127D01*
X6023681Y-15765381D01*
X5933427Y-15883001D01*
X5921420Y-15911989D01*
X5880532Y-16010703D01*
X5876691Y-16019975D01*
X5876690Y-16019979D01*
X5862200Y-16130045D01*
X5862200Y-16585154D01*
X5876690Y-16695220D01*
X5876691Y-16695224D01*
X5876692Y-16695228D01*
X5933428Y-16832200D01*
X6023681Y-16949819D01*
X6141300Y-17040072D01*
X6278272Y-17096808D01*
X6278278Y-17096808D01*
X6278279Y-17096809D01*
X6333312Y-17104054D01*
X6388352Y-17111300D01*
X6568432Y-17111300D01*
X6610241Y-17127343D01*
X7203410Y-17661195D01*
X7281310Y-17731305D01*
X7301914Y-17774476D01*
X7302000Y-17777761D01*
X7302000Y-17814690D01*
X7325444Y-17932558D01*
X7325445Y-17932561D01*
X7355400Y-18004876D01*
X7355400Y-18004878D01*
X7355401Y-18004878D01*
X7371435Y-18043590D01*
X7371436Y-18043592D01*
X7416277Y-18110700D01*
X7438203Y-18143515D01*
X7705555Y-18410867D01*
X7723861Y-18455061D01*
X7723092Y-18464838D01*
X7708400Y-18557601D01*
X7708400Y-18729594D01*
X7708401Y-18729610D01*
X7735305Y-18899472D01*
X7735305Y-18899473D01*
X7788454Y-19063049D01*
X7788458Y-19063057D01*
X7866540Y-19216302D01*
X7967634Y-19355445D01*
X7967641Y-19355453D01*
X8089246Y-19477058D01*
X8089254Y-19477065D01*
X8205535Y-19561549D01*
X8228400Y-19578161D01*
X8230736Y-19579351D01*
X8232755Y-19580380D01*
X8263820Y-19616755D01*
X8260066Y-19664443D01*
X8223691Y-19695508D01*
X8204557Y-19698567D01*
X6850426Y-19702425D01*
X6806180Y-19684245D01*
X6787748Y-19640103D01*
X6805928Y-19595857D01*
X6821870Y-19584239D01*
X6833800Y-19578161D01*
X6972946Y-19477065D01*
X7094565Y-19355446D01*
X7195661Y-19216300D01*
X7273745Y-19063051D01*
X7326894Y-18899475D01*
X7353800Y-18729597D01*
X7353800Y-18557603D01*
X7353792Y-18557555D01*
X7330559Y-18410867D01*
X7326894Y-18387725D01*
X7273745Y-18224149D01*
X7195661Y-18070900D01*
X7175820Y-18043592D01*
X7094565Y-17931754D01*
X7094558Y-17931746D01*
X6972953Y-17810141D01*
X6972945Y-17810134D01*
X6833802Y-17709040D01*
X6680557Y-17630958D01*
X6680549Y-17630954D01*
X6516973Y-17577805D01*
X6347110Y-17550901D01*
X6347098Y-17550900D01*
X6347097Y-17550900D01*
X6175103Y-17550900D01*
X6175101Y-17550900D01*
X6175089Y-17550901D01*
X6005227Y-17577805D01*
X6005226Y-17577805D01*
X5841650Y-17630954D01*
X5841646Y-17630956D01*
X5798958Y-17652706D01*
X5751270Y-17656458D01*
X5726391Y-17641211D01*
X5259291Y-17174111D01*
X5255726Y-17170546D01*
X5255726Y-17170545D01*
X5251364Y-17166183D01*
X5243438Y-17158256D01*
X5233327Y-17133841D01*
X5225135Y-17114065D01*
X5225135Y-17114061D01*
X5234213Y-17092150D01*
X5243441Y-17069871D01*
X5352960Y-16960351D01*
X5436300Y-16822491D01*
X5484226Y-16668690D01*
X5490299Y-16601861D01*
X5490300Y-16601859D01*
X5490300Y-16509600D01*
X3983900Y-16509600D01*
X3983900Y-16601861D01*
X3989973Y-16668690D01*
X4037899Y-16822491D01*
X4113813Y-16948066D01*
X4121011Y-16995357D01*
X4092661Y-17033886D01*
X4060327Y-17042900D01*
X3375968Y-17042900D01*
X3331774Y-17024594D01*
X3075122Y-16767942D01*
X3071327Y-16764147D01*
X3071326Y-16764145D01*
X3009755Y-16702574D01*
X3007587Y-16701322D01*
X3002944Y-16696742D01*
X2995035Y-16678010D01*
X2984870Y-16660403D01*
X2985930Y-16656446D01*
X2984337Y-16652673D01*
X2991989Y-16633836D01*
X2997252Y-16614198D01*
X3002309Y-16608431D01*
X3002341Y-16608355D01*
X3002398Y-16608330D01*
X3002634Y-16608061D01*
X3088347Y-16522349D01*
X3160237Y-16414759D01*
X3209755Y-16295211D01*
X3235000Y-16168299D01*
X3235000Y-16113338D01*
X3983900Y-16113338D01*
X3983900Y-16205600D01*
X4585100Y-16205600D01*
X4889100Y-16205600D01*
X5490300Y-16205600D01*
X5490300Y-16113341D01*
X5490299Y-16113338D01*
X5484226Y-16046509D01*
X5436300Y-15892708D01*
X5352960Y-15754848D01*
X5239051Y-15640939D01*
X5101191Y-15557599D01*
X4947396Y-15509675D01*
X4947386Y-15509673D01*
X4889100Y-15504375D01*
X4889100Y-16205600D01*
X4585100Y-16205600D01*
X4585100Y-15504376D01*
X4585099Y-15504375D01*
X4526813Y-15509673D01*
X4526803Y-15509675D01*
X4373008Y-15557599D01*
X4235148Y-15640939D01*
X4121239Y-15754848D01*
X4037899Y-15892708D01*
X3989973Y-16046509D01*
X3983900Y-16113338D01*
X3235000Y-16113338D01*
X3235000Y-16038901D01*
X3209755Y-15911989D01*
X3160237Y-15792441D01*
X3160234Y-15792437D01*
X3088347Y-15684851D01*
X2996848Y-15593352D01*
X2943340Y-15557599D01*
X2937403Y-15553632D01*
X2910828Y-15513859D01*
X2920160Y-15466943D01*
X2948208Y-15443924D01*
X3016259Y-15415737D01*
X3123849Y-15343847D01*
X3215347Y-15252349D01*
X3287237Y-15144759D01*
X3336755Y-15025211D01*
X3337845Y-15019730D01*
X3337991Y-15018998D01*
X3364566Y-14979224D01*
X3411482Y-14969891D01*
X3443484Y-14986996D01*
X3509984Y-15053496D01*
X3609907Y-15120263D01*
X3609908Y-15120263D01*
X3609909Y-15120264D01*
X3720940Y-15166254D01*
X3838810Y-15189700D01*
X3958990Y-15189700D01*
X4076860Y-15166254D01*
X4187891Y-15120264D01*
X4287816Y-15053496D01*
X4372796Y-14968516D01*
X4439564Y-14868591D01*
X4485554Y-14757560D01*
X4509000Y-14639690D01*
X4509000Y-14519510D01*
X4485554Y-14401640D01*
X4439564Y-14290609D01*
X4439563Y-14290607D01*
X4438389Y-14287773D01*
X4439104Y-14287476D01*
X4432800Y-14262298D01*
X4432800Y-10886861D01*
X5050700Y-10886861D01*
X5056773Y-10953690D01*
X5104699Y-11107491D01*
X5188039Y-11245351D01*
X5301948Y-11359260D01*
X5439808Y-11442600D01*
X5593605Y-11490525D01*
X5651900Y-11495822D01*
X5651900Y-10794600D01*
X5050700Y-10794600D01*
X5050700Y-10886861D01*
X4432800Y-10886861D01*
X4432800Y-10691181D01*
X4432801Y-10691168D01*
X4432801Y-10599064D01*
X4432799Y-10599056D01*
X4431909Y-10595736D01*
X4418128Y-10544301D01*
X4412647Y-10523846D01*
X4410264Y-10514954D01*
X4400877Y-10498696D01*
X4366726Y-10439545D01*
X4366725Y-10439544D01*
X4338684Y-10411503D01*
X4305155Y-10377974D01*
X4305152Y-10377972D01*
X4302972Y-10375792D01*
X4302972Y-10375791D01*
X4302966Y-10375786D01*
X3714506Y-9787326D01*
X3696200Y-9743132D01*
X3696200Y-9456063D01*
X3696198Y-9456055D01*
X3694300Y-9448973D01*
X3673664Y-9371954D01*
X3673663Y-9371951D01*
X3630126Y-9296545D01*
X3630125Y-9296544D01*
X3600821Y-9267240D01*
X3568555Y-9234974D01*
X3568554Y-9234973D01*
X3291150Y-8957570D01*
X3272845Y-8913377D01*
X3291151Y-8869183D01*
X3323150Y-8852078D01*
X3404711Y-8835855D01*
X3524259Y-8786337D01*
X3631849Y-8714447D01*
X3723347Y-8622949D01*
X3795237Y-8515359D01*
X3844755Y-8395811D01*
X3870000Y-8268899D01*
X3870000Y-8139501D01*
X3844755Y-8012589D01*
X3795237Y-7893041D01*
X3791815Y-7887920D01*
X3723347Y-7785451D01*
X3631848Y-7693952D01*
X3524260Y-7622063D01*
X3524257Y-7622062D01*
X3484120Y-7605437D01*
X3404711Y-7572545D01*
X3404707Y-7572544D01*
X3277800Y-7547300D01*
X3277799Y-7547300D01*
X3148401Y-7547300D01*
X3148399Y-7547300D01*
X3021492Y-7572544D01*
X3021490Y-7572544D01*
X3021489Y-7572545D01*
X2996492Y-7582899D01*
X2901942Y-7622062D01*
X2901939Y-7622063D01*
X2794351Y-7693952D01*
X2706080Y-7782223D01*
X2661886Y-7800529D01*
X2661427Y-7800527D01*
X1973066Y-7795475D01*
X1929008Y-7776846D01*
X1911027Y-7732518D01*
X1917376Y-7705527D01*
X1966332Y-7605385D01*
X1977100Y-7531482D01*
X1977100Y-7473600D01*
X719100Y-7473600D01*
X717293Y-7475407D01*
X673098Y-7493712D01*
X628906Y-7475406D01*
X627100Y-7473600D01*
X-630899Y-7473600D01*
X-630899Y-7520400D01*
X-649205Y-7564594D01*
X-693399Y-7582900D01*
X-5101522Y-7582900D01*
X-5101538Y-7582899D01*
X-5105363Y-7582899D01*
X-5192437Y-7582899D01*
X-5192442Y-7582899D01*
X-5243747Y-7596647D01*
X-5254009Y-7599397D01*
X-5275040Y-7605032D01*
X-5276550Y-7605437D01*
X-5351955Y-7648973D01*
X-5351956Y-7648974D01*
X-5368408Y-7665427D01*
X-5413526Y-7710545D01*
X-5413528Y-7710547D01*
X-5851953Y-8148972D01*
X-5851955Y-8148974D01*
X-5874661Y-8171680D01*
X-5913526Y-8210544D01*
X-5913527Y-8210545D01*
X-5957064Y-8285951D01*
X-5957065Y-8285954D01*
X-5979599Y-8370055D01*
X-5979600Y-8370063D01*
X-5979600Y-9000732D01*
X-5997906Y-9044926D01*
X-6817574Y-9864594D01*
X-6861768Y-9882900D01*
X-7736032Y-9882900D01*
X-7780226Y-9864594D01*
X-8130706Y-9514114D01*
X-8130718Y-9514100D01*
X-8195840Y-9448978D01*
X-8195846Y-9448973D01*
X-8271252Y-9405436D01*
X-8271255Y-9405435D01*
X-8355356Y-9382901D01*
X-8355361Y-9382900D01*
X-8355362Y-9382900D01*
X-8355363Y-9382900D01*
X-10286031Y-9382900D01*
X-10330225Y-9364594D01*
X-10885943Y-8808876D01*
X-10904249Y-8764682D01*
X-10885943Y-8720488D01*
X-10851529Y-8702952D01*
X-10820767Y-8698080D01*
X-10727710Y-8650664D01*
X-10680024Y-8646912D01*
X-10649304Y-8668897D01*
X-10647165Y-8671755D01*
X-10647161Y-8671759D01*
X-10533328Y-8756973D01*
X-10533322Y-8756977D01*
X-10445901Y-8789583D01*
X-10141900Y-8789583D01*
X-10054479Y-8756977D01*
X-10054473Y-8756973D01*
X-10006355Y-8720953D01*
X-9960006Y-8709123D01*
X-9931445Y-8720953D01*
X-9883328Y-8756973D01*
X-9883322Y-8756977D01*
X-9795901Y-8789583D01*
X-9795900Y-8789582D01*
X-9795900Y-7645000D01*
X-10141900Y-7645000D01*
X-10141900Y-8789583D01*
X-10445901Y-8789583D01*
X-10445900Y-8789582D01*
X-10445900Y-7555500D01*
X-10427594Y-7511306D01*
X-10383400Y-7493000D01*
X-10293900Y-7493000D01*
X-10293900Y-7403500D01*
X-10275594Y-7359306D01*
X-10231400Y-7341000D01*
X-9706400Y-7341000D01*
X-9662206Y-7359306D01*
X-9643900Y-7403500D01*
X-9643900Y-7493000D01*
X-9554400Y-7493000D01*
X-9510206Y-7511306D01*
X-9491900Y-7555500D01*
X-9491900Y-8789583D01*
X-9404479Y-8756977D01*
X-9404473Y-8756973D01*
X-9290640Y-8671759D01*
X-9288472Y-8668864D01*
X-9247334Y-8644453D01*
X-9210064Y-8650627D01*
X-9116933Y-8698080D01*
X-9116930Y-8698080D01*
X-9116928Y-8698081D01*
X-9024640Y-8712698D01*
X-9024634Y-8712698D01*
X-9024626Y-8712700D01*
X-9024624Y-8712700D01*
X-8962576Y-8712700D01*
X-8962574Y-8712700D01*
X-8954258Y-8711383D01*
X-8870273Y-8698081D01*
X-8870273Y-8698080D01*
X-8870267Y-8698080D01*
X-8759007Y-8641390D01*
X-8712944Y-8595327D01*
X-8668750Y-8577021D01*
X-8624556Y-8595327D01*
X-8578493Y-8641390D01*
X-8467238Y-8698078D01*
X-8467236Y-8698078D01*
X-8467233Y-8698080D01*
X-8467230Y-8698080D01*
X-8467228Y-8698081D01*
X-8374940Y-8712698D01*
X-8374934Y-8712698D01*
X-8374926Y-8712700D01*
X-8374924Y-8712700D01*
X-8312876Y-8712700D01*
X-8312874Y-8712700D01*
X-8304558Y-8711383D01*
X-8220573Y-8698081D01*
X-8220573Y-8698080D01*
X-8220567Y-8698080D01*
X-8109307Y-8641390D01*
X-8021010Y-8553093D01*
X-7964320Y-8441833D01*
X-7952503Y-8367225D01*
X-7949702Y-8349539D01*
X-7949700Y-8349523D01*
X-7949700Y-6636476D01*
X-7949702Y-6636460D01*
X-7964319Y-6544172D01*
X-7964321Y-6544165D01*
X-7965103Y-6542630D01*
X-7977871Y-6517573D01*
X-7981623Y-6469887D01*
X-7950557Y-6433512D01*
X-7922182Y-6426700D01*
X-1115368Y-6426700D01*
X-1071174Y-6445006D01*
X-990714Y-6525466D01*
X-990709Y-6525472D01*
X-990708Y-6525472D01*
X-988528Y-6527652D01*
X-988526Y-6527655D01*
X-949781Y-6566400D01*
X-926956Y-6589225D01*
X-926952Y-6589228D01*
X-889945Y-6610594D01*
X-851546Y-6632764D01*
X-829009Y-6638802D01*
X-767437Y-6655301D01*
X-676538Y-6655301D01*
X-676522Y-6655300D01*
X-593100Y-6655300D01*
X-548906Y-6673606D01*
X-530600Y-6717800D01*
X-530600Y-6737190D01*
X-527885Y-6760593D01*
X-522650Y-6772450D01*
X-506368Y-6809323D01*
X-505262Y-6857146D01*
X-519347Y-6878763D01*
X-564406Y-6923822D01*
X-620133Y-7037813D01*
X-620133Y-7037814D01*
X-630900Y-7111717D01*
X-630900Y-7169600D01*
X627098Y-7169600D01*
X628904Y-7167794D01*
X673097Y-7149487D01*
X717292Y-7167792D01*
X719100Y-7169600D01*
X1977099Y-7169600D01*
X1977099Y-7111718D01*
X1966333Y-7037817D01*
X1966331Y-7037813D01*
X1932031Y-6967649D01*
X1929068Y-6919906D01*
X1960732Y-6884050D01*
X1988181Y-6877700D01*
X2140900Y-6877700D01*
X2185094Y-6896006D01*
X2239984Y-6950896D01*
X2339907Y-7017663D01*
X2339908Y-7017663D01*
X2339909Y-7017664D01*
X2450940Y-7063654D01*
X2568810Y-7087100D01*
X2688990Y-7087100D01*
X2806860Y-7063654D01*
X2917891Y-7017664D01*
X3017816Y-6950896D01*
X3102796Y-6865916D01*
X3169564Y-6765991D01*
X3215554Y-6654960D01*
X3239000Y-6537090D01*
X3239000Y-6416910D01*
X3215554Y-6299040D01*
X3169564Y-6188009D01*
X3168808Y-6186878D01*
X3102796Y-6088084D01*
X3090906Y-6076194D01*
X3072600Y-6032000D01*
X3090906Y-5987806D01*
X3135100Y-5969500D01*
X3455254Y-5969500D01*
X3495928Y-5984546D01*
G37*
G04 #@! TD.AperFunction*
G04 #@! TA.AperFunction,Conductor*
G36*
X10019188Y-11280549D02*
G01*
X10025467Y-11279301D01*
X10040625Y-11289429D01*
X10057468Y-11296406D01*
X10059917Y-11302320D01*
X10065241Y-11305877D01*
X10068797Y-11323757D01*
X10075774Y-11340600D01*
X10073324Y-11346514D01*
X10074573Y-11352793D01*
X10064444Y-11367951D01*
X10057468Y-11384794D01*
X10047997Y-11392567D01*
X10033351Y-11402352D01*
X9941852Y-11493851D01*
X9869963Y-11601439D01*
X9869962Y-11601442D01*
X9820444Y-11720992D01*
X9795200Y-11847899D01*
X9795200Y-11977300D01*
X9815103Y-12077359D01*
X9820445Y-12104211D01*
X9849566Y-12174516D01*
X9869962Y-12223757D01*
X9869963Y-12223760D01*
X9941852Y-12331348D01*
X10026894Y-12416390D01*
X10045200Y-12460584D01*
X10045200Y-17808175D01*
X10072929Y-17911655D01*
X10072929Y-17911657D01*
X10126500Y-18004444D01*
X10305725Y-18183669D01*
X10324031Y-18227863D01*
X10320972Y-18247176D01*
X10275306Y-18387722D01*
X10275305Y-18387727D01*
X10248401Y-18557589D01*
X10248400Y-18557605D01*
X10248400Y-18729594D01*
X10248401Y-18729610D01*
X10275305Y-18899472D01*
X10275305Y-18899473D01*
X10328454Y-19063049D01*
X10328458Y-19063057D01*
X10406540Y-19216302D01*
X10507634Y-19355445D01*
X10507641Y-19355453D01*
X10629246Y-19477058D01*
X10629254Y-19477065D01*
X10768594Y-19578302D01*
X10793588Y-19619088D01*
X10782420Y-19665602D01*
X10741634Y-19690596D01*
X10732035Y-19691365D01*
X9404681Y-19695147D01*
X9360435Y-19676967D01*
X9342003Y-19632825D01*
X9360183Y-19588579D01*
X9371856Y-19579351D01*
X9373791Y-19578165D01*
X9373800Y-19578161D01*
X9378402Y-19574818D01*
X9411042Y-19551102D01*
X9512946Y-19477065D01*
X9634565Y-19355446D01*
X9735661Y-19216300D01*
X9813745Y-19063051D01*
X9866894Y-18899475D01*
X9893800Y-18729597D01*
X9893800Y-18557603D01*
X9893792Y-18557555D01*
X9870559Y-18410867D01*
X9866894Y-18387725D01*
X9813745Y-18224149D01*
X9735661Y-18070900D01*
X9715820Y-18043592D01*
X9634565Y-17931754D01*
X9634558Y-17931746D01*
X9512953Y-17810141D01*
X9512945Y-17810134D01*
X9373802Y-17709040D01*
X9220557Y-17630958D01*
X9220549Y-17630954D01*
X9056973Y-17577805D01*
X8887110Y-17550901D01*
X8887098Y-17550900D01*
X8887097Y-17550900D01*
X8715103Y-17550900D01*
X8715101Y-17550900D01*
X8622338Y-17565592D01*
X8617323Y-17564388D01*
X8612561Y-17566361D01*
X8594662Y-17558947D01*
X8575824Y-17554424D01*
X8568367Y-17548055D01*
X8540506Y-17520194D01*
X8522200Y-17476000D01*
X8522200Y-14189511D01*
X8522199Y-14189507D01*
X8521835Y-14187679D01*
X8517215Y-14164447D01*
X8498755Y-14071641D01*
X8461769Y-13982349D01*
X8452764Y-13960609D01*
X8452762Y-13960606D01*
X8452762Y-13960605D01*
X8413333Y-13901595D01*
X8402800Y-13866872D01*
X8402800Y-11924820D01*
X8402800Y-11924814D01*
X8392501Y-11839051D01*
X8375137Y-11795019D01*
X8338682Y-11702575D01*
X8338679Y-11702570D01*
X8338679Y-11702569D01*
X8271428Y-11613885D01*
X8250032Y-11585670D01*
X8250031Y-11585669D01*
X8216733Y-11560418D01*
X8214461Y-11556534D01*
X8210306Y-11554813D01*
X8202664Y-11536366D01*
X8192582Y-11519128D01*
X8192000Y-11510619D01*
X8192000Y-11442200D01*
X8210306Y-11398006D01*
X8254500Y-11379700D01*
X9369190Y-11379700D01*
X9487060Y-11356254D01*
X9598091Y-11310264D01*
X9630464Y-11288632D01*
X9665187Y-11278100D01*
X10013274Y-11278100D01*
X10019188Y-11280549D01*
G37*
G04 #@! TD.AperFunction*
G04 #@! TA.AperFunction,Conductor*
G36*
X18400647Y-2177406D02*
G01*
X18418953Y-2221600D01*
X18400647Y-2265794D01*
X18386070Y-2276637D01*
X18261463Y-2343690D01*
X18261451Y-2343698D01*
X18083452Y-2485648D01*
X18083450Y-2485650D01*
X17933650Y-2657109D01*
X17933646Y-2657115D01*
X17816872Y-2852561D01*
X17736868Y-3065730D01*
X17736867Y-3065733D01*
X17720053Y-3158386D01*
X17703138Y-3251600D01*
X17696213Y-3289758D01*
X17696213Y-3403600D01*
X17696213Y-3517442D01*
X17736867Y-3741467D01*
X17736868Y-3741469D01*
X17816872Y-3954638D01*
X17933646Y-4150084D01*
X17933650Y-4150090D01*
X18083450Y-4321549D01*
X18083452Y-4321551D01*
X18261451Y-4463501D01*
X18261458Y-4463505D01*
X18261461Y-4463508D01*
X18461958Y-4571400D01*
X18461960Y-4571400D01*
X18461963Y-4571402D01*
X18541250Y-4597163D01*
X18678498Y-4641758D01*
X18904122Y-4672321D01*
X19131576Y-4662106D01*
X19353552Y-4611442D01*
X19562913Y-4521956D01*
X19752932Y-4396526D01*
X19917501Y-4239182D01*
X20051330Y-4054982D01*
X20086789Y-3981349D01*
X20122457Y-3949474D01*
X20170217Y-3952156D01*
X20202093Y-3987824D01*
X20205600Y-4008467D01*
X20205600Y-18038732D01*
X20187294Y-18082926D01*
X20143100Y-18101232D01*
X20098906Y-18082926D01*
X20086789Y-18065850D01*
X20063904Y-18018329D01*
X20051330Y-17992218D01*
X19917501Y-17808018D01*
X19914163Y-17804827D01*
X19752931Y-17650673D01*
X19752928Y-17650671D01*
X19669942Y-17595893D01*
X19562913Y-17525244D01*
X19562910Y-17525242D01*
X19562909Y-17525242D01*
X19353558Y-17435760D01*
X19353555Y-17435759D01*
X19353552Y-17435758D01*
X19190572Y-17398559D01*
X19131577Y-17385094D01*
X18904123Y-17374879D01*
X18904117Y-17374879D01*
X18678506Y-17405440D01*
X18678500Y-17405441D01*
X18461963Y-17475797D01*
X18461959Y-17475799D01*
X18261463Y-17583690D01*
X18261451Y-17583698D01*
X18083452Y-17725648D01*
X18083450Y-17725650D01*
X17933650Y-17897109D01*
X17933646Y-17897115D01*
X17816872Y-18092561D01*
X17736868Y-18305730D01*
X17736867Y-18305733D01*
X17720053Y-18398386D01*
X17698039Y-18519698D01*
X17696213Y-18529758D01*
X17696213Y-18643600D01*
X17696213Y-18757442D01*
X17736867Y-18981467D01*
X17736868Y-18981469D01*
X17816872Y-19194638D01*
X17933646Y-19390084D01*
X17933650Y-19390090D01*
X17962540Y-19423157D01*
X18076476Y-19553567D01*
X18083452Y-19561551D01*
X18084830Y-19562869D01*
X18085060Y-19563392D01*
X18085297Y-19563663D01*
X18085212Y-19563736D01*
X18104119Y-19606642D01*
X18086806Y-19651235D01*
X18043033Y-19670524D01*
X18041813Y-19670540D01*
X17566417Y-19671894D01*
X17522171Y-19653714D01*
X17503739Y-19609572D01*
X17504938Y-19597210D01*
X17513800Y-19552664D01*
X17513800Y-17734536D01*
X17501981Y-17675120D01*
X17500778Y-17673320D01*
X17483454Y-17647392D01*
X17456960Y-17607740D01*
X17389580Y-17562719D01*
X17330164Y-17550900D01*
X17330163Y-17550900D01*
X16974944Y-17550900D01*
X16930750Y-17532594D01*
X16914574Y-17504576D01*
X16894947Y-17431326D01*
X16894946Y-17431323D01*
X16828001Y-17315374D01*
X16827996Y-17315368D01*
X16733326Y-17220699D01*
X14853732Y-15341103D01*
X14853723Y-15341096D01*
X14737779Y-15274155D01*
X14737770Y-15274151D01*
X14649343Y-15250458D01*
X14611393Y-15221338D01*
X14605587Y-15204942D01*
X14605382Y-15205009D01*
X14603863Y-15200335D01*
X14603863Y-15200331D01*
X14548268Y-15091221D01*
X14461679Y-15004632D01*
X14352569Y-14949037D01*
X14262047Y-14934700D01*
X14262046Y-14934700D01*
X12331757Y-14934700D01*
X12331751Y-14934701D01*
X12241231Y-14949037D01*
X12241229Y-14949037D01*
X12132120Y-15004632D01*
X12045532Y-15091220D01*
X11989937Y-15200329D01*
X11989937Y-15200330D01*
X11975600Y-15290851D01*
X11975600Y-16205142D01*
X11975601Y-16205148D01*
X11977614Y-16217856D01*
X11989864Y-16295211D01*
X11989937Y-16295668D01*
X11989937Y-16295670D01*
X12045532Y-16404779D01*
X12132121Y-16491368D01*
X12241231Y-16546963D01*
X12331753Y-16561300D01*
X14262046Y-16561299D01*
X14352569Y-16546963D01*
X14461679Y-16491368D01*
X14469514Y-16483532D01*
X14513706Y-16465225D01*
X14557901Y-16483529D01*
X15066584Y-16992212D01*
X15523804Y-17449431D01*
X15542110Y-17493625D01*
X15523804Y-17537819D01*
X15491804Y-17554924D01*
X15452620Y-17562718D01*
X15452618Y-17562719D01*
X15385240Y-17607740D01*
X15340219Y-17675118D01*
X15340219Y-17675119D01*
X15328400Y-17734536D01*
X15328400Y-19552665D01*
X15338556Y-19603723D01*
X15329224Y-19650639D01*
X15289450Y-19677215D01*
X15277435Y-19678416D01*
X14676626Y-19680128D01*
X14632380Y-19661948D01*
X14613948Y-19617806D01*
X14632128Y-19573560D01*
X14639712Y-19567064D01*
X14658289Y-19553567D01*
X14791062Y-19420794D01*
X14791069Y-19420786D01*
X14901443Y-19268870D01*
X14986692Y-19101559D01*
X14986696Y-19101551D01*
X15044724Y-18922959D01*
X15044724Y-18922958D01*
X15064896Y-18795600D01*
X14313700Y-18795600D01*
X14338300Y-18703792D01*
X14338300Y-18583408D01*
X14313700Y-18491600D01*
X15064896Y-18491600D01*
X15064896Y-18491599D01*
X15044724Y-18364241D01*
X15044724Y-18364240D01*
X14986696Y-18185648D01*
X14986692Y-18185640D01*
X14901443Y-18018329D01*
X14791069Y-17866413D01*
X14791062Y-17866405D01*
X14658294Y-17733637D01*
X14658286Y-17733630D01*
X14506370Y-17623256D01*
X14339059Y-17538007D01*
X14339051Y-17538003D01*
X14160459Y-17479975D01*
X14160460Y-17479975D01*
X14033100Y-17459802D01*
X14033100Y-18211000D01*
X13941292Y-18186400D01*
X13820908Y-18186400D01*
X13729100Y-18211000D01*
X13729100Y-17459802D01*
X13729099Y-17459802D01*
X13601739Y-17479975D01*
X13423148Y-17538003D01*
X13423140Y-17538007D01*
X13255829Y-17623256D01*
X13103913Y-17733630D01*
X13103905Y-17733637D01*
X12971137Y-17866405D01*
X12971130Y-17866413D01*
X12860756Y-18018329D01*
X12775507Y-18185640D01*
X12775503Y-18185648D01*
X12717475Y-18364240D01*
X12717475Y-18364241D01*
X12697303Y-18491599D01*
X12697304Y-18491600D01*
X13448500Y-18491600D01*
X13423900Y-18583408D01*
X13423900Y-18703792D01*
X13448500Y-18795600D01*
X12697303Y-18795600D01*
X12717475Y-18922958D01*
X12717475Y-18922959D01*
X12775503Y-19101551D01*
X12775507Y-19101559D01*
X12860756Y-19268870D01*
X12971130Y-19420786D01*
X12971137Y-19420794D01*
X13103910Y-19553567D01*
X13128701Y-19571578D01*
X13153695Y-19612365D01*
X13142529Y-19658878D01*
X13101742Y-19683872D01*
X13092143Y-19684642D01*
X11955316Y-19687881D01*
X11911070Y-19669701D01*
X11892638Y-19625559D01*
X11910818Y-19581313D01*
X11918401Y-19574818D01*
X12052946Y-19477065D01*
X12174565Y-19355446D01*
X12275661Y-19216300D01*
X12353745Y-19063051D01*
X12406894Y-18899475D01*
X12433800Y-18729597D01*
X12433800Y-18557603D01*
X12406894Y-18387725D01*
X12353745Y-18224149D01*
X12275661Y-18070900D01*
X12255820Y-18043592D01*
X12174565Y-17931754D01*
X12174558Y-17931746D01*
X12052953Y-17810141D01*
X12052945Y-17810134D01*
X11913802Y-17709040D01*
X11760557Y-17630958D01*
X11760549Y-17630954D01*
X11596973Y-17577805D01*
X11427110Y-17550901D01*
X11427098Y-17550900D01*
X11427097Y-17550900D01*
X11255103Y-17550900D01*
X11255101Y-17550900D01*
X11255089Y-17550901D01*
X11085227Y-17577805D01*
X11085222Y-17577806D01*
X10944676Y-17623472D01*
X10934652Y-17622683D01*
X10925363Y-17626531D01*
X10911715Y-17620878D01*
X10896988Y-17619719D01*
X10881169Y-17608225D01*
X10877306Y-17604362D01*
X10859000Y-17560168D01*
X10859000Y-12840836D01*
X10877306Y-12796642D01*
X10921500Y-12778336D01*
X10965694Y-12796642D01*
X10981870Y-12824660D01*
X10994251Y-12870870D01*
X10994255Y-12870879D01*
X11061196Y-12986823D01*
X11061203Y-12986832D01*
X11823199Y-13748826D01*
X11917868Y-13843496D01*
X11917874Y-13843501D01*
X11946835Y-13860222D01*
X11975955Y-13898173D01*
X11977315Y-13904571D01*
X11989937Y-13984269D01*
X11989937Y-13984270D01*
X12016530Y-14036461D01*
X12045532Y-14093379D01*
X12132121Y-14179968D01*
X12241231Y-14235563D01*
X12331753Y-14249900D01*
X14262046Y-14249899D01*
X14352569Y-14235563D01*
X14382132Y-14220500D01*
X14410763Y-14205912D01*
X14439137Y-14199100D01*
X15545020Y-14199100D01*
X15589214Y-14217406D01*
X15868632Y-14496824D01*
X15868638Y-14496829D01*
X15919002Y-14530480D01*
X15919004Y-14530481D01*
X15978420Y-14542300D01*
X16660581Y-14542301D01*
X16719996Y-14530482D01*
X16770367Y-14496825D01*
X17252726Y-14014466D01*
X17286381Y-13964096D01*
X17298200Y-13904680D01*
X17298201Y-13222519D01*
X17286382Y-13163104D01*
X17279190Y-13152341D01*
X17252725Y-13112733D01*
X17252723Y-13112731D01*
X16870987Y-12730994D01*
X16852681Y-12686800D01*
X16870987Y-12642606D01*
X16915181Y-12624300D01*
X17318868Y-12624300D01*
X17363062Y-12642606D01*
X17867493Y-13147037D01*
X17885799Y-13191231D01*
X17884598Y-13203423D01*
X17880800Y-13222517D01*
X17880799Y-13222521D01*
X17880799Y-13904680D01*
X17892618Y-13964096D01*
X17892618Y-13964097D01*
X17926274Y-14014466D01*
X18408632Y-14496824D01*
X18408638Y-14496829D01*
X18459002Y-14530480D01*
X18459004Y-14530481D01*
X18518420Y-14542300D01*
X19200581Y-14542301D01*
X19259996Y-14530482D01*
X19310367Y-14496825D01*
X19792726Y-14014466D01*
X19826381Y-13964096D01*
X19838200Y-13904680D01*
X19838201Y-13222519D01*
X19826382Y-13163104D01*
X19819190Y-13152341D01*
X19792725Y-13112733D01*
X19310367Y-12630375D01*
X19310361Y-12630370D01*
X19259997Y-12596719D01*
X19200579Y-12584899D01*
X18518415Y-12584899D01*
X18499322Y-12588697D01*
X18452406Y-12579364D01*
X18442936Y-12571592D01*
X17839344Y-11968000D01*
X17839343Y-11967999D01*
X17746558Y-11914430D01*
X17746557Y-11914429D01*
X17746556Y-11914429D01*
X17643075Y-11886700D01*
X17643070Y-11886700D01*
X17535930Y-11886700D01*
X17535924Y-11886700D01*
X17432444Y-11914429D01*
X17432442Y-11914429D01*
X17362992Y-11954527D01*
X17331742Y-11962900D01*
X16915180Y-11962900D01*
X16870986Y-11944594D01*
X16852680Y-11900400D01*
X16870986Y-11856206D01*
X17059416Y-11667776D01*
X17252726Y-11474466D01*
X17286381Y-11424096D01*
X17298200Y-11364680D01*
X17298201Y-10682519D01*
X17286382Y-10623104D01*
X17275646Y-10607037D01*
X17252725Y-10572733D01*
X16770367Y-10090375D01*
X16770361Y-10090370D01*
X16719997Y-10056719D01*
X16660579Y-10044899D01*
X16175797Y-10044899D01*
X16131603Y-10026593D01*
X16128472Y-10023222D01*
X16025932Y-9904275D01*
X16025930Y-9904274D01*
X16025929Y-9904272D01*
X16025926Y-9904270D01*
X15926475Y-9836592D01*
X15915241Y-9828947D01*
X15788826Y-9784835D01*
X15788824Y-9784834D01*
X15788822Y-9784834D01*
X15773950Y-9783732D01*
X15734769Y-9765988D01*
X14603138Y-8654297D01*
X14094957Y-8155071D01*
X14051229Y-8112114D01*
X11010972Y-5125428D01*
X10165636Y-4294988D01*
X10072387Y-4242251D01*
X10072379Y-4242248D01*
X9968652Y-4215440D01*
X9968651Y-4215440D01*
X9953346Y-4215576D01*
X9861510Y-4216393D01*
X9861509Y-4216393D01*
X9813174Y-4229806D01*
X9765695Y-4223984D01*
X9736239Y-4186293D01*
X9742061Y-4138814D01*
X9745900Y-4132845D01*
X9821443Y-4028870D01*
X9906692Y-3861559D01*
X9906696Y-3861551D01*
X9964724Y-3682959D01*
X9964724Y-3682958D01*
X9984896Y-3555600D01*
X9233700Y-3555600D01*
X9258300Y-3463792D01*
X9258300Y-3343408D01*
X9251386Y-3317605D01*
X10248400Y-3317605D01*
X10248400Y-3489594D01*
X10248401Y-3489610D01*
X10275305Y-3659472D01*
X10275305Y-3659473D01*
X10328454Y-3823049D01*
X10328458Y-3823057D01*
X10406540Y-3976302D01*
X10507634Y-4115445D01*
X10507641Y-4115453D01*
X10629246Y-4237058D01*
X10629254Y-4237065D01*
X10745535Y-4321549D01*
X10768400Y-4338161D01*
X10921649Y-4416245D01*
X11085225Y-4469394D01*
X11118682Y-4474693D01*
X11255089Y-4496298D01*
X11255095Y-4496298D01*
X11255103Y-4496300D01*
X11255105Y-4496300D01*
X11427095Y-4496300D01*
X11427097Y-4496300D01*
X11596975Y-4469394D01*
X11760551Y-4416245D01*
X11815983Y-4388000D01*
X11863668Y-4384247D01*
X11888550Y-4399494D01*
X12615257Y-5126201D01*
X12708042Y-5179770D01*
X12735772Y-5187200D01*
X12811525Y-5207499D01*
X12811531Y-5207500D01*
X13635868Y-5207500D01*
X13680062Y-5225806D01*
X13731862Y-5277606D01*
X13750168Y-5321800D01*
X13731862Y-5365994D01*
X13687668Y-5384300D01*
X13592410Y-5384300D01*
X13474541Y-5407745D01*
X13363507Y-5453736D01*
X13263584Y-5520503D01*
X13178603Y-5605484D01*
X13111836Y-5705407D01*
X13065845Y-5816441D01*
X13042400Y-5934309D01*
X13042400Y-6054490D01*
X13065845Y-6172358D01*
X13111836Y-6283392D01*
X13178603Y-6383315D01*
X13263584Y-6468296D01*
X13363507Y-6535063D01*
X13363508Y-6535063D01*
X13363509Y-6535064D01*
X13474540Y-6581054D01*
X13592410Y-6604500D01*
X13712588Y-6604500D01*
X13712590Y-6604500D01*
X13748495Y-6597357D01*
X13795410Y-6606688D01*
X13804882Y-6614462D01*
X14096886Y-6906466D01*
X14096891Y-6906472D01*
X14096892Y-6906472D01*
X14099072Y-6908652D01*
X14099074Y-6908655D01*
X14134052Y-6943633D01*
X14160644Y-6970225D01*
X14160648Y-6970228D01*
X14169433Y-6975300D01*
X14236054Y-7013764D01*
X14258591Y-7019802D01*
X14320163Y-7036301D01*
X14411062Y-7036301D01*
X14411078Y-7036300D01*
X17020232Y-7036300D01*
X17064426Y-7054606D01*
X17240494Y-7230674D01*
X17258800Y-7274868D01*
X17258800Y-7746075D01*
X17240494Y-7790269D01*
X17196300Y-7808575D01*
X17152106Y-7790269D01*
X16819794Y-7457957D01*
X16819782Y-7457946D01*
X16809353Y-7449486D01*
X16704347Y-7405993D01*
X16704350Y-7405993D01*
X16690986Y-7404600D01*
X16471500Y-7404600D01*
X16471500Y-7998407D01*
X16386380Y-7975600D01*
X16252620Y-7975600D01*
X16167500Y-7998407D01*
X16167500Y-7404600D01*
X15948011Y-7404600D01*
X15947989Y-7404601D01*
X15934652Y-7405993D01*
X15934645Y-7405995D01*
X15829652Y-7449484D01*
X15829645Y-7449489D01*
X15819222Y-7457942D01*
X15819212Y-7457951D01*
X15293857Y-7983305D01*
X15293846Y-7983317D01*
X15285386Y-7993746D01*
X15241893Y-8098751D01*
X15240500Y-8112114D01*
X15240500Y-8331600D01*
X15834308Y-8331600D01*
X15811500Y-8416720D01*
X15811500Y-8550480D01*
X15834308Y-8635600D01*
X15240500Y-8635600D01*
X15240500Y-8855088D01*
X15240501Y-8855110D01*
X15241893Y-8868447D01*
X15241895Y-8868454D01*
X15285384Y-8973447D01*
X15285389Y-8973454D01*
X15293842Y-8983877D01*
X15293851Y-8983887D01*
X15819205Y-9509242D01*
X15819217Y-9509253D01*
X15829646Y-9517713D01*
X15934652Y-9561206D01*
X15934649Y-9561206D01*
X15948014Y-9562600D01*
X16167500Y-9562600D01*
X16167500Y-8968792D01*
X16252620Y-8991600D01*
X16386380Y-8991600D01*
X16471500Y-8968792D01*
X16471500Y-9562600D01*
X16690989Y-9562600D01*
X16691010Y-9562598D01*
X16704347Y-9561206D01*
X16704354Y-9561204D01*
X16809347Y-9517715D01*
X16809354Y-9517710D01*
X16819777Y-9509257D01*
X16819787Y-9509248D01*
X17152106Y-9176930D01*
X17196300Y-9158624D01*
X17240494Y-9176930D01*
X17258800Y-9221124D01*
X17258800Y-9495840D01*
X17250427Y-9527089D01*
X17210331Y-9596538D01*
X17210329Y-9596544D01*
X17182600Y-9700024D01*
X17182600Y-9807175D01*
X17210329Y-9910655D01*
X17210329Y-9910657D01*
X17219116Y-9925876D01*
X17254925Y-9987900D01*
X17263900Y-10003444D01*
X17867493Y-10607037D01*
X17885799Y-10651231D01*
X17884598Y-10663423D01*
X17880800Y-10682517D01*
X17880799Y-10682521D01*
X17880799Y-11024759D01*
X17880799Y-11364681D01*
X17886346Y-11392567D01*
X17892618Y-11424096D01*
X17892618Y-11424097D01*
X17926274Y-11474466D01*
X18408632Y-11956824D01*
X18408638Y-11956829D01*
X18459002Y-11990480D01*
X18459004Y-11990481D01*
X18518420Y-12002300D01*
X19200581Y-12002301D01*
X19259996Y-11990482D01*
X19310367Y-11956825D01*
X19792726Y-11474466D01*
X19826381Y-11424096D01*
X19838200Y-11364680D01*
X19838201Y-10682519D01*
X19826382Y-10623104D01*
X19815646Y-10607037D01*
X19792725Y-10572733D01*
X19310367Y-10090375D01*
X19310361Y-10090370D01*
X19259997Y-10056719D01*
X19200579Y-10044899D01*
X18518415Y-10044899D01*
X18499322Y-10048697D01*
X18452406Y-10039364D01*
X18442936Y-10031592D01*
X17938506Y-9527162D01*
X17920200Y-9482968D01*
X17920200Y-9079280D01*
X17938506Y-9035086D01*
X17982700Y-9016780D01*
X18026894Y-9035086D01*
X18408632Y-9416824D01*
X18408638Y-9416829D01*
X18459002Y-9450480D01*
X18459004Y-9450481D01*
X18518420Y-9462300D01*
X19200581Y-9462301D01*
X19259996Y-9450482D01*
X19310367Y-9416825D01*
X19792726Y-8934466D01*
X19826381Y-8884096D01*
X19838200Y-8824680D01*
X19838201Y-8142519D01*
X19826382Y-8083104D01*
X19798799Y-8041824D01*
X19792725Y-8032733D01*
X19310366Y-7550374D01*
X19294175Y-7539555D01*
X19267600Y-7499780D01*
X19266400Y-7487589D01*
X19266400Y-7337831D01*
X19266399Y-7337825D01*
X19240800Y-7242291D01*
X19240799Y-7242289D01*
X19238670Y-7234343D01*
X19238670Y-7234342D01*
X19185101Y-7141557D01*
X17813943Y-5770399D01*
X17721158Y-5716830D01*
X17721157Y-5716829D01*
X17721156Y-5716829D01*
X17617675Y-5689100D01*
X17617670Y-5689100D01*
X17617669Y-5689100D01*
X16607975Y-5689100D01*
X16563781Y-5670794D01*
X16545475Y-5626600D01*
X16556008Y-5591877D01*
X16590620Y-5540077D01*
X16622237Y-5492759D01*
X16671755Y-5373211D01*
X16697000Y-5246299D01*
X16697000Y-5116901D01*
X16671755Y-4989989D01*
X16622237Y-4870441D01*
X16618831Y-4865344D01*
X16550347Y-4762851D01*
X16458851Y-4671355D01*
X16458849Y-4671353D01*
X16368175Y-4610766D01*
X16341601Y-4570993D01*
X16350933Y-4524076D01*
X16390707Y-4497501D01*
X16402900Y-4496300D01*
X17330163Y-4496300D01*
X17330164Y-4496300D01*
X17389580Y-4484481D01*
X17456960Y-4439460D01*
X17501981Y-4372080D01*
X17513800Y-4312664D01*
X17513800Y-2494536D01*
X17501981Y-2435120D01*
X17456960Y-2367740D01*
X17389580Y-2322719D01*
X17330164Y-2310900D01*
X15512036Y-2310900D01*
X15484216Y-2316434D01*
X15452619Y-2322719D01*
X15452618Y-2322719D01*
X15385240Y-2367740D01*
X15340219Y-2435118D01*
X15340219Y-2435119D01*
X15328400Y-2494536D01*
X15328400Y-4312663D01*
X15328399Y-4312663D01*
X15340219Y-4372080D01*
X15340219Y-4372081D01*
X15350857Y-4388001D01*
X15385240Y-4439460D01*
X15452620Y-4484481D01*
X15512036Y-4496300D01*
X15512037Y-4496300D01*
X15677300Y-4496300D01*
X15721494Y-4514606D01*
X15739800Y-4558800D01*
X15721494Y-4602994D01*
X15712026Y-4610765D01*
X15635190Y-4662106D01*
X15621348Y-4671355D01*
X15529854Y-4762849D01*
X15529850Y-4762854D01*
X15490922Y-4821112D01*
X15451148Y-4847687D01*
X15404232Y-4838354D01*
X15394762Y-4830582D01*
X14737608Y-4173428D01*
X14719302Y-4129234D01*
X14731237Y-4092498D01*
X14815661Y-3976300D01*
X14893745Y-3823051D01*
X14946894Y-3659475D01*
X14973800Y-3489597D01*
X14973800Y-3317603D01*
X14946894Y-3147725D01*
X14893745Y-2984149D01*
X14815661Y-2830900D01*
X14792289Y-2798732D01*
X14714565Y-2691754D01*
X14714558Y-2691746D01*
X14592953Y-2570141D01*
X14592945Y-2570134D01*
X14453802Y-2469040D01*
X14300557Y-2390958D01*
X14300549Y-2390954D01*
X14136973Y-2337805D01*
X13967110Y-2310901D01*
X13967098Y-2310900D01*
X13967097Y-2310900D01*
X13795103Y-2310900D01*
X13795101Y-2310900D01*
X13795089Y-2310901D01*
X13625227Y-2337805D01*
X13625226Y-2337805D01*
X13461650Y-2390954D01*
X13461642Y-2390958D01*
X13308397Y-2469040D01*
X13169254Y-2570134D01*
X13169246Y-2570141D01*
X13047641Y-2691746D01*
X13047634Y-2691754D01*
X12946540Y-2830897D01*
X12868458Y-2984142D01*
X12868454Y-2984150D01*
X12815305Y-3147726D01*
X12815305Y-3147727D01*
X12788401Y-3317589D01*
X12788400Y-3317605D01*
X12788400Y-3489594D01*
X12788401Y-3489610D01*
X12815305Y-3659472D01*
X12815305Y-3659473D01*
X12868454Y-3823049D01*
X12868458Y-3823057D01*
X12946540Y-3976302D01*
X13047634Y-4115445D01*
X13047641Y-4115453D01*
X13169246Y-4237058D01*
X13169254Y-4237065D01*
X13229225Y-4280637D01*
X13254219Y-4321423D01*
X13243051Y-4367937D01*
X13202265Y-4392931D01*
X13192488Y-4393700D01*
X13059532Y-4393700D01*
X13015338Y-4375394D01*
X12407619Y-3767675D01*
X12389313Y-3723481D01*
X12392371Y-3704170D01*
X12406894Y-3659475D01*
X12433800Y-3489597D01*
X12433800Y-3317603D01*
X12406894Y-3147725D01*
X12353745Y-2984149D01*
X12275661Y-2830900D01*
X12252289Y-2798732D01*
X12174565Y-2691754D01*
X12174558Y-2691746D01*
X12052953Y-2570141D01*
X12052945Y-2570134D01*
X11913802Y-2469040D01*
X11760557Y-2390958D01*
X11760549Y-2390954D01*
X11596973Y-2337805D01*
X11427110Y-2310901D01*
X11427098Y-2310900D01*
X11427097Y-2310900D01*
X11255103Y-2310900D01*
X11255101Y-2310900D01*
X11255089Y-2310901D01*
X11085227Y-2337805D01*
X11085226Y-2337805D01*
X10921650Y-2390954D01*
X10921642Y-2390958D01*
X10768397Y-2469040D01*
X10629254Y-2570134D01*
X10629246Y-2570141D01*
X10507641Y-2691746D01*
X10507634Y-2691754D01*
X10406540Y-2830897D01*
X10328458Y-2984142D01*
X10328454Y-2984150D01*
X10275305Y-3147726D01*
X10275305Y-3147727D01*
X10248401Y-3317589D01*
X10248400Y-3317605D01*
X9251386Y-3317605D01*
X9233700Y-3251600D01*
X9984896Y-3251600D01*
X9984896Y-3251599D01*
X9964724Y-3124241D01*
X9964724Y-3124240D01*
X9906696Y-2945648D01*
X9906692Y-2945640D01*
X9821443Y-2778329D01*
X9711069Y-2626413D01*
X9711062Y-2626405D01*
X9578294Y-2493637D01*
X9578286Y-2493630D01*
X9426370Y-2383256D01*
X9259059Y-2298007D01*
X9259054Y-2298004D01*
X9239051Y-2291505D01*
X9202677Y-2260437D01*
X9198925Y-2212749D01*
X9229993Y-2176375D01*
X9258184Y-2169564D01*
X12931346Y-2159100D01*
X18356453Y-2159100D01*
X18400647Y-2177406D01*
G37*
G04 #@! TD.AperFunction*
G04 #@! TA.AperFunction,Conductor*
G36*
X-120574Y-9554606D02*
G01*
X152286Y-9827466D01*
X152291Y-9827472D01*
X152292Y-9827472D01*
X154472Y-9829652D01*
X154474Y-9829655D01*
X189413Y-9864594D01*
X216044Y-9891225D01*
X216045Y-9891226D01*
X291451Y-9934763D01*
X291454Y-9934764D01*
X375562Y-9957300D01*
X375563Y-9957300D01*
X462637Y-9957300D01*
X1872254Y-9957300D01*
X1913265Y-9972637D01*
X1925065Y-9982898D01*
X1930817Y-9987900D01*
X1952153Y-10030713D01*
X1951104Y-10047254D01*
X1946600Y-10069897D01*
X1946600Y-10199300D01*
X1968414Y-10308966D01*
X1971845Y-10326211D01*
X2003420Y-10402441D01*
X2021362Y-10445757D01*
X2021363Y-10445760D01*
X2093252Y-10553348D01*
X2184751Y-10644847D01*
X2292339Y-10716736D01*
X2292340Y-10716736D01*
X2292341Y-10716737D01*
X2411889Y-10766255D01*
X2538801Y-10791500D01*
X2614942Y-10791500D01*
X2659136Y-10809806D01*
X2677442Y-10854000D01*
X2676241Y-10866193D01*
X2657800Y-10958899D01*
X2657800Y-11088300D01*
X2668396Y-11141568D01*
X2659064Y-11188484D01*
X2619290Y-11215060D01*
X2583180Y-11211504D01*
X2552861Y-11198946D01*
X2434990Y-11175500D01*
X2314810Y-11175500D01*
X2196941Y-11198945D01*
X2085907Y-11244936D01*
X1985984Y-11311703D01*
X1901003Y-11396684D01*
X1834236Y-11496607D01*
X1788245Y-11607641D01*
X1764800Y-11725509D01*
X1764800Y-11845693D01*
X1771941Y-11881595D01*
X1762608Y-11928511D01*
X1754836Y-11937981D01*
X1242426Y-12450394D01*
X1198232Y-12468700D01*
X1057510Y-12468700D01*
X1045808Y-12470057D01*
X1034106Y-12471415D01*
X938378Y-12513684D01*
X864384Y-12587678D01*
X822115Y-12683406D01*
X819400Y-12706811D01*
X819400Y-13137988D01*
X822115Y-13161393D01*
X864384Y-13257121D01*
X885469Y-13278206D01*
X903775Y-13322400D01*
X885469Y-13366594D01*
X864384Y-13387678D01*
X823130Y-13481109D01*
X822115Y-13483407D01*
X819400Y-13506810D01*
X819400Y-13937990D01*
X820712Y-13949299D01*
X822115Y-13961393D01*
X864384Y-14057121D01*
X885469Y-14078206D01*
X903775Y-14122400D01*
X885469Y-14166594D01*
X864384Y-14187678D01*
X822295Y-14283000D01*
X822115Y-14283407D01*
X819400Y-14306810D01*
X819400Y-14737990D01*
X821670Y-14757558D01*
X822115Y-14761393D01*
X864384Y-14857121D01*
X885469Y-14878206D01*
X903775Y-14922400D01*
X885469Y-14966594D01*
X864384Y-14987678D01*
X829973Y-15065611D01*
X822115Y-15083407D01*
X819400Y-15106810D01*
X819400Y-15537990D01*
X822115Y-15561393D01*
X864384Y-15657121D01*
X938379Y-15731116D01*
X1034107Y-15773385D01*
X1057510Y-15776100D01*
X1057511Y-15776100D01*
X1638689Y-15776100D01*
X1638690Y-15776100D01*
X1662093Y-15773385D01*
X1757821Y-15731116D01*
X1817531Y-15671406D01*
X1861725Y-15653100D01*
X1972139Y-15653100D01*
X2016333Y-15671406D01*
X2034639Y-15715600D01*
X2024105Y-15750323D01*
X2023102Y-15751824D01*
X1995964Y-15792437D01*
X1995962Y-15792442D01*
X1975294Y-15842341D01*
X1949879Y-15903700D01*
X1946444Y-15911992D01*
X1933594Y-15976593D01*
X1907018Y-16016367D01*
X1872295Y-16026900D01*
X391300Y-16026900D01*
X347106Y-16008594D01*
X328800Y-15964400D01*
X328800Y-15806732D01*
X347106Y-15762538D01*
X366053Y-15749558D01*
X407821Y-15731116D01*
X481816Y-15657121D01*
X524085Y-15561393D01*
X526800Y-15537990D01*
X526800Y-15106810D01*
X524085Y-15083407D01*
X481816Y-14987679D01*
X460731Y-14966594D01*
X442425Y-14922400D01*
X460731Y-14878206D01*
X470346Y-14868591D01*
X481816Y-14857121D01*
X524085Y-14761393D01*
X526800Y-14737990D01*
X526800Y-14306810D01*
X524085Y-14283407D01*
X481816Y-14187679D01*
X460731Y-14166594D01*
X442425Y-14122400D01*
X460731Y-14078206D01*
X467298Y-14071639D01*
X481816Y-14057121D01*
X524085Y-13961393D01*
X526800Y-13937990D01*
X526800Y-13506810D01*
X524085Y-13483407D01*
X481816Y-13387679D01*
X460731Y-13366594D01*
X442425Y-13322400D01*
X460731Y-13278206D01*
X469670Y-13269267D01*
X481816Y-13257121D01*
X524085Y-13161393D01*
X526800Y-13137990D01*
X526800Y-12706810D01*
X524085Y-12683407D01*
X481816Y-12587679D01*
X407821Y-12513684D01*
X312093Y-12471415D01*
X288690Y-12468700D01*
X-292490Y-12468700D01*
X-304192Y-12470057D01*
X-315894Y-12471415D01*
X-411622Y-12513684D01*
X-471331Y-12573394D01*
X-515525Y-12591700D01*
X-568722Y-12591700D01*
X-568738Y-12591699D01*
X-572563Y-12591699D01*
X-659637Y-12591699D01*
X-659642Y-12591699D01*
X-709261Y-12604995D01*
X-719185Y-12607655D01*
X-741557Y-12613649D01*
X-743750Y-12614237D01*
X-819155Y-12657773D01*
X-819156Y-12657774D01*
X-835135Y-12673754D01*
X-880726Y-12719345D01*
X-880728Y-12719347D01*
X-1438021Y-13276638D01*
X-1482215Y-13294944D01*
X-1526409Y-13276638D01*
X-1535701Y-13264778D01*
X-1581240Y-13189448D01*
X-1695149Y-13075539D01*
X-1833009Y-12992199D01*
X-1986804Y-12944275D01*
X-1986814Y-12944273D01*
X-2045100Y-12938975D01*
X-2045100Y-13729700D01*
X-2063406Y-13773894D01*
X-2107600Y-13792200D01*
X-2197100Y-13792200D01*
X-2197100Y-13881700D01*
X-2215406Y-13925894D01*
X-2259600Y-13944200D01*
X-2950300Y-13944200D01*
X-2950300Y-14036461D01*
X-2944227Y-14103291D01*
X-2944227Y-14103292D01*
X-2935987Y-14129734D01*
X-2940316Y-14177373D01*
X-2977064Y-14207997D01*
X-3024703Y-14203668D01*
X-3039851Y-14192521D01*
X-3303894Y-13928478D01*
X-3322200Y-13884284D01*
X-3322200Y-13564658D01*
X-3322200Y-13564652D01*
X-3324400Y-13547938D01*
X-2950300Y-13547938D01*
X-2950300Y-13640200D01*
X-2349100Y-13640200D01*
X-2349100Y-12938976D01*
X-2349101Y-12938975D01*
X-2407387Y-12944273D01*
X-2407397Y-12944275D01*
X-2561192Y-12992199D01*
X-2699052Y-13075539D01*
X-2812961Y-13189448D01*
X-2896301Y-13327308D01*
X-2944227Y-13481109D01*
X-2950300Y-13547938D01*
X-3324400Y-13547938D01*
X-3336692Y-13454572D01*
X-3393428Y-13317600D01*
X-3430517Y-13269265D01*
X-3442896Y-13223061D01*
X-3425126Y-13187026D01*
X-2744808Y-12506708D01*
X-2731870Y-12496781D01*
X-2723849Y-12492151D01*
X-2463949Y-12232251D01*
X-2447265Y-12203353D01*
X-2417067Y-12151050D01*
X-2411819Y-12131463D01*
X-2392799Y-12060481D01*
X-2392799Y-11966719D01*
X-2392799Y-11962895D01*
X-2392800Y-11962877D01*
X-2392800Y-10623971D01*
X-2374494Y-10579777D01*
X-2330300Y-10561471D01*
X-2295576Y-10572005D01*
X-2260063Y-10595735D01*
X-2260061Y-10595736D01*
X-2260059Y-10595737D01*
X-2140511Y-10645255D01*
X-2013599Y-10670500D01*
X-1884201Y-10670500D01*
X-1757289Y-10645255D01*
X-1637741Y-10595737D01*
X-1530151Y-10523847D01*
X-1438653Y-10432349D01*
X-1366763Y-10324759D01*
X-1317245Y-10205211D01*
X-1292000Y-10078299D01*
X-1292000Y-9948901D01*
X-1306143Y-9877803D01*
X-1296811Y-9830889D01*
X-1289043Y-9821423D01*
X-1022225Y-9554606D01*
X-978031Y-9536300D01*
X-164768Y-9536300D01*
X-120574Y-9554606D01*
G37*
G04 #@! TD.AperFunction*
G04 #@! TA.AperFunction,Conductor*
G36*
X8556391Y-5417169D02*
G01*
X8573106Y-5419714D01*
X8577741Y-5426013D01*
X8584966Y-5429006D01*
X8591435Y-5444624D01*
X8601456Y-5458243D01*
X8600279Y-5465974D01*
X8603272Y-5473200D01*
X8594258Y-5505534D01*
X8533699Y-5605708D01*
X8485773Y-5759509D01*
X8479700Y-5826338D01*
X8479700Y-5918600D01*
X9933532Y-5918600D01*
X9977726Y-5936906D01*
X11520466Y-7479646D01*
X11538772Y-7523840D01*
X11520466Y-7568034D01*
X11518500Y-7570000D01*
X11518500Y-8611000D01*
X12229299Y-8611000D01*
X12229299Y-8339367D01*
X12247605Y-8295173D01*
X12291799Y-8276867D01*
X12335993Y-8295173D01*
X14145726Y-10104906D01*
X14164032Y-10149100D01*
X14145726Y-10193294D01*
X14101532Y-10211600D01*
X13448900Y-10211600D01*
X13448900Y-12038799D01*
X14278185Y-12038799D01*
X14278201Y-12038798D01*
X14336177Y-12032565D01*
X14336182Y-12032564D01*
X14467353Y-11983640D01*
X14467357Y-11983637D01*
X14579436Y-11899736D01*
X14663337Y-11787657D01*
X14663341Y-11787651D01*
X14704367Y-11677655D01*
X14713563Y-11667776D01*
X14718729Y-11655304D01*
X14729223Y-11650956D01*
X14736962Y-11642644D01*
X14750451Y-11642162D01*
X14762922Y-11636996D01*
X14773415Y-11641342D01*
X14784767Y-11640937D01*
X14807118Y-11655299D01*
X14821045Y-11669226D01*
X14821047Y-11669227D01*
X14824612Y-11672792D01*
X14824612Y-11672793D01*
X14824614Y-11672794D01*
X15646286Y-12494466D01*
X15646291Y-12494472D01*
X15646292Y-12494472D01*
X15648472Y-12496652D01*
X15648474Y-12496655D01*
X15680299Y-12528480D01*
X15710044Y-12558225D01*
X15710045Y-12558226D01*
X15785787Y-12601957D01*
X15814907Y-12639908D01*
X15808662Y-12687334D01*
X15798730Y-12700277D01*
X15386273Y-13112734D01*
X15358486Y-13154323D01*
X15318713Y-13180899D01*
X15306519Y-13182100D01*
X14680699Y-13182100D01*
X14636505Y-13163794D01*
X14618199Y-13119600D01*
X14618199Y-12979457D01*
X14618199Y-12979454D01*
X14603863Y-12888931D01*
X14548268Y-12779821D01*
X14461679Y-12693232D01*
X14352569Y-12637637D01*
X14262047Y-12623300D01*
X14262046Y-12623300D01*
X12331757Y-12623300D01*
X12331751Y-12623301D01*
X12241230Y-12637637D01*
X12221428Y-12647727D01*
X12173740Y-12651480D01*
X12148860Y-12636233D01*
X12078237Y-12565610D01*
X11994906Y-12482278D01*
X11976600Y-12438084D01*
X11976600Y-11996326D01*
X11994906Y-11952132D01*
X12039100Y-11933826D01*
X12076555Y-11946292D01*
X12126442Y-11983637D01*
X12126446Y-11983640D01*
X12257620Y-12032565D01*
X12315606Y-12038799D01*
X13144900Y-12038799D01*
X13144900Y-10211600D01*
X12315615Y-10211600D01*
X12315598Y-10211601D01*
X12257622Y-10217834D01*
X12257617Y-10217835D01*
X12126446Y-10266759D01*
X12126442Y-10266762D01*
X12014363Y-10350663D01*
X11930462Y-10462742D01*
X11930459Y-10462746D01*
X11881534Y-10593920D01*
X11875300Y-10651899D01*
X11875300Y-10941784D01*
X11856994Y-10985978D01*
X11812800Y-11004284D01*
X11768606Y-10985978D01*
X11145332Y-10362703D01*
X11145323Y-10362696D01*
X11029379Y-10295755D01*
X11029370Y-10295751D01*
X10900051Y-10261101D01*
X10900046Y-10261100D01*
X10900045Y-10261100D01*
X10900044Y-10261100D01*
X9665187Y-10261100D01*
X9630464Y-10250567D01*
X9598092Y-10228936D01*
X9487058Y-10182945D01*
X9369190Y-10159500D01*
X9219700Y-10159500D01*
X9175506Y-10141194D01*
X9157200Y-10097000D01*
X9157200Y-9840932D01*
X9175506Y-9796738D01*
X9181586Y-9791588D01*
X9182419Y-9790754D01*
X9182421Y-9790754D01*
X9270054Y-9703121D01*
X9324484Y-9591782D01*
X9333561Y-9529481D01*
X10503701Y-9529481D01*
X10509739Y-9585644D01*
X10509740Y-9585648D01*
X10557133Y-9712713D01*
X10557136Y-9712718D01*
X10638411Y-9821288D01*
X10746981Y-9902563D01*
X10746986Y-9902566D01*
X10874053Y-9949960D01*
X10930226Y-9955999D01*
X11214499Y-9955999D01*
X11518500Y-9955999D01*
X11802765Y-9955999D01*
X11802781Y-9955998D01*
X11858944Y-9949960D01*
X11858948Y-9949959D01*
X11986013Y-9902566D01*
X11986018Y-9902563D01*
X12094588Y-9821288D01*
X12175863Y-9712718D01*
X12175866Y-9712713D01*
X12223260Y-9585646D01*
X12229299Y-9529480D01*
X12229300Y-9529467D01*
X12229300Y-8915000D01*
X11518500Y-8915000D01*
X11518500Y-9955999D01*
X11214499Y-9955999D01*
X11214500Y-9955998D01*
X11214500Y-8915000D01*
X10503701Y-8915000D01*
X10503701Y-9529481D01*
X9333561Y-9529481D01*
X9335000Y-9519605D01*
X9334999Y-8758753D01*
X9334999Y-8006395D01*
X9334630Y-8003862D01*
X9333560Y-7996519D01*
X10503700Y-7996519D01*
X10503700Y-8611000D01*
X11214500Y-8611000D01*
X11214500Y-7570000D01*
X10930235Y-7570000D01*
X10930218Y-7570001D01*
X10874055Y-7576039D01*
X10874051Y-7576040D01*
X10746986Y-7623433D01*
X10746981Y-7623436D01*
X10638411Y-7704711D01*
X10557136Y-7813281D01*
X10557133Y-7813286D01*
X10509739Y-7940353D01*
X10503700Y-7996519D01*
X9333560Y-7996519D01*
X9330399Y-7974818D01*
X9324484Y-7934218D01*
X9270054Y-7822879D01*
X9182421Y-7735246D01*
X9071082Y-7680816D01*
X9071080Y-7680815D01*
X9071079Y-7680815D01*
X9013744Y-7672462D01*
X8998905Y-7670300D01*
X8998904Y-7670300D01*
X8991100Y-7670300D01*
X8946906Y-7651994D01*
X8928600Y-7607800D01*
X8928600Y-7446120D01*
X8928598Y-7446112D01*
X8925495Y-7434528D01*
X8924566Y-7406158D01*
X8924753Y-7405213D01*
X8924755Y-7405211D01*
X8950000Y-7278299D01*
X8950000Y-7148901D01*
X8924755Y-7021989D01*
X8912112Y-6991468D01*
X8912112Y-6943633D01*
X8945937Y-6909809D01*
X8988450Y-6907881D01*
X9022606Y-6918525D01*
X9080900Y-6923822D01*
X9384900Y-6923822D01*
X9443194Y-6918525D01*
X9596991Y-6870600D01*
X9734851Y-6787260D01*
X9848760Y-6673351D01*
X9932100Y-6535491D01*
X9980026Y-6381690D01*
X9986099Y-6314861D01*
X9986100Y-6314859D01*
X9986100Y-6222600D01*
X9384900Y-6222600D01*
X9384900Y-6923822D01*
X9080900Y-6923822D01*
X9080900Y-6222600D01*
X8479700Y-6222600D01*
X8479700Y-6314861D01*
X8485773Y-6381690D01*
X8521079Y-6494991D01*
X8516750Y-6542630D01*
X8480003Y-6573255D01*
X8449216Y-6574884D01*
X8357800Y-6556700D01*
X8357799Y-6556700D01*
X8228401Y-6556700D01*
X8228399Y-6556700D01*
X8128838Y-6576504D01*
X8081922Y-6567172D01*
X8055346Y-6527398D01*
X8058902Y-6491288D01*
X8093308Y-6408228D01*
X8107800Y-6298148D01*
X8107800Y-5843052D01*
X8093308Y-5732972D01*
X8036572Y-5596000D01*
X8011327Y-5563100D01*
X7971539Y-5511247D01*
X7959159Y-5465042D01*
X7983077Y-5423615D01*
X8021124Y-5410700D01*
X8540772Y-5410700D01*
X8556391Y-5417169D01*
G37*
G04 #@! TD.AperFunction*
G04 #@! TA.AperFunction,Conductor*
G36*
X-12497715Y-5978548D02*
G01*
X-12475784Y-5987391D01*
X-12475660Y-5987684D01*
X-12475365Y-5987806D01*
X-12466306Y-6009677D01*
X-12457062Y-6031411D01*
X-12457181Y-6031705D01*
X-12457059Y-6032000D01*
X-12466108Y-6053844D01*
X-12474950Y-6075775D01*
X-12476373Y-6077224D01*
X-12496597Y-6095328D01*
X-12501505Y-6102835D01*
X-12505833Y-6107246D01*
X-12506239Y-6107656D01*
X-12508221Y-6109638D01*
X-12508225Y-6109644D01*
X-12524556Y-6137927D01*
X-12526364Y-6140867D01*
X-12544236Y-6168211D01*
X-12544239Y-6168217D01*
X-12545112Y-6170879D01*
X-12545880Y-6173079D01*
X-12547720Y-6178049D01*
X-12551764Y-6185054D01*
X-12555569Y-6199250D01*
X-12556579Y-6201981D01*
X-12571013Y-6217560D01*
X-12583946Y-6234413D01*
X-12586998Y-6234814D01*
X-12589089Y-6237072D01*
X-12610316Y-6237882D01*
X-12631373Y-6240653D01*
X-12635127Y-6238829D01*
X-12636889Y-6238897D01*
X-12638986Y-6236954D01*
X-12652647Y-6230318D01*
X-12654373Y-6229026D01*
X-12654378Y-6229023D01*
X-12741800Y-6196415D01*
X-12741800Y-8789583D01*
X-12654379Y-8756977D01*
X-12654373Y-8756973D01*
X-12540540Y-8671759D01*
X-12538402Y-8668903D01*
X-12497265Y-8644490D01*
X-12459991Y-8650665D01*
X-12366938Y-8698078D01*
X-12366936Y-8698078D01*
X-12366933Y-8698080D01*
X-12366930Y-8698080D01*
X-12366928Y-8698081D01*
X-12274640Y-8712698D01*
X-12274634Y-8712698D01*
X-12274626Y-8712700D01*
X-12274624Y-8712700D01*
X-12212576Y-8712700D01*
X-12212574Y-8712700D01*
X-12204258Y-8711383D01*
X-12120273Y-8698081D01*
X-12120273Y-8698080D01*
X-12120267Y-8698080D01*
X-12009007Y-8641390D01*
X-12008999Y-8641381D01*
X-12006106Y-8639281D01*
X-11959593Y-8628110D01*
X-11918804Y-8653099D01*
X-11908994Y-8673663D01*
X-11903264Y-8695048D01*
X-11859727Y-8770454D01*
X-11859722Y-8770460D01*
X-11794600Y-8835582D01*
X-11794587Y-8835593D01*
X-11218626Y-9411555D01*
X-10651952Y-9978229D01*
X-10643861Y-9982900D01*
X-10643860Y-9982900D01*
X-10576546Y-10021764D01*
X-10576544Y-10021764D01*
X-10576543Y-10021765D01*
X-10571156Y-10023208D01*
X-10554009Y-10027802D01*
X-10492437Y-10044301D01*
X-10401537Y-10044301D01*
X-10401521Y-10044300D01*
X-8561768Y-10044300D01*
X-8517574Y-10062606D01*
X-8165714Y-10414466D01*
X-8165709Y-10414472D01*
X-8165708Y-10414472D01*
X-8163528Y-10416652D01*
X-8163526Y-10416655D01*
X-8117439Y-10462742D01*
X-8101956Y-10478225D01*
X-8101952Y-10478228D01*
X-8047699Y-10509551D01*
X-8026546Y-10521764D01*
X-8004009Y-10527802D01*
X-7942437Y-10544301D01*
X-7851538Y-10544301D01*
X-7851522Y-10544300D01*
X-6655363Y-10544300D01*
X-6655362Y-10544300D01*
X-6571254Y-10521764D01*
X-6495845Y-10478226D01*
X-6434274Y-10416655D01*
X-6434274Y-10416653D01*
X-6429133Y-10411513D01*
X-6429129Y-10411508D01*
X-5450992Y-9433371D01*
X-5450987Y-9433367D01*
X-5445847Y-9428226D01*
X-5445845Y-9428226D01*
X-5384274Y-9366655D01*
X-5340736Y-9291246D01*
X-5318200Y-9207138D01*
X-5318200Y-9207134D01*
X-5317935Y-9206145D01*
X-5288815Y-9168194D01*
X-5241389Y-9161949D01*
X-5213370Y-9178126D01*
X-5167649Y-9223847D01*
X-5060061Y-9295736D01*
X-5060060Y-9295736D01*
X-5060059Y-9295737D01*
X-4940511Y-9345255D01*
X-4813599Y-9370500D01*
X-4684201Y-9370500D01*
X-4557289Y-9345255D01*
X-4437741Y-9295737D01*
X-4330151Y-9223847D01*
X-4330149Y-9223845D01*
X-4327773Y-9221896D01*
X-4327087Y-9222732D01*
X-4286235Y-9205786D01*
X-4242032Y-9224069D01*
X-3174365Y-10291736D01*
X-3156059Y-10335930D01*
X-3174365Y-10380124D01*
X-3218559Y-10398430D01*
X-3253282Y-10387897D01*
X-3337740Y-10331463D01*
X-3337743Y-10331462D01*
X-3392054Y-10308966D01*
X-3457289Y-10281945D01*
X-3457293Y-10281944D01*
X-3584200Y-10256700D01*
X-3584201Y-10256700D01*
X-3713599Y-10256700D01*
X-3713601Y-10256700D01*
X-3840508Y-10281944D01*
X-3840510Y-10281944D01*
X-3840511Y-10281945D01*
X-3864149Y-10291736D01*
X-3960058Y-10331462D01*
X-3960061Y-10331463D01*
X-4067649Y-10403352D01*
X-4159148Y-10494851D01*
X-4231037Y-10602439D01*
X-4231038Y-10602442D01*
X-4259227Y-10670499D01*
X-4278379Y-10716737D01*
X-4280556Y-10721992D01*
X-4305800Y-10848899D01*
X-4305800Y-10978301D01*
X-4300877Y-11003051D01*
X-4310210Y-11049967D01*
X-4321019Y-11062279D01*
X-4555482Y-11267436D01*
X-4596639Y-11282900D01*
X-10386032Y-11282900D01*
X-10430226Y-11264594D01*
X-10789038Y-10905782D01*
X-10807344Y-10861588D01*
X-10806144Y-10849401D01*
X-10792000Y-10778299D01*
X-10792000Y-10648901D01*
X-10817245Y-10521989D01*
X-10866763Y-10402441D01*
X-10868182Y-10400318D01*
X-10938653Y-10294851D01*
X-11030152Y-10203352D01*
X-11137740Y-10131463D01*
X-11137743Y-10131462D01*
X-11201856Y-10104906D01*
X-11257289Y-10081945D01*
X-11257293Y-10081944D01*
X-11384200Y-10056700D01*
X-11384201Y-10056700D01*
X-11513599Y-10056700D01*
X-11513601Y-10056700D01*
X-11640508Y-10081944D01*
X-11640510Y-10081944D01*
X-11640511Y-10081945D01*
X-11660863Y-10090375D01*
X-11760058Y-10131462D01*
X-11760061Y-10131463D01*
X-11867649Y-10203352D01*
X-11959148Y-10294851D01*
X-12031037Y-10402439D01*
X-12031038Y-10402442D01*
X-12080556Y-10521992D01*
X-12105800Y-10648899D01*
X-12105800Y-10778300D01*
X-12093673Y-10839267D01*
X-12103005Y-10886183D01*
X-12142779Y-10912759D01*
X-12189695Y-10903427D01*
X-12199166Y-10895654D01*
X-12299894Y-10794926D01*
X-12318200Y-10750732D01*
X-12318200Y-10151981D01*
X-12318199Y-10151968D01*
X-12318199Y-10059864D01*
X-12318201Y-10059856D01*
X-12319042Y-10056719D01*
X-12328407Y-10021765D01*
X-12338821Y-9982899D01*
X-12338822Y-9982898D01*
X-12340073Y-9978229D01*
X-12340736Y-9975754D01*
X-12384274Y-9900345D01*
X-12445845Y-9838774D01*
X-12445848Y-9838772D01*
X-12448028Y-9836592D01*
X-12448028Y-9836591D01*
X-12448034Y-9836586D01*
X-13194794Y-9089826D01*
X-13213100Y-9045632D01*
X-13213100Y-8817200D01*
X-13194794Y-8773006D01*
X-13150600Y-8754700D01*
X-13128758Y-8758641D01*
X-13045800Y-8789582D01*
X-13045800Y-6196416D01*
X-13045801Y-6196415D01*
X-13133223Y-6229023D01*
X-13133228Y-6229026D01*
X-13247061Y-6314240D01*
X-13247069Y-6314249D01*
X-13249154Y-6317034D01*
X-13290296Y-6341437D01*
X-13327556Y-6335260D01*
X-13420463Y-6287921D01*
X-13420473Y-6287918D01*
X-13512761Y-6273301D01*
X-13512773Y-6273300D01*
X-13512774Y-6273300D01*
X-13574826Y-6273300D01*
X-13574828Y-6273300D01*
X-13574840Y-6273301D01*
X-13667128Y-6287918D01*
X-13667138Y-6287921D01*
X-13778393Y-6344609D01*
X-13824706Y-6390923D01*
X-13868900Y-6409229D01*
X-13913094Y-6390923D01*
X-13959408Y-6344609D01*
X-14070663Y-6287921D01*
X-14070673Y-6287918D01*
X-14162961Y-6273301D01*
X-14162973Y-6273300D01*
X-14162974Y-6273300D01*
X-14225026Y-6273300D01*
X-14225028Y-6273300D01*
X-14225040Y-6273301D01*
X-14317328Y-6287918D01*
X-14317338Y-6287921D01*
X-14410463Y-6335371D01*
X-14458151Y-6339124D01*
X-14488870Y-6317138D01*
X-14491038Y-6314242D01*
X-14604873Y-6229026D01*
X-14604878Y-6229023D01*
X-14692300Y-6196415D01*
X-14692300Y-8789583D01*
X-14604879Y-8756977D01*
X-14604873Y-8756973D01*
X-14491040Y-8671759D01*
X-14488872Y-8668864D01*
X-14447734Y-8644453D01*
X-14410464Y-8650627D01*
X-14317333Y-8698080D01*
X-14317330Y-8698080D01*
X-14317328Y-8698081D01*
X-14225040Y-8712698D01*
X-14225034Y-8712698D01*
X-14225026Y-8712700D01*
X-14225024Y-8712700D01*
X-14162976Y-8712700D01*
X-14162974Y-8712700D01*
X-14154658Y-8711383D01*
X-14070673Y-8698081D01*
X-14070673Y-8698080D01*
X-14070667Y-8698080D01*
X-13965374Y-8644429D01*
X-13917687Y-8640677D01*
X-13881312Y-8671743D01*
X-13874500Y-8700118D01*
X-13874500Y-9048381D01*
X-13875848Y-9061293D01*
X-13881460Y-9087871D01*
X-13881461Y-9087872D01*
X-13875974Y-9189954D01*
X-13874500Y-9217379D01*
X-13874500Y-9252038D01*
X-13872171Y-9260733D01*
X-13871821Y-9267240D01*
X-13871688Y-9269719D01*
X-13871687Y-9269722D01*
X-13863197Y-9295736D01*
X-13861456Y-9301068D01*
X-13860502Y-9304283D01*
X-13851965Y-9336143D01*
X-13851962Y-9336151D01*
X-13850728Y-9338289D01*
X-13847462Y-9343946D01*
X-13844670Y-9352499D01*
X-13825756Y-9381539D01*
X-13821359Y-9389154D01*
X-13815119Y-9436581D01*
X-13844242Y-9474529D01*
X-13875488Y-9482900D01*
X-15100800Y-9482900D01*
X-15144994Y-9464594D01*
X-15163300Y-9420400D01*
X-15163300Y-8817312D01*
X-15144994Y-8773118D01*
X-15100800Y-8754812D01*
X-15078958Y-8758753D01*
X-14996300Y-8789582D01*
X-14996300Y-6196416D01*
X-14996301Y-6196415D01*
X-15083723Y-6229023D01*
X-15083728Y-6229026D01*
X-15197561Y-6314240D01*
X-15199567Y-6316921D01*
X-15240709Y-6341327D01*
X-15277972Y-6335150D01*
X-15370663Y-6287921D01*
X-15370673Y-6287918D01*
X-15462961Y-6273301D01*
X-15462973Y-6273300D01*
X-15462974Y-6273300D01*
X-15525026Y-6273300D01*
X-15525028Y-6273300D01*
X-15525040Y-6273301D01*
X-15617328Y-6287918D01*
X-15617338Y-6287921D01*
X-15696726Y-6328372D01*
X-15711453Y-6329530D01*
X-15725100Y-6335184D01*
X-15734390Y-6331336D01*
X-15744414Y-6332125D01*
X-15755648Y-6322530D01*
X-15769294Y-6316878D01*
X-15773142Y-6307588D01*
X-15780788Y-6301058D01*
X-15787600Y-6272684D01*
X-15787600Y-6196725D01*
X-15787599Y-6196712D01*
X-15787599Y-6097920D01*
X-15787601Y-6097912D01*
X-15800927Y-6048176D01*
X-15794684Y-6000750D01*
X-15756733Y-5971630D01*
X-15740557Y-5969500D01*
X-12519559Y-5969500D01*
X-12497715Y-5978548D01*
G37*
G04 #@! TD.AperFunction*
G04 #@! TA.AperFunction,Conductor*
G36*
X8379811Y-2190373D02*
G01*
X8398243Y-2234515D01*
X8380063Y-2278761D01*
X8355059Y-2294133D01*
X8343153Y-2298001D01*
X8343140Y-2298007D01*
X8175829Y-2383256D01*
X8023913Y-2493630D01*
X8023905Y-2493637D01*
X7891137Y-2626405D01*
X7891130Y-2626413D01*
X7780756Y-2778329D01*
X7695507Y-2945640D01*
X7695503Y-2945648D01*
X7637475Y-3124240D01*
X7637475Y-3124241D01*
X7617303Y-3251599D01*
X7617304Y-3251600D01*
X8368500Y-3251600D01*
X8343900Y-3343408D01*
X8343900Y-3463792D01*
X8368500Y-3555600D01*
X7617303Y-3555600D01*
X7637475Y-3682958D01*
X7637475Y-3682959D01*
X7695503Y-3861551D01*
X7695507Y-3861559D01*
X7780756Y-4028870D01*
X7891130Y-4180786D01*
X7891137Y-4180794D01*
X7895749Y-4185406D01*
X7914055Y-4229600D01*
X7895749Y-4273794D01*
X7851555Y-4292100D01*
X7068800Y-4292100D01*
X7024606Y-4273794D01*
X7006300Y-4229600D01*
X7024606Y-4185406D01*
X7094558Y-4115453D01*
X7094565Y-4115446D01*
X7195661Y-3976300D01*
X7273745Y-3823051D01*
X7326894Y-3659475D01*
X7353800Y-3489597D01*
X7353800Y-3317603D01*
X7326894Y-3147725D01*
X7273745Y-2984149D01*
X7195661Y-2830900D01*
X7172289Y-2798732D01*
X7094565Y-2691754D01*
X7094558Y-2691746D01*
X6972953Y-2570141D01*
X6972945Y-2570134D01*
X6833802Y-2469040D01*
X6680557Y-2390958D01*
X6680549Y-2390954D01*
X6516973Y-2337805D01*
X6347110Y-2310901D01*
X6347098Y-2310900D01*
X6347097Y-2310900D01*
X6175103Y-2310900D01*
X6175101Y-2310900D01*
X6175089Y-2310901D01*
X6005227Y-2337805D01*
X6005226Y-2337805D01*
X5841650Y-2390954D01*
X5841642Y-2390958D01*
X5688397Y-2469040D01*
X5549254Y-2570134D01*
X5549246Y-2570141D01*
X5427641Y-2691746D01*
X5427634Y-2691754D01*
X5326540Y-2830897D01*
X5248458Y-2984142D01*
X5248454Y-2984150D01*
X5195305Y-3147726D01*
X5195305Y-3147727D01*
X5168401Y-3317589D01*
X5168400Y-3317605D01*
X5168400Y-3489594D01*
X5168401Y-3489610D01*
X5195305Y-3659472D01*
X5195305Y-3659473D01*
X5248454Y-3823049D01*
X5248458Y-3823057D01*
X5326540Y-3976302D01*
X5427634Y-4115445D01*
X5427641Y-4115453D01*
X5497594Y-4185406D01*
X5515900Y-4229600D01*
X5497594Y-4273794D01*
X5453400Y-4292100D01*
X4528800Y-4292100D01*
X4484606Y-4273794D01*
X4466300Y-4229600D01*
X4484606Y-4185406D01*
X4554558Y-4115453D01*
X4554565Y-4115446D01*
X4655661Y-3976300D01*
X4733745Y-3823051D01*
X4786894Y-3659475D01*
X4813800Y-3489597D01*
X4813800Y-3317603D01*
X4786894Y-3147725D01*
X4733745Y-2984149D01*
X4655661Y-2830900D01*
X4632289Y-2798732D01*
X4554565Y-2691754D01*
X4554558Y-2691746D01*
X4432953Y-2570141D01*
X4432945Y-2570134D01*
X4293802Y-2469040D01*
X4140557Y-2390958D01*
X4140549Y-2390954D01*
X3976973Y-2337805D01*
X3807110Y-2310901D01*
X3807098Y-2310900D01*
X3807097Y-2310900D01*
X3635103Y-2310900D01*
X3635101Y-2310900D01*
X3635089Y-2310901D01*
X3465227Y-2337805D01*
X3465226Y-2337805D01*
X3301650Y-2390954D01*
X3301642Y-2390958D01*
X3148397Y-2469040D01*
X3009254Y-2570134D01*
X3009246Y-2570141D01*
X2887641Y-2691746D01*
X2887634Y-2691754D01*
X2786540Y-2830897D01*
X2708458Y-2984142D01*
X2708454Y-2984150D01*
X2655305Y-3147726D01*
X2655305Y-3147727D01*
X2628401Y-3317589D01*
X2628400Y-3317605D01*
X2628400Y-3489594D01*
X2628401Y-3489610D01*
X2655305Y-3659472D01*
X2655305Y-3659473D01*
X2708454Y-3823049D01*
X2708458Y-3823057D01*
X2786540Y-3976302D01*
X2887634Y-4115445D01*
X2887641Y-4115453D01*
X2957594Y-4185406D01*
X2975900Y-4229600D01*
X2957594Y-4273794D01*
X2913400Y-4292100D01*
X1988800Y-4292100D01*
X1944606Y-4273794D01*
X1926300Y-4229600D01*
X1944606Y-4185406D01*
X2014558Y-4115453D01*
X2014565Y-4115446D01*
X2115661Y-3976300D01*
X2193745Y-3823051D01*
X2246894Y-3659475D01*
X2273800Y-3489597D01*
X2273800Y-3317603D01*
X2246894Y-3147725D01*
X2193745Y-2984149D01*
X2115661Y-2830900D01*
X2092289Y-2798732D01*
X2014565Y-2691754D01*
X2014558Y-2691746D01*
X1892953Y-2570141D01*
X1892945Y-2570134D01*
X1753802Y-2469040D01*
X1600557Y-2390958D01*
X1600549Y-2390954D01*
X1436973Y-2337805D01*
X1302044Y-2316434D01*
X1261257Y-2291440D01*
X1250091Y-2244927D01*
X1275085Y-2204140D01*
X1311641Y-2192204D01*
X8335565Y-2172193D01*
X8379811Y-2190373D01*
G37*
G04 #@! TD.AperFunction*
M02*
