<?xml version="1.0" standalone="no"?>
<!DOCTYPE svg PUBLIC "-//W3C//DTD SVG 1.1//EN"
"http://www.w3.org/Graphics/SVG/1.1/DTD/svg11.dtd">
<!-- original:
<svg width="52.4598" height="35.6598" viewBox="0 0 1092.91 742.913" version="1.1"
-->
<svg width="5245.98" height="3565.98" viewBox="0 0 1092.91 742.913" version="1.1"
xmlns="http://www.w3.org/2000/svg"
xmlns:xlink="http://www.w3.org/1999/xlink">
<g fill-rule="evenodd"><path d="M 4.54747e-13,742.913 L 4.54747e-13,-2.27374e-13 L 1092.91,-2.27374e-13 L 1092.91,742.913 L 4.54747e-13,742.913 z " style="fill-opacity:0.200000;fill:rgb(33,1,197);"/></g>
<polyline points="287.699,646.457 138.021,646.457 127.041,632.275 114.697,614.367 105.521,599.199 96.4567,581.921 111.023,433.857 111.401,447.497 112.843,466.015 114.741,479.585 117.811,495.459 120.821,507.999 124.735,521.129 129.801,535.627 135.311,549.047 143.421,565.777 149.601,577.147 157.255,589.531 166.467,602.813 174.239,612.997 182.531,622.763 198.097,639.115 205.509,646.457 96.4567,646.457 96.4567,98.2427 97.3347,96.4567 96.4567,98.2427 96.4567,96.4567 213.995,96.4567 204.575,108.743 194.883,123.417 188.131,135.097 181.873,147.937 175.329,163.427 170.491,177.707 165.505,197.067 162.673,212.683 160.779,231.825 160.235,246.457 160.243,435.483 161.021,452.519 162.335,465.269 164.163,476.335 167.929,493.635 171.293,505.171 176.359,519.601 181.347,531.407 188.487,545.785 194.331,556.107 200.787,566.059 209.239,577.877 217.367,587.863 224.439,595.571 240.827,612.115 251.567,621.631 261.683,629.609 276.211,639.575 287.699,646.457 949.045,646.457 962.149,642.273 977.665,635.939 987.283,631.483 996.457,626.409 987.283,631.483 977.665,635.939 962.149,642.273 949.045,646.457 996.457,646.457 996.457,486.653 990.663,498.341 981.301,512.127 970.187,524.317 964.315,529.539 956.735,535.321 942.379,543.895 927.127,550.257 918.863,552.693 910.323,554.533 895.195,556.167 882.339,555.985 877.311,555.559 865.259,553.597 852.689,550.087 839.831,544.827 829.863,539.363 824.911,536.179 815.061,528.739 399.041,528.599 389.589,527.719 384.797,526.881 373.957,523.891 369.223,522.123 360.483,517.975 355.513,515.027 347.677,509.533 340.077,502.753 329.987,492.327 326.461,488.119 320.557,479.531 315.729,470.243 313.535,464.895 310.581,455.519 308.585,445.063 307.927,436.143 307.873,246.457 308.651,235.103 309.543,229.483 312.671,217.699 317.093,207.215 320.187,201.495 327.463,190.911 333.809,183.829 347.035,171.293 356.777,164.439 366.801,159.245 372.151,157.061 381.925,154.057 392.071,152.235 397.933,151.781 779.027,151.595 781.867,146.559 785.701,141.389 790.179,136.763 794.563,133.225 799.323,130.211 805.141,127.459 811.271,125.489 816.805,124.437 823.227,124.015 957.891,124.021 964.307,124.547 970.599,125.907 977.397,128.401 983.753,131.867 989.535,136.227 994.611,141.389 998.877,147.241 1002.24,153.653 1004.62,160.491 1005.98,167.603 1006.3,173.227 1006.27,308.697 1005.35,316.687 1003.42,323.665 1000.49,330.285 996.457,336.611 996.457,393.373 996.675,393.883 996.457,393.373 996.457,336.611 990.727,343.005 984.427,348.005 976.661,352.239 968.823,354.877 975.121,361.003 983.309,370.835 990.073,380.949 996.675,393.883 1000.88,405.119 1004.22,418.301 1005.93,430.983 1006.24,443.779 1005.15,456.405 1002.9,468.019 999.127,480.259 996.457,486.653 996.457,566.815 987.383,573.891 981.457,577.967 968.471,585.755 959.317,590.263 943.647,596.619 933.691,599.669 927.747,601.145 919.131,602.951 912.807,603.891 898.433,605.273 889.529,605.457 875.233,604.837 860.309,602.741 851.853,600.987 838.107,597.097 822.615,591.029 814.815,587.321 804.405,581.493 798.775,577.951 799.209,576.309 798.775,577.951 402.755,577.951 396.271,577.737 385.133,576.741 373.939,574.881 360.045,571.101 351.729,568.147 338.755,562.137 329.923,557.095 318.787,549.411 309.007,541.095 295.165,527.121 289.937,521.271 281.935,510.357 277.277,503.013 271.083,490.953 267.503,482.339 263.369,469.563 260.563,456.395 259.325,447.149 258.661,433.857 258.691,244.015 259.533,231.851 260.409,224.583 261.821,217.401 264.655,206.377 266.665,200.189 269.079,194.145 273.047,185.233 276.857,178.049 286.607,163.271 296.361,151.783 311.087,137.343 320.459,129.703 328.235,124.275 334.249,120.613 345.473,114.895 351.927,112.079 363.875,108.015 372.555,105.723 385.981,103.397 396.349,102.591 754.891,102.393 756.087,105.557 754.891,102.393 761.635,96.4567 996.457,96.4567 996.457,143.703" style="stroke:rgb(33,1,197);stroke-width:98.425197;fill:none;stroke-opacity:0.5;stroke-linecap:round;stroke-linejoin:round;;fill:none"/>
<polyline points="287.699,646.457 138.021,646.457 127.041,632.275 114.697,614.367 105.521,599.199 96.4567,581.921 111.023,433.857 111.401,447.497 112.843,466.015 114.741,479.585 117.811,495.459 120.821,507.999 124.735,521.129 129.801,535.627 135.311,549.047 143.421,565.777 149.601,577.147 157.255,589.531 166.467,602.813 174.239,612.997 182.531,622.763 198.097,639.115 205.509,646.457 96.4567,646.457 96.4567,98.2427 97.3347,96.4567 96.4567,98.2427 96.4567,96.4567 213.995,96.4567 204.575,108.743 194.883,123.417 188.131,135.097 181.873,147.937 175.329,163.427 170.491,177.707 165.505,197.067 162.673,212.683 160.779,231.825 160.235,246.457 160.243,435.483 161.021,452.519 162.335,465.269 164.163,476.335 167.929,493.635 171.293,505.171 176.359,519.601 181.347,531.407 188.487,545.785 194.331,556.107 200.787,566.059 209.239,577.877 217.367,587.863 224.439,595.571 240.827,612.115 251.567,621.631 261.683,629.609 276.211,639.575 287.699,646.457 949.045,646.457 962.149,642.273 977.665,635.939 987.283,631.483 996.457,626.409 987.283,631.483 977.665,635.939 962.149,642.273 949.045,646.457 996.457,646.457 996.457,486.653 990.663,498.341 981.301,512.127 970.187,524.317 964.315,529.539 956.735,535.321 942.379,543.895 927.127,550.257 918.863,552.693 910.323,554.533 895.195,556.167 882.339,555.985 877.311,555.559 865.259,553.597 852.689,550.087 839.831,544.827 829.863,539.363 824.911,536.179 815.061,528.739 399.041,528.599 389.589,527.719 384.797,526.881 373.957,523.891 369.223,522.123 360.483,517.975 355.513,515.027 347.677,509.533 340.077,502.753 329.987,492.327 326.461,488.119 320.557,479.531 315.729,470.243 313.535,464.895 310.581,455.519 308.585,445.063 307.927,436.143 307.873,246.457 308.651,235.103 309.543,229.483 312.671,217.699 317.093,207.215 320.187,201.495 327.463,190.911 333.809,183.829 347.035,171.293 356.777,164.439 366.801,159.245 372.151,157.061 381.925,154.057 392.071,152.235 397.933,151.781 779.027,151.595 781.867,146.559 785.701,141.389 790.179,136.763 794.563,133.225 799.323,130.211 805.141,127.459 811.271,125.489 816.805,124.437 823.227,124.015 957.891,124.021 964.307,124.547 970.599,125.907 977.397,128.401 983.753,131.867 989.535,136.227 994.611,141.389 998.877,147.241 1002.24,153.653 1004.62,160.491 1005.98,167.603 1006.3,173.227 1006.27,308.697 1005.35,316.687 1003.42,323.665 1000.49,330.285 996.457,336.611 996.457,393.373 996.675,393.883 996.457,393.373 996.457,336.611 990.727,343.005 984.427,348.005 976.661,352.239 968.823,354.877 975.121,361.003 983.309,370.835 990.073,380.949 996.675,393.883 1000.88,405.119 1004.22,418.301 1005.93,430.983 1006.24,443.779 1005.15,456.405 1002.9,468.019 999.127,480.259 996.457,486.653 996.457,566.815 987.383,573.891 981.457,577.967 968.471,585.755 959.317,590.263 943.647,596.619 933.691,599.669 927.747,601.145 919.131,602.951 912.807,603.891 898.433,605.273 889.529,605.457 875.233,604.837 860.309,602.741 851.853,600.987 838.107,597.097 822.615,591.029 814.815,587.321 804.405,581.493 798.775,577.951 799.209,576.309 798.775,577.951 402.755,577.951 396.271,577.737 385.133,576.741 373.939,574.881 360.045,571.101 351.729,568.147 338.755,562.137 329.923,557.095 318.787,549.411 309.007,541.095 295.165,527.121 289.937,521.271 281.935,510.357 277.277,503.013 271.083,490.953 267.503,482.339 263.369,469.563 260.563,456.395 259.325,447.149 258.661,433.857 258.691,244.015 259.533,231.851 260.409,224.583 261.821,217.401 264.655,206.377 266.665,200.189 269.079,194.145 273.047,185.233 276.857,178.049 286.607,163.271 296.361,151.783 311.087,137.343 320.459,129.703 328.235,124.275 334.249,120.613 345.473,114.895 351.927,112.079 363.875,108.015 372.555,105.723 385.981,103.397 396.349,102.591 754.891,102.393 756.087,105.557 754.891,102.393 761.635,96.4567 996.457,96.4567 996.457,143.703" style="stroke:rgb(0,0,0);stroke-width:1px;fill:none;stroke-opacity:1;stroke-linecap:round;stroke-linejoin:round;;fill:none"/>
<polyline points="761.635,96.4567 153.703,96.4567 146.753,108.183 140.149,120.927 132.609,137.781 127.403,151.159 122.765,165.583 118.323,182.683 115.531,195.949 113.473,209.349 111.615,229.385 111.035,244.015 111.023,433.857 307.873,433.857" style="stroke:rgb(33,1,197);stroke-width:98.425197;fill:none;stroke-opacity:0.5;stroke-linecap:round;stroke-linejoin:round;;fill:none"/>
<polyline points="761.635,96.4567 153.703,96.4567 146.753,108.183 140.149,120.927 132.609,137.781 127.403,151.159 122.765,165.583 118.323,182.683 115.531,195.949 113.473,209.349 111.615,229.385 111.035,244.015 111.023,433.857 307.873,433.857" style="stroke:rgb(0,0,0);stroke-width:1px;fill:none;stroke-opacity:1;stroke-linecap:round;stroke-linejoin:round;;fill:none"/>
<polyline points="485.039,351.573 802.185,351.573 794.563,347.089 788.429,341.885 783.225,335.751 779.035,328.739 485.039,328.739 485.039,351.573" style="stroke:rgb(33,1,197);stroke-width:98.425197;fill:none;stroke-opacity:0.5;stroke-linecap:round;stroke-linejoin:round;;fill:none"/>
<polyline points="485.039,351.573 802.185,351.573 794.563,347.089 788.429,341.885 783.225,335.751 779.035,328.739 485.039,328.739 485.039,351.573" style="stroke:rgb(0,0,0);stroke-width:1px;fill:none;stroke-opacity:1;stroke-linecap:round;stroke-linejoin:round;;fill:none"/>
<polyline points="283.083,96.4567 276.789,102.037 263.509,114.937 251.121,128.787 244.891,136.965 237.779,147.667 233.559,154.621 229.727,161.797 223.685,175.127 220.389,183.445 217.373,192.727 214.303,204.531 212.419,213.277 211.169,221.315 209.887,235.077 209.483,243.203 209.457,435.521 210.405,452.615 212.285,465.965 215.853,482.371 220.963,498.345 226.051,510.829 233.241,525.103 239.803,535.919 250.175,550.361 257.569,558.987 270.523,572.393 281.763,582.701 291.205,590.231 305.089,599.615 316.899,606.231 331.441,613.011 343.671,617.541 362.289,622.699 376.649,625.291 391.743,626.753 402.755,627.163 785.199,627.163 785.509,625.853 785.199,627.163 793.607,631.761 800.851,635.229 817.929,642.195 831.599,646.457" style="stroke:rgb(33,1,197);stroke-width:98.425197;fill:none;stroke-opacity:0.5;stroke-linecap:round;stroke-linejoin:round;;fill:none"/>
<polyline points="283.083,96.4567 276.789,102.037 263.509,114.937 251.121,128.787 244.891,136.965 237.779,147.667 233.559,154.621 229.727,161.797 223.685,175.127 220.389,183.445 217.373,192.727 214.303,204.531 212.419,213.277 211.169,221.315 209.887,235.077 209.483,243.203 209.457,435.521 210.405,452.615 212.285,465.965 215.853,482.371 220.963,498.345 226.051,510.829 233.241,525.103 239.803,535.919 250.175,550.361 257.569,558.987 270.523,572.393 281.763,582.701 291.205,590.231 305.089,599.615 316.899,606.231 331.441,613.011 343.671,617.541 362.289,622.699 376.649,625.291 391.743,626.753 402.755,627.163 785.199,627.163 785.509,625.853 785.199,627.163 793.607,631.761 800.851,635.229 817.929,642.195 831.599,646.457" style="stroke:rgb(0,0,0);stroke-width:1px;fill:none;stroke-opacity:1;stroke-linecap:round;stroke-linejoin:round;;fill:none"/>
<g fill-rule="evenodd"><path d="M 357.087,433.857 L 357.087,246.457 L 357.623,239.978 L 359.219,233.676 L 361.83,227.722 L 365.385,222.279 L 368.613,218.622 L 377.851,209.664 L 382.383,206.467 L 388.053,203.635 L 393.331,201.931 L 398.796,200.986 L 823.228,200.787 L 823.228,173.228 L 957.087,173.228 L 957.087,307.087 L 823.228,307.087 L 823.228,279.527 L 435.827,279.527 L 435.827,400.787 L 836.034,400.787 L 842.199,393.473 L 848.742,387.581 L 856.002,382.6 L 863.853,378.614 L 872.159,375.694 L 880.777,373.889 L 889.557,373.231 L 898.347,373.731 L 906.22,375.184 L 913.111,377.288 L 919.737,380.12 L 926.694,384.081 L 932.51,388.333 L 938.395,393.761 L 943.103,399.215 L 947.613,405.83 L 951.3,412.935 L 953.873,419.666 L 955.863,427.42 L 956.852,434.557 L 957.044,442.56 L 956.398,449.737 L 954.984,456.802 L 952.533,464.423 L 948.418,473.101 L 943.103,481.1 L 936.698,488.256 L 933.128,491.471 L 928.683,494.887 L 920.454,499.837 L 911.6,503.559 L 906.996,504.934 L 901.517,506.116 L 891.96,507.062 L 883.959,506.799 L 876.046,505.582 L 868.336,503.429 L 860.938,500.371 L 853.958,496.452 L 847.495,491.727 L 841.643,486.265 L 836.032,479.527 L 402.755,479.527 L 395.657,478.882 L 388.791,476.967 L 383.066,474.25 L 378.47,471.145 L 374.911,467.991 L 365.891,458.671 L 362.633,454.006 L 360.082,448.92 L 358.499,444.306 L 357.389,438.726 L 357.087,433.857 z " style="fill-opacity:1.000000;fill:rgb(33,1,197);stroke:rgb(0,0,0);stroke-width:2"/></g>
</svg>
